{"glyphs":{"0":{"ha":746,"x_min":30,"x_max":694,"o":"m 547 598 l 562 598 l 562 600 l 547 600 l 547 685 l 533 685 l 533 742 l 517 742 l 517 787 l 503 787 l 503 817 l 491 817 l 491 845 l 475 845 l 475 859 l 461 859 l 461 873 l 446 873 l 446 887 l 418 887 l 418 901 l 388 901 l 388 916 l 334 916 l 334 901 l 307 901 l 307 887 l 277 887 l 277 873 l 264 873 l 264 859 l 248 859 l 248 845 l 235 845 l 235 817 l 220 817 l 220 787 l 206 787 l 206 742 l 191 742 l 191 685 l 176 685 l 176 571 l 161 571 l 161 441 l 176 441 l 176 353 l 191 353 l 191 296 l 206 296 l 206 254 l 220 254 l 220 237 l 235 237 l 235 209 l 248 209 l 248 195 l 264 195 l 264 180 l 277 180 l 277 167 l 307 167 l 307 151 l 388 151 l 388 167 l 418 167 l 418 180 l 446 180 l 446 195 l 461 195 l 461 209 l 475 209 l 475 224 l 491 224 l 491 237 l 503 237 l 503 282 l 517 282 l 517 309 l 533 309 l 533 368 l 547 368 l 547 598 m 547 456 l 571 456 l 563 476 l 571 498 l 547 498 l 547 456 m 469 873 l 461 902 l 461 873 l 469 873 m 454 887 l 446 916 l 446 887 l 454 887 m 426 901 l 418 929 l 418 901 l 426 901 m 397 916 l 388 944 l 388 916 l 397 916 m 307 123 l 307 151 l 297 151 l 307 123 m 248 168 l 248 195 l 240 195 l 248 168 m 264 152 l 264 180 l 255 180 l 264 152 m 277 138 l 277 167 l 267 167 l 277 138 m 220 210 l 220 237 l 210 237 l 220 210 m 484 859 l 475 887 l 475 859 l 484 859 m 245 1044 l 288 1044 l 288 1059 l 435 1059 l 435 1044 l 492 1044 l 492 1029 l 509 1029 l 509 1015 l 536 1015 l 536 1002 l 551 1002 l 551 986 l 564 986 l 564 972 l 581 972 l 581 958 l 593 958 l 593 943 l 608 943 l 608 930 l 623 930 l 623 901 l 637 901 l 637 857 l 650 857 l 650 827 l 666 827 l 666 757 l 680 757 l 680 669 l 694 669 l 694 369 l 680 369 l 680 282 l 666 282 l 666 239 l 650 239 l 650 197 l 637 197 l 637 182 l 623 182 l 623 152 l 608 152 l 608 125 l 593 125 l 593 110 l 581 110 l 581 95 l 564 95 l 564 66 l 536 66 l 536 53 l 521 53 l 521 37 l 509 37 l 509 23 l 492 23 l 492 11 l 435 11 l 435 -5 l 331 -5 l 331 11 l 259 11 l 259 23 l 231 23 l 231 37 l 201 37 l 201 53 l 189 53 l 189 66 l 159 66 l 159 81 l 144 81 l 144 95 l 130 95 l 130 110 l 115 110 l 115 140 l 102 140 l 102 168 l 85 168 l 85 197 l 72 197 l 72 239 l 60 239 l 60 282 l 43 282 l 43 384 l 30 384 l 30 642 l 43 642 l 43 770 l 60 770 l 60 814 l 72 814 l 72 857 l 85 857 l 85 886 l 102 886 l 102 916 l 115 916 l 115 930 l 130 930 l 130 958 l 144 958 l 144 972 l 159 972 l 159 986 l 174 986 l 174 1002 l 189 1002 l 189 1015 l 201 1015 l 201 1029 l 245 1029 l 245 1044 z "},"1":{"ha":700,"x_min":28,"x_max":651,"o":"m 216 1044 l 289 1044 l 289 1059 l 363 1059 l 363 1044 l 378 1044 l 378 1029 l 391 1029 l 391 269 l 378 269 l 378 209 l 391 209 l 391 180 l 407 180 l 407 167 l 420 167 l 420 151 l 636 151 l 636 138 l 651 138 l 651 11 l 87 11 l 87 23 l 57 23 l 57 138 l 73 138 l 73 151 l 99 151 l 99 167 l 133 167 l 133 151 l 216 151 l 216 167 l 244 167 l 244 180 l 259 180 l 259 354 l 244 354 l 244 469 l 259 469 l 259 585 l 244 585 l 244 770 l 259 770 l 259 873 l 244 873 l 244 887 l 176 887 l 176 873 l 45 873 l 45 901 l 28 901 l 28 1002 l 45 1002 l 45 1015 l 57 1015 l 57 1029 l 216 1029 l 216 1044 z "},"2":{"ha":716,"x_min":30,"x_max":666,"o":"m 216 1044 l 275 1044 l 275 1059 l 420 1059 l 420 1044 l 464 1044 l 464 1029 l 492 1029 l 492 1015 l 507 1015 l 507 1002 l 522 1002 l 522 986 l 537 986 l 537 972 l 551 972 l 551 958 l 566 958 l 566 943 l 579 943 l 579 930 l 593 930 l 593 901 l 608 901 l 608 857 l 621 857 l 621 685 l 608 685 l 608 643 l 593 643 l 593 600 l 579 600 l 579 571 l 566 571 l 566 555 l 551 555 l 551 543 l 537 543 l 537 528 l 522 528 l 522 498 l 507 498 l 507 484 l 492 484 l 492 468 l 480 468 l 480 456 l 464 456 l 464 426 l 450 426 l 450 414 l 435 414 l 435 397 l 420 397 l 420 384 l 406 384 l 406 354 l 393 354 l 393 340 l 377 340 l 377 327 l 363 327 l 363 311 l 350 311 l 350 297 l 335 297 l 335 282 l 321 282 l 321 269 l 305 269 l 305 254 l 293 254 l 293 239 l 278 239 l 278 225 l 263 225 l 263 197 l 248 197 l 248 180 l 562 180 l 562 195 l 590 195 l 590 209 l 637 209 l 637 195 l 666 195 l 666 81 l 651 81 l 651 37 l 637 37 l 637 23 l 608 23 l 608 11 l 446 11 l 446 23 l 350 23 l 350 11 l 317 11 l 317 23 l 293 23 l 293 11 l 58 11 l 58 23 l 43 23 l 43 37 l 30 37 l 30 151 l 43 151 l 43 180 l 58 180 l 58 195 l 73 195 l 73 209 l 88 209 l 88 224 l 100 224 l 100 237 l 117 237 l 117 254 l 130 254 l 130 267 l 144 267 l 144 282 l 159 282 l 159 309 l 172 309 l 172 326 l 189 326 l 189 338 l 201 338 l 201 353 l 216 353 l 216 368 l 231 368 l 231 382 l 245 382 l 245 396 l 259 396 l 259 411 l 275 411 l 275 441 l 288 441 l 288 454 l 304 454 l 304 469 l 317 469 l 317 483 l 332 483 l 332 498 l 346 498 l 346 525 l 359 525 l 359 540 l 374 540 l 374 553 l 388 553 l 388 583 l 403 583 l 403 598 l 416 598 l 416 627 l 433 627 l 433 656 l 446 656 l 446 699 l 461 699 l 461 741 l 475 741 l 475 817 l 461 817 l 461 845 l 446 845 l 446 859 l 433 859 l 433 873 l 416 873 l 416 887 l 403 887 l 403 901 l 359 901 l 359 916 l 278 916 l 278 901 l 263 901 l 263 887 l 248 887 l 248 873 l 235 873 l 235 859 l 218 859 l 218 845 l 206 845 l 206 772 l 190 772 l 190 742 l 176 742 l 176 730 l 161 730 l 161 713 l 88 713 l 88 730 l 73 730 l 73 742 l 58 742 l 58 857 l 73 857 l 73 901 l 88 901 l 88 916 l 100 916 l 100 943 l 117 943 l 117 958 l 130 958 l 130 972 l 144 972 l 144 986 l 159 986 l 159 1002 l 172 1002 l 172 1015 l 189 1015 l 189 1029 l 216 1029 l 216 1044 z "},"3":{"ha":716,"x_min":30,"x_max":666,"o":"m 231 1029 l 304 1029 l 304 1044 l 350 1044 l 350 1029 l 420 1029 l 420 1015 l 464 1015 l 464 1002 l 492 1002 l 492 986 l 522 986 l 522 972 l 537 972 l 537 958 l 551 958 l 551 943 l 566 943 l 566 916 l 579 916 l 579 901 l 593 901 l 593 844 l 608 844 l 608 658 l 593 658 l 593 613 l 579 613 l 579 585 l 566 585 l 566 571 l 551 571 l 551 555 l 537 555 l 537 553 l 551 553 l 551 540 l 566 540 l 566 525 l 579 525 l 579 511 l 593 511 l 593 498 l 608 498 l 608 483 l 621 483 l 621 454 l 637 454 l 637 425 l 651 425 l 651 368 l 666 368 l 666 225 l 651 225 l 651 182 l 637 182 l 637 140 l 621 140 l 621 110 l 608 110 l 608 81 l 593 81 l 593 66 l 579 66 l 579 53 l 566 53 l 566 37 l 551 37 l 551 23 l 537 23 l 537 11 l 507 11 l 507 -5 l 464 -5 l 464 -19 l 420 -19 l 420 -34 l 189 -34 l 189 -19 l 144 -19 l 144 -5 l 117 -5 l 117 11 l 88 11 l 88 23 l 58 23 l 58 37 l 43 37 l 43 66 l 30 66 l 30 138 l 43 138 l 43 151 l 58 151 l 58 167 l 119 167 l 119 151 l 148 151 l 148 138 l 176 138 l 176 123 l 235 123 l 235 109 l 359 109 l 359 123 l 403 123 l 403 138 l 433 138 l 433 151 l 446 151 l 446 167 l 461 167 l 461 180 l 475 180 l 475 209 l 490 209 l 490 237 l 505 237 l 505 282 l 519 282 l 519 340 l 505 340 l 505 384 l 490 384 l 490 397 l 475 397 l 475 426 l 446 426 l 446 441 l 433 441 l 433 456 l 403 456 l 403 468 l 288 468 l 288 484 l 275 484 l 275 498 l 259 498 l 259 598 l 275 598 l 275 612 l 359 612 l 359 627 l 403 627 l 403 642 l 433 642 l 433 669 l 446 669 l 446 699 l 461 699 l 461 728 l 475 728 l 475 772 l 461 772 l 461 802 l 446 802 l 446 829 l 433 829 l 433 845 l 416 845 l 416 859 l 403 859 l 403 873 l 388 873 l 388 887 l 278 887 l 278 873 l 263 873 l 263 859 l 248 859 l 248 845 l 235 845 l 235 817 l 218 817 l 218 787 l 206 787 l 206 772 l 190 772 l 190 757 l 100 757 l 100 772 l 88 772 l 88 886 l 100 886 l 100 930 l 117 930 l 117 943 l 130 943 l 130 972 l 144 972 l 144 986 l 172 986 l 172 1002 l 201 1002 l 201 1015 l 231 1015 l 231 1029 z "},"4":{"ha":838,"x_min":31,"x_max":784,"o":"m 362 1073 l 377 1073 l 377 1088 l 407 1088 l 407 1073 l 452 1073 l 452 1059 l 465 1059 l 465 930 l 452 930 l 452 901 l 437 901 l 437 873 l 423 873 l 423 845 l 407 845 l 407 817 l 395 817 l 395 802 l 380 802 l 380 757 l 365 757 l 365 730 l 353 730 l 353 700 l 336 700 l 336 671 l 323 671 l 323 643 l 308 643 l 308 613 l 293 613 l 293 585 l 278 585 l 278 555 l 266 555 l 266 528 l 250 528 l 250 498 l 236 498 l 236 484 l 221 484 l 221 456 l 208 456 l 208 426 l 193 426 l 193 414 l 178 414 l 178 384 l 165 384 l 165 368 l 193 368 l 193 353 l 434 353 l 434 368 l 476 368 l 476 396 l 492 396 l 492 656 l 506 656 l 506 669 l 521 669 l 521 685 l 582 685 l 582 669 l 597 669 l 597 656 l 609 656 l 609 382 l 624 382 l 624 368 l 639 368 l 639 353 l 754 353 l 754 338 l 768 338 l 768 309 l 784 309 l 784 239 l 768 239 l 768 225 l 754 225 l 754 212 l 639 212 l 639 197 l 624 197 l 624 66 l 609 66 l 609 11 l 597 11 l 597 -5 l 582 -5 l 582 -19 l 521 -19 l 521 -5 l 492 -5 l 492 37 l 476 37 l 476 212 l 73 212 l 73 225 l 45 225 l 45 254 l 31 254 l 31 411 l 45 411 l 45 454 l 61 454 l 61 469 l 73 469 l 73 498 l 88 498 l 88 525 l 103 525 l 103 540 l 118 540 l 118 570 l 132 570 l 132 598 l 148 598 l 148 627 l 160 627 l 160 656 l 175 656 l 175 699 l 190 699 l 190 728 l 202 728 l 202 757 l 218 757 l 218 785 l 232 785 l 232 814 l 247 814 l 247 857 l 260 857 l 260 872 l 275 872 l 275 916 l 289 916 l 289 958 l 305 958 l 305 986 l 319 986 l 319 1015 l 334 1015 l 334 1044 l 347 1044 l 347 1059 l 362 1059 l 362 1073 z "},"5":{"ha":716,"x_min":30,"x_max":666,"o":"m 159 1029 l 506 1029 l 506 1044 l 566 1044 l 566 1029 l 595 1029 l 595 901 l 579 901 l 579 887 l 551 887 l 551 873 l 263 873 l 263 859 l 250 859 l 250 802 l 235 802 l 235 728 l 263 728 l 263 713 l 450 713 l 450 699 l 480 699 l 480 685 l 507 685 l 507 669 l 524 669 l 524 656 l 551 656 l 551 642 l 566 642 l 566 627 l 579 627 l 579 612 l 595 612 l 595 583 l 608 583 l 608 570 l 623 570 l 623 540 l 637 540 l 637 511 l 652 511 l 652 454 l 666 454 l 666 327 l 652 327 l 652 239 l 637 239 l 637 212 l 623 212 l 623 182 l 608 182 l 608 168 l 595 168 l 595 125 l 579 125 l 579 110 l 566 110 l 566 95 l 551 95 l 551 66 l 537 66 l 537 53 l 507 53 l 507 37 l 495 37 l 495 23 l 465 23 l 465 11 l 437 11 l 437 -5 l 378 -5 l 378 -19 l 145 -19 l 145 -5 l 88 -5 l 88 11 l 58 11 l 58 23 l 45 23 l 45 37 l 30 37 l 30 138 l 45 138 l 45 151 l 134 151 l 134 138 l 191 138 l 191 123 l 290 123 l 290 138 l 332 138 l 332 151 l 361 151 l 361 167 l 391 167 l 391 180 l 418 180 l 418 195 l 433 195 l 433 209 l 448 209 l 448 224 l 461 224 l 461 254 l 477 254 l 477 267 l 490 267 l 490 296 l 506 296 l 506 368 l 519 368 l 519 384 l 506 384 l 506 441 l 490 441 l 490 468 l 477 468 l 477 484 l 461 484 l 461 513 l 433 513 l 433 528 l 418 528 l 418 543 l 403 543 l 403 555 l 374 555 l 374 571 l 235 571 l 235 555 l 130 555 l 130 585 l 117 585 l 117 814 l 130 814 l 130 1015 l 159 1015 l 159 1029 z "},"6":{"ha":716,"x_min":30,"x_max":666,"o":"m 176 309 l 191 309 l 191 267 l 206 267 l 206 237 l 221 237 l 221 209 l 235 209 l 235 195 l 250 195 l 250 180 l 263 180 l 263 167 l 279 167 l 279 151 l 293 151 l 293 138 l 335 138 l 335 123 l 361 123 l 361 138 l 403 138 l 403 151 l 433 151 l 433 167 l 448 167 l 448 180 l 461 180 l 461 195 l 477 195 l 477 224 l 490 224 l 490 237 l 506 237 l 506 282 l 519 282 l 519 426 l 506 426 l 506 441 l 490 441 l 490 468 l 477 468 l 477 484 l 461 484 l 461 498 l 433 498 l 433 513 l 391 513 l 391 528 l 335 528 l 335 513 l 293 513 l 293 498 l 263 498 l 263 484 l 250 484 l 250 468 l 235 468 l 235 456 l 221 456 l 221 441 l 206 441 l 206 414 l 191 414 l 191 384 l 176 384 l 176 309 m 235 168 l 235 195 l 225 195 l 235 168 m 250 152 l 250 180 l 240 180 l 250 152 m 263 138 l 263 167 l 255 167 l 263 138 m 279 123 l 279 151 l 270 151 l 279 123 m 293 110 l 293 138 l 283 138 l 293 110 m 335 95 l 335 123 l 326 123 l 335 95 m 514 441 l 506 469 l 506 441 l 514 441 m 499 468 l 490 496 l 490 468 l 499 468 m 486 484 l 477 511 l 477 484 l 486 484 m 471 498 l 461 526 l 461 498 l 471 498 m 441 513 l 433 541 l 433 513 l 441 513 m 399 528 l 391 555 l 391 528 l 399 528 m 391 1059 l 477 1059 l 477 1073 l 537 1073 l 537 1059 l 566 1059 l 566 930 l 537 930 l 537 916 l 465 916 l 465 901 l 408 901 l 408 887 l 378 887 l 378 873 l 363 873 l 363 859 l 335 859 l 335 845 l 321 845 l 321 829 l 308 829 l 308 817 l 293 817 l 293 787 l 279 787 l 279 772 l 263 772 l 263 757 l 250 757 l 250 730 l 235 730 l 235 700 l 221 700 l 221 671 l 206 671 l 206 643 l 191 643 l 191 612 l 203 612 l 203 627 l 216 627 l 216 642 l 260 642 l 260 656 l 290 656 l 290 669 l 332 669 l 332 685 l 450 685 l 450 669 l 495 669 l 495 656 l 507 656 l 507 642 l 537 642 l 537 627 l 566 627 l 566 612 l 579 612 l 579 598 l 595 598 l 595 583 l 608 583 l 608 570 l 623 570 l 623 525 l 637 525 l 637 511 l 652 511 l 652 454 l 666 454 l 666 297 l 652 297 l 652 212 l 637 212 l 637 168 l 623 168 l 623 140 l 608 140 l 608 110 l 595 110 l 595 95 l 579 95 l 579 66 l 551 66 l 551 53 l 524 53 l 524 37 l 507 37 l 507 23 l 495 23 l 495 11 l 465 11 l 465 -5 l 408 -5 l 408 -19 l 290 -19 l 290 -5 l 232 -5 l 232 11 l 203 11 l 203 23 l 174 23 l 174 37 l 159 37 l 159 53 l 145 53 l 145 66 l 130 66 l 130 95 l 117 95 l 117 110 l 100 110 l 100 140 l 88 140 l 88 168 l 75 168 l 75 197 l 58 197 l 58 254 l 45 254 l 45 327 l 30 327 l 30 570 l 45 570 l 45 642 l 58 642 l 58 699 l 75 699 l 75 741 l 88 741 l 88 785 l 100 785 l 100 814 l 117 814 l 117 844 l 130 844 l 130 857 l 145 857 l 145 886 l 159 886 l 159 901 l 174 901 l 174 916 l 189 916 l 189 930 l 203 930 l 203 943 l 216 943 l 216 958 l 232 958 l 232 972 l 245 972 l 245 986 l 275 986 l 275 1002 l 290 1002 l 290 1015 l 332 1015 l 332 1029 l 361 1029 l 361 1044 l 391 1044 l 391 1059 z "},"7":{"ha":684,"x_min":28,"x_max":635,"o":"m 42 1015 l 71 1015 l 71 1029 l 132 1029 l 132 1015 l 273 1015 l 273 1029 l 591 1029 l 591 1015 l 608 1015 l 608 1002 l 620 1002 l 620 986 l 635 986 l 635 845 l 620 845 l 620 817 l 608 817 l 608 787 l 591 787 l 591 757 l 578 757 l 578 700 l 563 700 l 563 658 l 549 658 l 549 628 l 534 628 l 534 600 l 521 600 l 521 571 l 506 571 l 506 543 l 491 543 l 491 513 l 477 513 l 477 456 l 463 456 l 463 414 l 449 414 l 449 397 l 433 397 l 433 369 l 420 369 l 420 327 l 406 327 l 406 282 l 391 282 l 391 239 l 376 239 l 376 182 l 363 182 l 363 168 l 347 168 l 347 95 l 334 95 l 334 66 l 317 66 l 317 23 l 304 23 l 304 11 l 292 11 l 292 -19 l 275 -19 l 275 -34 l 247 -34 l 247 -47 l 186 -47 l 186 -34 l 171 -34 l 171 -19 l 159 -19 l 159 109 l 171 109 l 171 138 l 186 138 l 186 167 l 201 167 l 201 209 l 216 209 l 216 237 l 228 237 l 228 282 l 244 282 l 244 309 l 258 309 l 258 338 l 273 338 l 273 382 l 286 382 l 286 411 l 300 411 l 300 454 l 316 454 l 316 483 l 330 483 l 330 525 l 345 525 l 345 553 l 358 553 l 358 598 l 373 598 l 373 627 l 387 627 l 387 642 l 403 642 l 403 685 l 415 685 l 415 728 l 431 728 l 431 757 l 445 757 l 445 785 l 460 785 l 460 814 l 473 814 l 473 859 l 57 859 l 57 873 l 42 873 l 42 901 l 28 901 l 28 1002 l 42 1002 l 42 1015 z "},"8":{"ha":746,"x_min":30,"x_max":694,"o":"m 176 267 l 191 267 l 191 237 l 206 237 l 206 209 l 220 209 l 220 195 l 235 195 l 235 180 l 248 180 l 248 167 l 292 167 l 292 151 l 334 151 l 334 138 l 376 138 l 376 151 l 418 151 l 418 167 l 446 167 l 446 180 l 475 180 l 475 195 l 491 195 l 491 209 l 503 209 l 503 237 l 518 237 l 518 254 l 533 254 l 533 354 l 518 354 l 518 384 l 503 384 l 503 414 l 491 414 l 491 426 l 475 426 l 475 441 l 446 441 l 446 456 l 418 456 l 418 468 l 388 468 l 388 484 l 334 484 l 334 468 l 277 468 l 277 456 l 248 456 l 248 441 l 235 441 l 235 426 l 220 426 l 220 414 l 206 414 l 206 384 l 191 384 l 191 354 l 176 354 l 176 267 m 547 297 l 547 282 l 556 309 l 533 309 l 533 297 l 547 297 m 161 311 l 176 311 l 176 326 l 161 326 l 161 311 m 248 138 l 248 167 l 240 167 l 248 138 m 292 123 l 292 151 l 283 151 l 292 123 m 334 110 l 334 138 l 326 138 l 334 110 m 426 468 l 418 496 l 418 468 l 426 468 m 499 426 l 491 454 l 491 426 l 499 426 m 484 441 l 475 469 l 475 441 l 484 441 m 454 456 l 446 484 l 446 456 l 454 456 m 220 168 l 220 195 l 210 195 l 220 168 m 397 484 l 388 511 l 388 484 l 397 484 m 235 152 l 235 180 l 225 180 l 235 152 m 503 845 l 491 845 l 491 859 l 475 859 l 475 887 l 461 887 l 461 901 l 433 901 l 433 916 l 403 916 l 403 930 l 321 930 l 321 916 l 292 916 l 292 901 l 264 901 l 264 887 l 248 887 l 248 873 l 235 873 l 235 859 l 220 859 l 220 817 l 206 817 l 206 770 l 220 770 l 220 741 l 235 741 l 235 728 l 248 728 l 248 713 l 264 713 l 264 699 l 277 699 l 277 685 l 307 685 l 307 669 l 349 669 l 349 656 l 388 656 l 388 669 l 418 669 l 418 685 l 446 685 l 446 699 l 475 699 l 475 728 l 491 728 l 491 757 l 503 757 l 503 845 m 518 787 l 518 770 l 528 799 l 503 799 l 503 787 l 518 787 m 499 859 l 491 887 l 491 859 l 499 859 m 469 901 l 461 929 l 461 901 l 469 901 m 442 916 l 433 944 l 433 916 l 442 916 m 412 930 l 403 959 l 403 930 l 412 930 m 235 700 l 235 728 l 225 728 l 235 700 m 307 642 l 307 669 l 297 669 l 307 642 m 264 670 l 264 699 l 255 699 l 264 670 m 277 656 l 277 685 l 267 685 l 277 656 m 248 686 l 248 713 l 240 713 l 248 686 m 349 628 l 349 656 l 339 656 l 349 628 m 245 1059 l 288 1059 l 288 1073 l 435 1073 l 435 1059 l 492 1059 l 492 1044 l 521 1044 l 521 1029 l 551 1029 l 551 1015 l 564 1015 l 564 1002 l 581 1002 l 581 972 l 593 972 l 593 958 l 608 958 l 608 930 l 623 930 l 623 901 l 637 901 l 637 700 l 623 700 l 623 671 l 608 671 l 608 643 l 593 643 l 593 628 l 581 628 l 581 613 l 564 613 l 564 600 l 551 600 l 551 585 l 537 585 l 537 583 l 551 583 l 551 570 l 581 570 l 581 553 l 593 553 l 593 540 l 608 540 l 608 525 l 623 525 l 623 511 l 637 511 l 637 483 l 650 483 l 650 469 l 666 469 l 666 441 l 680 441 l 680 382 l 694 382 l 694 239 l 680 239 l 680 182 l 666 182 l 666 152 l 650 152 l 650 140 l 637 140 l 637 125 l 623 125 l 623 110 l 608 110 l 608 95 l 593 95 l 593 81 l 581 81 l 581 66 l 564 66 l 564 53 l 551 53 l 551 37 l 521 37 l 521 23 l 492 23 l 492 11 l 406 11 l 406 -5 l 316 -5 l 316 11 l 217 11 l 217 23 l 189 23 l 189 37 l 159 37 l 159 53 l 144 53 l 144 66 l 130 66 l 130 81 l 115 81 l 115 95 l 102 95 l 102 110 l 87 110 l 87 140 l 72 140 l 72 168 l 60 168 l 60 182 l 43 182 l 43 254 l 30 254 l 30 353 l 43 353 l 43 425 l 60 425 l 60 454 l 72 454 l 72 483 l 87 483 l 87 498 l 102 498 l 102 511 l 115 511 l 115 525 l 144 525 l 144 540 l 159 540 l 159 553 l 174 553 l 174 570 l 189 570 l 189 571 l 174 571 l 174 585 l 159 585 l 159 600 l 130 600 l 130 628 l 115 628 l 115 643 l 102 643 l 102 685 l 87 685 l 87 730 l 72 730 l 72 857 l 87 857 l 87 901 l 102 901 l 102 943 l 115 943 l 115 972 l 130 972 l 130 986 l 144 986 l 144 1002 l 159 1002 l 159 1015 l 189 1015 l 189 1029 l 201 1029 l 201 1044 l 245 1044 l 245 1059 z "},"9":{"ha":700,"x_min":28,"x_max":651,"o":"m 163 685 l 176 685 l 176 627 l 191 627 l 191 612 l 205 612 l 205 583 l 220 583 l 220 570 l 233 570 l 233 553 l 262 553 l 262 540 l 292 540 l 292 525 l 373 525 l 373 540 l 403 540 l 403 553 l 418 553 l 418 570 l 431 570 l 431 583 l 460 583 l 460 612 l 476 612 l 476 627 l 488 627 l 488 642 l 503 642 l 503 772 l 488 772 l 488 802 l 476 802 l 476 829 l 460 829 l 460 859 l 446 859 l 446 873 l 431 873 l 431 887 l 403 887 l 403 901 l 361 901 l 361 916 l 320 916 l 320 901 l 292 901 l 292 887 l 262 887 l 262 873 l 233 873 l 233 859 l 220 859 l 220 845 l 205 845 l 205 817 l 191 817 l 191 802 l 176 802 l 176 713 l 163 713 l 163 685 m 191 583 l 191 612 l 183 612 l 191 583 m 220 541 l 220 570 l 210 570 l 220 541 m 233 526 l 233 553 l 225 553 l 233 526 m 262 511 l 262 540 l 254 540 l 262 511 m 292 496 l 292 525 l 282 525 l 292 496 m 456 873 l 446 902 l 446 873 l 456 873 m 439 887 l 431 916 l 431 887 l 439 887 m 412 901 l 403 929 l 403 901 l 412 901 m 369 916 l 361 944 l 361 916 l 369 916 m 216 1044 l 286 1044 l 286 1059 l 391 1059 l 391 1044 l 435 1044 l 435 1029 l 479 1029 l 479 1015 l 506 1015 l 506 1002 l 521 1002 l 521 986 l 549 986 l 549 972 l 566 972 l 566 943 l 578 943 l 578 930 l 593 930 l 593 901 l 608 901 l 608 872 l 623 872 l 623 844 l 636 844 l 636 770 l 651 770 l 651 456 l 636 456 l 636 397 l 623 397 l 623 340 l 608 340 l 608 282 l 593 282 l 593 254 l 578 254 l 578 225 l 566 225 l 566 212 l 549 212 l 549 182 l 536 182 l 536 168 l 521 168 l 521 140 l 506 140 l 506 125 l 494 125 l 494 110 l 479 110 l 479 95 l 464 95 l 464 81 l 449 81 l 449 66 l 435 66 l 435 53 l 407 53 l 407 37 l 378 37 l 378 23 l 349 23 l 349 11 l 320 11 l 320 -5 l 277 -5 l 277 -19 l 220 -19 l 220 -34 l 174 -34 l 174 -19 l 115 -19 l 115 11 l 99 11 l 99 79 l 115 79 l 115 109 l 144 109 l 144 123 l 202 123 l 202 138 l 244 138 l 244 151 l 286 151 l 286 167 l 316 167 l 316 180 l 345 180 l 345 209 l 361 209 l 361 224 l 389 224 l 389 237 l 403 237 l 403 254 l 418 254 l 418 282 l 431 282 l 431 309 l 446 309 l 446 338 l 460 338 l 460 368 l 476 368 l 476 396 l 488 396 l 488 414 l 464 414 l 464 397 l 435 397 l 435 384 l 407 384 l 407 369 l 232 369 l 232 384 l 186 384 l 186 397 l 159 397 l 159 414 l 144 414 l 144 426 l 129 426 l 129 441 l 115 441 l 115 456 l 99 456 l 99 468 l 87 468 l 87 498 l 72 498 l 72 528 l 57 528 l 57 555 l 45 555 l 45 600 l 28 600 l 28 814 l 45 814 l 45 857 l 57 857 l 57 901 l 72 901 l 72 930 l 87 930 l 87 943 l 99 943 l 99 972 l 115 972 l 115 986 l 144 986 l 144 1002 l 159 1002 l 159 1015 l 186 1015 l 186 1029 l 216 1029 l 216 1044 z "},"\u0000":{"ha":0,"x_min":0,"x_max":0,"o":""},"\r":{"ha":1389,"x_min":0,"x_max":0,"o":""}," ":{"ha":597,"x_min":0,"x_max":0,"o":""},"b":{"ha":852,"x_min":35,"x_max":783,"o":"m 639 400 l 627 400 l 627 427 l 612 427 l 612 456 l 598 456 l 598 471 l 583 471 l 583 484 l 570 484 l 570 499 l 555 499 l 555 511 l 543 511 l 543 526 l 498 526 l 498 540 l 362 540 l 362 526 l 334 526 l 334 511 l 305 511 l 305 484 l 292 484 l 292 187 l 305 187 l 305 172 l 320 172 l 320 160 l 334 160 l 334 145 l 389 145 l 389 132 l 486 132 l 486 145 l 513 145 l 513 160 l 543 160 l 543 172 l 555 172 l 555 187 l 583 187 l 583 217 l 598 217 l 598 231 l 612 231 l 612 258 l 627 258 l 627 286 l 639 286 l 639 400 m 655 358 l 655 345 l 663 372 l 639 372 l 639 358 l 655 358 m 606 471 l 598 498 l 598 471 l 606 471 m 591 484 l 583 511 l 583 484 l 591 484 m 578 499 l 570 526 l 570 499 l 578 499 m 563 511 l 555 538 l 555 511 l 563 511 m 551 526 l 543 555 l 543 526 l 551 526 m 334 118 l 334 145 l 324 145 l 334 118 m 305 145 l 305 172 l 297 172 l 305 145 m 320 133 l 320 160 l 312 160 l 320 133 m 507 540 l 498 568 l 498 540 l 507 540 m 389 104 l 389 132 l 381 132 l 389 104 m 148 1004 l 189 1004 l 189 1017 l 292 1017 l 292 1004 l 305 1004 l 305 975 l 320 975 l 320 906 l 305 906 l 305 766 l 292 766 l 292 681 l 305 681 l 305 666 l 331 666 l 331 681 l 400 681 l 400 693 l 559 693 l 559 681 l 601 681 l 601 666 l 629 666 l 629 651 l 644 651 l 644 637 l 671 637 l 671 624 l 686 624 l 686 610 l 699 610 l 699 595 l 713 595 l 713 567 l 727 567 l 727 555 l 742 555 l 742 525 l 754 525 l 754 498 l 769 498 l 769 412 l 783 412 l 783 259 l 769 259 l 769 202 l 754 202 l 754 161 l 742 161 l 742 133 l 727 133 l 727 118 l 713 118 l 713 104 l 699 104 l 699 90 l 686 90 l 686 76 l 671 76 l 671 61 l 656 61 l 656 49 l 629 49 l 629 34 l 616 34 l 616 20 l 572 20 l 572 5 l 530 5 l 530 -8 l 331 -8 l 331 5 l 264 5 l 264 -8 l 176 -8 l 176 5 l 161 5 l 161 343 l 176 343 l 176 808 l 161 808 l 161 836 l 148 836 l 148 849 l 64 849 l 64 864 l 49 864 l 49 878 l 35 878 l 35 948 l 49 948 l 49 975 l 76 975 l 76 989 l 148 989 l 148 1004 z "},"c":{"ha":760,"x_min":34,"x_max":696,"o":"m 258 693 l 301 693 l 301 708 l 502 708 l 502 693 l 543 693 l 543 681 l 570 681 l 570 666 l 585 666 l 585 651 l 600 651 l 600 637 l 612 637 l 612 624 l 627 624 l 627 595 l 640 595 l 640 525 l 655 525 l 655 442 l 640 442 l 640 414 l 627 414 l 627 400 l 540 400 l 540 414 l 511 414 l 511 442 l 496 442 l 496 526 l 484 526 l 484 540 l 469 540 l 469 555 l 426 555 l 426 570 l 331 570 l 331 555 l 304 555 l 304 540 l 275 540 l 275 526 l 262 526 l 262 511 l 245 511 l 245 499 l 233 499 l 233 484 l 218 484 l 218 471 l 205 471 l 205 442 l 190 442 l 190 400 l 178 400 l 178 298 l 190 298 l 190 258 l 205 258 l 205 245 l 218 245 l 218 217 l 233 217 l 233 201 l 245 201 l 245 187 l 275 187 l 275 172 l 304 172 l 304 160 l 374 160 l 374 145 l 439 145 l 439 160 l 525 160 l 525 172 l 552 172 l 552 187 l 594 187 l 594 201 l 684 201 l 684 187 l 696 187 l 696 90 l 684 90 l 684 76 l 669 76 l 669 61 l 640 61 l 640 49 l 600 49 l 600 34 l 570 34 l 570 20 l 502 20 l 502 5 l 457 5 l 457 -8 l 273 -8 l 273 5 l 216 5 l 216 20 l 172 20 l 172 34 l 160 34 l 160 49 l 146 49 l 146 61 l 132 61 l 132 76 l 118 76 l 118 90 l 103 90 l 103 104 l 90 104 l 90 133 l 75 133 l 75 161 l 61 161 l 61 202 l 46 202 l 46 244 l 34 244 l 34 399 l 46 399 l 46 483 l 61 483 l 61 510 l 75 510 l 75 538 l 90 538 l 90 567 l 103 567 l 103 582 l 118 582 l 118 595 l 132 595 l 132 610 l 146 610 l 146 624 l 160 624 l 160 637 l 172 637 l 172 651 l 201 651 l 201 666 l 216 666 l 216 681 l 258 681 l 258 693 z "},"d":{"ha":823,"x_min":35,"x_max":757,"o":"m 165 328 l 179 328 l 179 271 l 194 271 l 194 245 l 208 245 l 208 231 l 222 231 l 222 201 l 235 201 l 235 187 l 250 187 l 250 172 l 263 172 l 263 160 l 292 160 l 292 145 l 391 145 l 391 132 l 400 132 l 400 145 l 456 145 l 456 160 l 486 160 l 486 172 l 500 172 l 500 187 l 513 187 l 513 313 l 528 313 l 528 456 l 513 456 l 513 511 l 486 511 l 486 526 l 456 526 l 456 540 l 415 540 l 415 555 l 335 555 l 335 540 l 292 540 l 292 526 l 263 526 l 263 511 l 235 511 l 235 484 l 222 484 l 222 471 l 208 471 l 208 456 l 194 456 l 194 427 l 179 427 l 179 385 l 165 385 l 165 328 m 194 217 l 194 245 l 184 245 l 194 217 m 208 202 l 208 231 l 198 231 l 208 202 m 235 160 l 235 187 l 227 187 l 235 160 m 250 145 l 250 172 l 241 172 l 250 145 m 263 133 l 263 160 l 255 160 l 263 133 m 292 118 l 292 145 l 282 145 l 292 118 m 391 104 l 391 132 l 381 132 l 391 104 m 494 526 l 486 555 l 486 526 l 494 526 m 465 540 l 456 568 l 456 540 l 465 540 m 423 555 l 415 583 l 415 555 l 423 555 m 513 1004 l 556 1004 l 556 1017 l 644 1017 l 644 975 l 656 975 l 656 864 l 644 864 l 644 863 l 656 863 l 656 766 l 644 766 l 644 201 l 656 201 l 656 172 l 727 172 l 727 160 l 757 160 l 757 49 l 742 49 l 742 34 l 685 34 l 685 20 l 644 20 l 644 5 l 541 5 l 541 20 l 488 20 l 488 5 l 433 5 l 433 -8 l 232 -8 l 232 5 l 205 5 l 205 20 l 176 20 l 176 34 l 161 34 l 161 49 l 134 49 l 134 61 l 119 61 l 119 76 l 106 76 l 106 90 l 91 90 l 91 118 l 79 118 l 79 133 l 64 133 l 64 161 l 50 161 l 50 217 l 35 217 l 35 441 l 50 441 l 50 483 l 64 483 l 64 525 l 79 525 l 79 555 l 91 555 l 91 567 l 106 567 l 106 582 l 119 582 l 119 595 l 134 595 l 134 610 l 148 610 l 148 624 l 161 624 l 161 637 l 190 637 l 190 651 l 217 651 l 217 666 l 245 666 l 245 681 l 488 681 l 488 666 l 513 666 l 513 836 l 471 836 l 471 849 l 400 849 l 400 960 l 415 960 l 415 975 l 444 975 l 444 989 l 513 989 l 513 1004 z "},"e":{"ha":776,"x_min":34,"x_max":712,"o":"m 540 471 l 525 471 l 525 484 l 511 484 l 511 499 l 496 499 l 496 526 l 469 526 l 469 540 l 456 540 l 456 555 l 411 555 l 411 570 l 319 570 l 319 555 l 290 555 l 290 540 l 275 540 l 275 526 l 262 526 l 262 511 l 247 511 l 247 499 l 235 499 l 235 484 l 218 484 l 218 471 l 205 471 l 205 442 l 190 442 l 190 427 l 399 427 l 399 441 l 525 441 l 525 456 l 540 456 l 540 471 m 540 442 l 562 442 l 555 463 l 562 483 l 540 483 l 540 442 m 464 555 l 456 583 l 456 555 l 464 555 m 420 570 l 411 597 l 411 570 l 420 570 m 521 499 l 511 526 l 511 499 l 521 499 m 477 540 l 469 568 l 469 540 l 477 540 m 534 484 l 525 511 l 525 484 l 534 484 m 244 693 l 273 693 l 273 708 l 487 708 l 487 693 l 514 693 l 514 681 l 543 681 l 543 666 l 557 666 l 557 651 l 585 651 l 585 637 l 600 637 l 600 624 l 612 624 l 612 610 l 627 610 l 627 582 l 640 582 l 640 567 l 655 567 l 655 538 l 669 538 l 669 498 l 684 498 l 684 330 l 669 330 l 669 316 l 627 316 l 627 301 l 262 301 l 262 288 l 190 288 l 190 258 l 205 258 l 205 231 l 218 231 l 218 217 l 235 217 l 235 201 l 247 201 l 247 187 l 275 187 l 275 172 l 304 172 l 304 160 l 361 160 l 361 145 l 456 145 l 456 160 l 540 160 l 540 172 l 582 172 l 582 187 l 623 187 l 623 201 l 697 201 l 697 187 l 712 187 l 712 90 l 697 90 l 697 76 l 684 76 l 684 61 l 655 61 l 655 49 l 627 49 l 627 34 l 571 34 l 571 20 l 514 20 l 514 5 l 444 5 l 444 -8 l 286 -8 l 286 5 l 229 5 l 229 20 l 187 20 l 187 34 l 160 34 l 160 49 l 145 49 l 145 61 l 132 61 l 132 76 l 104 76 l 104 90 l 90 90 l 90 118 l 75 118 l 75 133 l 61 133 l 61 161 l 46 161 l 46 232 l 34 232 l 34 412 l 46 412 l 46 483 l 61 483 l 61 510 l 75 510 l 75 538 l 90 538 l 90 567 l 104 567 l 104 582 l 119 582 l 119 595 l 132 595 l 132 624 l 145 624 l 145 637 l 160 637 l 160 651 l 187 651 l 187 666 l 217 666 l 217 681 l 244 681 l 244 693 z "},"f":{"ha":789,"x_min":34,"x_max":724,"o":"m 355 1010 l 412 1010 l 412 1023 l 543 1023 l 543 1010 l 697 1010 l 697 996 l 712 996 l 712 982 l 724 982 l 724 911 l 712 911 l 712 856 l 684 856 l 684 842 l 669 842 l 669 827 l 553 827 l 553 842 l 483 842 l 483 856 l 388 856 l 388 842 l 359 842 l 359 827 l 347 827 l 347 814 l 332 814 l 332 785 l 317 785 l 317 699 l 332 699 l 332 686 l 347 686 l 347 671 l 553 671 l 553 686 l 627 686 l 627 671 l 655 671 l 655 562 l 640 562 l 640 547 l 600 547 l 600 533 l 567 533 l 567 547 l 359 547 l 359 533 l 332 533 l 332 179 l 347 179 l 347 152 l 359 152 l 359 137 l 514 137 l 514 122 l 540 122 l 540 137 l 585 137 l 585 122 l 612 122 l 612 11 l 600 11 l 600 -3 l 543 -3 l 543 -18 l 511 -18 l 511 -3 l 46 -3 l 46 11 l 34 11 l 34 110 l 46 110 l 46 122 l 76 122 l 76 137 l 174 137 l 174 152 l 202 152 l 202 167 l 217 167 l 217 518 l 202 518 l 202 533 l 174 533 l 174 547 l 76 547 l 76 562 l 61 562 l 61 574 l 46 574 l 46 644 l 61 644 l 61 671 l 91 671 l 91 686 l 189 686 l 189 699 l 202 699 l 202 812 l 217 812 l 217 869 l 229 869 l 229 897 l 244 897 l 244 925 l 258 925 l 258 940 l 273 940 l 273 955 l 286 955 l 286 967 l 315 967 l 315 982 l 330 982 l 330 996 l 355 996 l 355 1010 z "},"g":{"ha":822,"x_min":35,"x_max":755,"o":"m 612 -102 l 624 -102 l 624 -88 l 639 -88 l 639 -58 l 624 -58 l 624 -43 l 612 -43 l 612 -30 l 583 -30 l 583 -18 l 555 -18 l 555 -3 l 220 -3 l 220 -18 l 208 -18 l 208 -30 l 193 -30 l 193 -43 l 179 -43 l 179 -58 l 164 -58 l 164 -87 l 151 -87 l 151 -102 l 164 -102 l 164 -130 l 179 -130 l 179 -145 l 193 -145 l 193 -157 l 220 -157 l 220 -172 l 292 -172 l 292 -186 l 471 -186 l 471 -172 l 514 -172 l 514 -157 l 555 -157 l 555 -145 l 583 -145 l 583 -130 l 597 -130 l 597 -117 l 612 -117 l 612 -102 m 358 -201 l 353 -201 l 361 -228 l 361 -186 l 358 -186 l 358 -201 m 620 -30 l 612 -3 l 612 -30 l 620 -30 m 591 -18 l 583 9 l 583 -18 l 591 -18 m 564 -3 l 555 24 l 555 -3 l 564 -3 m 179 -172 l 179 -145 l 170 -145 l 179 -172 m 193 -184 l 193 -157 l 183 -157 l 193 -184 m 220 -201 l 220 -172 l 212 -172 l 220 -201 m 292 -214 l 292 -186 l 282 -186 l 292 -214 m 632 -43 l 624 -16 l 624 -43 l 632 -43 m 624 -129 l 632 -102 l 624 -102 l 624 -129 m 208 406 l 220 406 l 220 377 l 235 377 l 235 361 l 248 361 l 248 349 l 263 349 l 263 334 l 305 334 l 305 320 l 414 320 l 414 334 l 441 334 l 441 349 l 471 349 l 471 377 l 486 377 l 486 406 l 499 406 l 499 461 l 486 461 l 486 490 l 471 490 l 471 518 l 456 518 l 456 533 l 429 533 l 429 547 l 400 547 l 400 562 l 305 562 l 305 547 l 277 547 l 277 533 l 248 533 l 248 518 l 235 518 l 235 490 l 220 490 l 220 461 l 208 461 l 208 406 m 235 334 l 235 361 l 227 361 l 235 334 m 248 321 l 248 349 l 240 349 l 248 321 m 263 307 l 263 334 l 255 334 l 263 307 m 305 293 l 305 320 l 296 320 l 305 293 m 465 533 l 456 560 l 456 533 l 465 533 m 438 547 l 429 574 l 429 547 l 438 547 m 408 562 l 400 589 l 400 562 l 408 562 m 217 671 l 259 671 l 259 686 l 431 686 l 431 671 l 473 671 l 473 658 l 517 658 l 517 644 l 544 644 l 544 629 l 713 629 l 713 617 l 727 617 l 727 587 l 742 587 l 742 518 l 727 518 l 727 506 l 713 506 l 713 490 l 614 490 l 614 350 l 600 350 l 600 321 l 585 321 l 585 294 l 572 294 l 572 264 l 559 264 l 559 250 l 544 250 l 544 237 l 517 237 l 517 222 l 487 222 l 487 209 l 446 209 l 446 194 l 320 194 l 320 180 l 292 180 l 292 168 l 277 168 l 277 152 l 263 152 l 263 137 l 572 137 l 572 122 l 656 122 l 656 110 l 685 110 l 685 95 l 699 95 l 699 81 l 713 81 l 713 66 l 742 66 l 742 53 l 755 53 l 755 -144 l 742 -144 l 742 -171 l 727 -171 l 727 -201 l 713 -201 l 713 -213 l 699 -213 l 699 -228 l 685 -228 l 685 -241 l 656 -241 l 656 -255 l 642 -255 l 642 -270 l 614 -270 l 614 -282 l 572 -282 l 572 -297 l 532 -297 l 532 -312 l 458 -312 l 458 -327 l 331 -327 l 331 -312 l 202 -312 l 202 -297 l 161 -297 l 161 -282 l 133 -282 l 133 -270 l 104 -270 l 104 -255 l 91 -255 l 91 -241 l 76 -241 l 76 -213 l 64 -213 l 64 -201 l 49 -201 l 49 -156 l 35 -156 l 35 -45 l 49 -45 l 49 -4 l 64 -4 l 64 11 l 76 11 l 76 38 l 91 38 l 91 53 l 104 53 l 104 66 l 119 66 l 119 179 l 133 179 l 133 208 l 146 208 l 146 222 l 161 222 l 161 235 l 175 235 l 175 237 l 161 237 l 161 250 l 146 250 l 146 264 l 133 264 l 133 294 l 119 294 l 119 307 l 104 307 l 104 350 l 91 350 l 91 532 l 104 532 l 104 572 l 119 572 l 119 602 l 133 602 l 133 617 l 146 617 l 146 629 l 175 629 l 175 644 l 190 644 l 190 658 l 217 658 l 217 671 z "},"h":{"ha":930,"x_min":37,"x_max":857,"o":"m 165 996 l 220 996 l 220 1010 l 281 1010 l 281 996 l 294 996 l 294 982 l 309 982 l 309 856 l 294 856 l 294 673 l 281 673 l 281 658 l 294 658 l 294 629 l 349 629 l 349 644 l 361 644 l 361 658 l 401 658 l 401 671 l 431 671 l 431 686 l 605 686 l 605 671 l 646 671 l 646 658 l 659 658 l 659 644 l 674 644 l 674 629 l 688 629 l 688 617 l 703 617 l 703 602 l 716 602 l 716 572 l 731 572 l 731 532 l 743 532 l 743 475 l 758 475 l 758 335 l 743 335 l 743 122 l 829 122 l 829 110 l 857 110 l 857 11 l 842 11 l 842 -3 l 829 -3 l 829 -18 l 587 -18 l 587 -3 l 559 -3 l 559 110 l 587 110 l 587 122 l 600 122 l 600 137 l 613 137 l 613 293 l 628 293 l 628 406 l 613 406 l 613 448 l 600 448 l 600 476 l 587 476 l 587 490 l 572 490 l 572 506 l 559 506 l 559 518 l 530 518 l 530 533 l 434 533 l 434 518 l 393 518 l 393 506 l 351 506 l 351 490 l 321 490 l 321 476 l 309 476 l 309 461 l 294 461 l 294 448 l 281 448 l 281 179 l 294 179 l 294 137 l 321 137 l 321 122 l 393 122 l 393 110 l 419 110 l 419 11 l 407 11 l 407 -3 l 266 -3 l 266 -18 l 137 -18 l 137 -3 l 110 -3 l 110 122 l 137 122 l 137 137 l 151 137 l 151 152 l 165 152 l 165 800 l 151 800 l 151 814 l 122 814 l 122 827 l 65 827 l 65 842 l 52 842 l 52 856 l 37 856 l 37 940 l 52 940 l 52 955 l 80 955 l 80 967 l 137 967 l 137 982 l 165 982 l 165 996 z "},"i":{"ha":746,"x_min":34,"x_max":684,"o":"m 273 971 l 301 971 l 301 985 l 388 985 l 388 971 l 416 971 l 416 956 l 431 956 l 431 943 l 445 943 l 445 803 l 431 803 l 431 789 l 416 789 l 416 774 l 403 774 l 403 762 l 388 762 l 388 747 l 359 747 l 359 732 l 301 732 l 301 747 l 259 747 l 259 762 l 244 762 l 244 774 l 231 774 l 231 914 l 244 914 l 244 943 l 259 943 l 259 956 l 273 956 l 273 971 m 160 688 l 288 688 l 288 703 l 359 703 l 359 688 l 388 688 l 388 647 l 403 647 l 403 551 l 388 551 l 388 168 l 403 168 l 403 155 l 431 155 l 431 140 l 655 140 l 655 126 l 684 126 l 684 15 l 670 15 l 670 0 l 643 0 l 643 -14 l 553 -14 l 553 0 l 121 0 l 121 -14 l 77 -14 l 77 0 l 49 0 l 49 28 l 34 28 l 34 99 l 49 99 l 49 126 l 62 126 l 62 140 l 203 140 l 203 155 l 231 155 l 231 168 l 259 168 l 259 536 l 216 536 l 216 551 l 136 551 l 136 536 l 62 536 l 62 551 l 49 551 l 49 564 l 34 564 l 34 661 l 49 661 l 49 675 l 160 675 l 160 688 z "},"j":{"ha":624,"x_min":31,"x_max":568,"o":"m 354 956 l 382 956 l 382 971 l 498 971 l 498 956 l 513 956 l 513 943 l 526 943 l 526 914 l 541 914 l 541 844 l 526 844 l 526 803 l 513 803 l 513 789 l 498 789 l 498 774 l 486 774 l 486 762 l 469 762 l 469 747 l 441 747 l 441 732 l 382 732 l 382 747 l 354 747 l 354 762 l 326 762 l 326 803 l 312 803 l 312 887 l 326 887 l 326 928 l 340 928 l 340 943 l 354 943 l 354 956 m 228 675 l 453 675 l 453 688 l 526 688 l 526 675 l 541 675 l 541 661 l 553 661 l 553 281 l 568 281 l 568 127 l 553 127 l 553 126 l 568 126 l 568 -126 l 553 -126 l 553 -197 l 541 -197 l 541 -224 l 513 -224 l 513 -239 l 498 -239 l 498 -252 l 486 -252 l 486 -264 l 456 -264 l 456 -281 l 414 -281 l 414 -294 l 315 -294 l 315 -309 l 256 -309 l 256 -294 l 159 -294 l 159 -281 l 102 -281 l 102 -264 l 73 -264 l 73 -252 l 58 -252 l 58 -239 l 46 -239 l 46 -224 l 31 -224 l 31 -141 l 46 -141 l 46 -113 l 58 -113 l 58 -99 l 73 -99 l 73 -84 l 132 -84 l 132 -99 l 161 -99 l 161 -113 l 189 -113 l 189 -127 l 202 -127 l 202 -141 l 231 -141 l 231 -156 l 259 -156 l 259 -168 l 340 -168 l 340 -156 l 369 -156 l 369 -141 l 382 -141 l 382 -127 l 396 -127 l 396 -113 l 423 -113 l 423 522 l 256 522 l 256 536 l 213 536 l 213 551 l 199 551 l 199 564 l 184 564 l 184 635 l 199 635 l 199 661 l 228 661 l 228 675 z "},"k":{"ha":944,"x_min":37,"x_max":871,"o":"m 164 1000 l 220 1000 l 220 1012 l 278 1012 l 278 1000 l 308 1000 l 308 774 l 293 774 l 293 408 l 308 408 l 308 393 l 317 393 l 317 408 l 332 408 l 332 423 l 346 423 l 346 435 l 361 435 l 361 449 l 389 449 l 389 464 l 403 464 l 403 477 l 416 477 l 416 492 l 431 492 l 431 506 l 444 506 l 444 521 l 458 521 l 458 534 l 472 534 l 472 549 l 487 549 l 487 564 l 472 564 l 472 661 l 487 661 l 487 675 l 758 675 l 758 661 l 773 661 l 773 647 l 785 647 l 785 564 l 773 564 l 773 551 l 728 551 l 728 536 l 700 536 l 700 522 l 673 522 l 673 506 l 644 506 l 644 494 l 617 494 l 617 479 l 602 479 l 602 465 l 590 465 l 590 450 l 562 450 l 562 438 l 547 438 l 547 423 l 533 423 l 533 410 l 517 410 l 517 378 l 533 378 l 533 351 l 547 351 l 547 338 l 562 338 l 562 323 l 575 323 l 575 294 l 590 294 l 590 281 l 602 281 l 602 266 l 617 266 l 617 252 l 631 252 l 631 237 l 644 237 l 644 225 l 659 225 l 659 212 l 673 212 l 673 183 l 688 183 l 688 168 l 715 168 l 715 155 l 728 155 l 728 140 l 755 140 l 755 155 l 854 155 l 854 126 l 871 126 l 871 56 l 854 56 l 854 28 l 829 28 l 829 15 l 814 15 l 814 0 l 773 0 l 773 -14 l 670 -14 l 670 0 l 642 0 l 642 15 l 627 15 l 627 28 l 613 28 l 613 43 l 600 43 l 600 56 l 585 56 l 585 72 l 572 72 l 572 85 l 557 85 l 557 100 l 544 100 l 544 113 l 529 113 l 529 127 l 515 127 l 515 156 l 500 156 l 500 170 l 487 170 l 487 198 l 472 198 l 472 212 l 458 212 l 458 239 l 444 239 l 444 254 l 431 254 l 431 267 l 416 267 l 416 297 l 378 297 l 378 282 l 363 282 l 363 267 l 350 267 l 350 254 l 335 254 l 335 239 l 323 239 l 323 227 l 308 227 l 308 212 l 293 212 l 293 168 l 308 168 l 308 140 l 323 140 l 323 126 l 378 126 l 378 111 l 407 111 l 407 99 l 420 99 l 420 15 l 407 15 l 407 0 l 210 0 l 210 -14 l 134 -14 l 134 0 l 122 0 l 122 15 l 107 15 l 107 99 l 122 99 l 122 126 l 149 126 l 149 140 l 164 140 l 164 378 l 179 378 l 179 393 l 164 393 l 164 549 l 179 549 l 179 718 l 164 718 l 164 831 l 66 831 l 66 844 l 52 844 l 52 873 l 37 873 l 37 943 l 52 943 l 52 956 l 66 956 l 66 971 l 134 971 l 134 985 l 164 985 l 164 1000 z "},"l":{"ha":716,"x_min":33,"x_max":655,"o":"m 201 1000 l 273 1000 l 273 1012 l 373 1012 l 373 1000 l 388 1000 l 388 887 l 400 887 l 400 817 l 388 817 l 388 494 l 373 494 l 373 393 l 388 393 l 388 239 l 373 239 l 373 183 l 388 183 l 388 155 l 415 155 l 415 140 l 598 140 l 598 126 l 627 126 l 627 111 l 640 111 l 640 99 l 655 99 l 655 28 l 640 28 l 640 0 l 598 0 l 598 -14 l 509 -14 l 509 0 l 290 0 l 290 -14 l 216 -14 l 216 0 l 61 0 l 61 111 l 75 111 l 75 126 l 88 126 l 88 140 l 229 140 l 229 155 l 244 155 l 244 168 l 258 168 l 258 198 l 244 198 l 244 294 l 258 294 l 258 831 l 244 831 l 244 844 l 161 844 l 161 831 l 46 831 l 46 844 l 33 844 l 33 956 l 46 956 l 46 971 l 103 971 l 103 985 l 201 985 l 201 1000 z "},"m":{"ha":1053,"x_min":39,"x_max":972,"o":"m 321 688 l 392 688 l 392 703 l 425 703 l 425 688 l 479 688 l 479 675 l 507 675 l 507 661 l 536 661 l 536 647 l 560 647 l 560 661 l 590 661 l 590 675 l 646 675 l 646 688 l 789 688 l 789 675 l 818 675 l 818 661 l 831 661 l 831 647 l 846 647 l 846 618 l 859 618 l 859 605 l 873 605 l 873 562 l 887 562 l 887 254 l 873 254 l 873 155 l 887 155 l 887 140 l 916 140 l 916 126 l 958 126 l 958 99 l 972 99 l 972 28 l 958 28 l 958 0 l 728 0 l 728 15 l 716 15 l 716 28 l 701 28 l 701 99 l 716 99 l 716 111 l 728 111 l 728 126 l 743 126 l 743 168 l 757 168 l 757 494 l 743 494 l 743 522 l 716 522 l 716 551 l 620 551 l 620 536 l 608 536 l 608 522 l 593 522 l 593 506 l 578 506 l 578 155 l 593 155 l 593 140 l 608 140 l 608 126 l 648 126 l 648 99 l 663 99 l 663 28 l 648 28 l 648 0 l 434 0 l 434 15 l 419 15 l 419 111 l 434 111 l 434 126 l 448 126 l 448 140 l 461 140 l 461 225 l 476 225 l 476 450 l 461 450 l 461 494 l 448 494 l 448 506 l 434 506 l 434 536 l 419 536 l 419 551 l 339 551 l 339 536 l 324 536 l 324 522 l 296 522 l 296 506 l 283 506 l 283 494 l 269 494 l 269 155 l 283 155 l 283 140 l 296 140 l 296 126 l 353 126 l 353 111 l 368 111 l 368 99 l 381 99 l 381 28 l 368 28 l 368 15 l 353 15 l 353 0 l 140 0 l 140 15 l 111 15 l 111 126 l 125 126 l 125 140 l 140 140 l 140 155 l 153 155 l 153 506 l 140 506 l 140 522 l 54 522 l 54 551 l 39 551 l 39 635 l 54 635 l 54 661 l 95 661 l 95 675 l 168 675 l 168 688 l 241 688 l 241 675 l 321 675 l 321 688 z "},"n":{"ha":928,"x_min":37,"x_max":854,"o":"m 416 688 l 458 688 l 458 703 l 602 703 l 602 688 l 617 688 l 617 675 l 643 675 l 643 661 l 673 661 l 673 647 l 688 647 l 688 635 l 700 635 l 700 618 l 715 618 l 715 590 l 728 590 l 728 549 l 743 549 l 743 155 l 757 155 l 757 140 l 829 140 l 829 126 l 854 126 l 854 0 l 829 0 l 829 -14 l 697 -14 l 697 0 l 557 0 l 557 28 l 544 28 l 544 99 l 557 99 l 557 111 l 572 111 l 572 126 l 585 126 l 585 140 l 600 140 l 600 155 l 613 155 l 613 323 l 625 323 l 625 393 l 613 393 l 613 465 l 600 465 l 600 494 l 585 494 l 585 506 l 572 506 l 572 522 l 557 522 l 557 536 l 529 536 l 529 551 l 449 551 l 449 536 l 419 536 l 419 522 l 378 522 l 378 506 l 350 506 l 350 494 l 307 494 l 307 465 l 293 465 l 293 339 l 278 339 l 278 237 l 293 237 l 293 155 l 307 155 l 307 140 l 378 140 l 378 126 l 407 126 l 407 111 l 419 111 l 419 99 l 433 99 l 433 28 l 419 28 l 419 15 l 407 15 l 407 0 l 122 0 l 122 15 l 107 15 l 107 28 l 94 28 l 94 99 l 107 99 l 107 126 l 122 126 l 122 140 l 149 140 l 149 155 l 163 155 l 163 522 l 149 522 l 149 536 l 50 536 l 50 551 l 37 551 l 37 647 l 50 647 l 50 661 l 79 661 l 79 675 l 149 675 l 149 688 l 251 688 l 251 675 l 266 675 l 266 661 l 278 661 l 278 635 l 317 635 l 317 647 l 332 647 l 332 661 l 361 661 l 361 675 l 416 675 l 416 688 z "},"o":{"ha":792,"x_min":34,"x_max":727,"o":"m 582 338 l 597 338 l 597 353 l 582 353 l 582 410 l 568 410 l 568 438 l 553 438 l 553 450 l 541 450 l 541 494 l 528 494 l 528 506 l 511 506 l 511 522 l 499 522 l 499 536 l 471 536 l 471 551 l 442 551 l 442 564 l 290 564 l 290 551 l 262 551 l 262 536 l 250 536 l 250 522 l 235 522 l 235 506 l 221 506 l 221 494 l 206 494 l 206 465 l 193 465 l 193 423 l 178 423 l 178 368 l 164 368 l 164 323 l 178 323 l 178 266 l 193 266 l 193 252 l 206 252 l 206 225 l 221 225 l 221 212 l 235 212 l 235 197 l 250 197 l 250 183 l 262 183 l 262 168 l 277 168 l 277 155 l 305 155 l 305 140 l 347 140 l 347 126 l 415 126 l 415 140 l 456 140 l 456 155 l 484 155 l 484 168 l 511 168 l 511 183 l 528 183 l 528 197 l 541 197 l 541 225 l 553 225 l 553 252 l 568 252 l 568 281 l 582 281 l 582 338 m 562 450 l 553 477 l 553 450 l 562 450 m 536 506 l 528 534 l 528 506 l 536 506 m 521 522 l 511 549 l 511 522 l 521 522 m 509 536 l 499 563 l 499 536 l 509 536 m 479 551 l 471 578 l 471 551 l 479 551 m 450 564 l 442 591 l 442 564 l 450 564 m 193 225 l 193 252 l 184 252 l 193 225 m 221 184 l 221 212 l 212 212 l 221 184 m 235 168 l 235 197 l 225 197 l 235 168 m 250 155 l 250 183 l 240 183 l 250 155 m 262 140 l 262 168 l 254 168 l 262 140 m 277 127 l 277 155 l 269 155 l 277 127 m 305 113 l 305 140 l 297 140 l 305 113 m 347 99 l 347 126 l 338 126 l 347 99 m 259 703 l 317 703 l 317 716 l 431 716 l 431 703 l 502 703 l 502 688 l 544 688 l 544 675 l 586 675 l 586 661 l 600 661 l 600 647 l 614 647 l 614 635 l 627 635 l 627 618 l 642 618 l 642 605 l 655 605 l 655 576 l 671 576 l 671 562 l 685 562 l 685 534 l 700 534 l 700 506 l 712 506 l 712 435 l 727 435 l 727 282 l 712 282 l 712 239 l 700 239 l 700 170 l 685 170 l 685 141 l 671 141 l 671 127 l 655 127 l 655 113 l 642 113 l 642 100 l 627 100 l 627 85 l 614 85 l 614 72 l 586 72 l 586 56 l 571 56 l 571 43 l 559 43 l 559 28 l 529 28 l 529 15 l 502 15 l 502 0 l 445 0 l 445 -14 l 288 -14 l 288 0 l 244 0 l 244 15 l 203 15 l 203 28 l 175 28 l 175 43 l 160 43 l 160 56 l 132 56 l 132 72 l 119 72 l 119 85 l 106 85 l 106 100 l 91 100 l 91 127 l 77 127 l 77 156 l 61 156 l 61 198 l 49 198 l 49 227 l 34 227 l 34 464 l 49 464 l 49 506 l 61 506 l 61 534 l 77 534 l 77 562 l 91 562 l 91 576 l 106 576 l 106 605 l 119 605 l 119 618 l 146 618 l 146 635 l 160 635 l 160 647 l 175 647 l 175 661 l 203 661 l 203 675 l 232 675 l 232 688 l 259 688 l 259 703 z "},"p":{"ha":822,"x_min":35,"x_max":755,"o":"m 278 228 l 292 228 l 292 186 l 307 186 l 307 171 l 334 171 l 334 157 l 362 157 l 362 142 l 471 142 l 471 157 l 499 157 l 499 171 l 528 171 l 528 186 l 540 186 l 540 199 l 555 199 l 555 214 l 568 214 l 568 240 l 583 240 l 583 269 l 598 269 l 598 297 l 610 297 l 610 411 l 598 411 l 598 441 l 583 441 l 583 453 l 568 453 l 568 468 l 555 468 l 555 481 l 540 481 l 540 496 l 528 496 l 528 510 l 513 510 l 513 525 l 499 525 l 499 538 l 471 538 l 471 553 l 334 553 l 334 538 l 307 538 l 307 525 l 292 525 l 292 496 l 278 496 l 278 228 m 262 342 l 278 342 l 278 369 l 262 369 l 262 342 m 334 130 l 334 157 l 326 157 l 334 130 m 362 115 l 362 142 l 354 142 l 362 115 m 591 453 l 583 480 l 583 453 l 591 453 m 578 468 l 568 495 l 568 468 l 578 468 m 564 481 l 555 509 l 555 481 l 564 481 m 549 496 l 540 524 l 540 496 l 549 496 m 536 510 l 528 538 l 528 510 l 536 510 m 521 525 l 513 553 l 513 525 l 521 525 m 507 538 l 499 566 l 499 538 l 507 538 m 480 553 l 471 581 l 471 553 l 480 553 m 307 144 l 307 171 l 297 171 l 307 144 m 148 692 l 175 692 l 175 707 l 221 707 l 221 692 l 250 692 l 250 678 l 316 678 l 316 692 l 358 692 l 358 707 l 530 707 l 530 692 l 557 692 l 557 678 l 600 678 l 600 663 l 628 663 l 628 650 l 643 650 l 643 636 l 656 636 l 656 621 l 671 621 l 671 608 l 684 608 l 684 593 l 699 593 l 699 566 l 712 566 l 712 552 l 727 552 l 727 507 l 741 507 l 741 410 l 755 410 l 755 243 l 741 243 l 741 214 l 727 214 l 727 184 l 712 184 l 712 159 l 699 159 l 699 132 l 684 132 l 684 117 l 671 117 l 671 103 l 656 103 l 656 88 l 643 88 l 643 73 l 628 73 l 628 60 l 614 60 l 614 46 l 572 46 l 572 31 l 545 31 l 545 18 l 473 18 l 473 3 l 358 3 l 358 18 l 292 18 l 292 -9 l 278 -9 l 278 -96 l 292 -96 l 292 -152 l 319 -152 l 319 -167 l 389 -167 l 389 -182 l 404 -182 l 404 -278 l 374 -278 l 374 -292 l 106 -292 l 106 -278 l 77 -278 l 77 -182 l 91 -182 l 91 -167 l 133 -167 l 133 -152 l 148 -152 l 148 -110 l 160 -110 l 160 510 l 148 510 l 148 525 l 133 525 l 133 538 l 50 538 l 50 553 l 35 553 l 35 650 l 50 650 l 50 663 l 77 663 l 77 678 l 148 678 l 148 692 z "},"q":{"ha":792,"x_min":34,"x_max":727,"o":"m 164 326 l 178 326 l 178 283 l 193 283 l 193 255 l 206 255 l 206 228 l 221 228 l 221 214 l 235 214 l 235 199 l 250 199 l 250 186 l 262 186 l 262 171 l 290 171 l 290 157 l 347 157 l 347 142 l 456 142 l 456 157 l 484 157 l 484 171 l 499 171 l 499 186 l 511 186 l 511 510 l 499 510 l 499 525 l 484 525 l 484 538 l 471 538 l 471 553 l 305 553 l 305 538 l 277 538 l 277 525 l 262 525 l 262 510 l 235 510 l 235 496 l 221 496 l 221 468 l 206 468 l 206 453 l 193 453 l 193 426 l 178 426 l 178 384 l 164 384 l 164 326 m 347 553 l 347 567 l 351 567 l 343 594 l 343 553 l 347 553 m 235 171 l 235 199 l 225 199 l 235 171 m 250 159 l 250 186 l 240 186 l 250 159 m 262 144 l 262 171 l 254 171 l 262 144 m 290 130 l 290 157 l 282 157 l 290 130 m 347 115 l 347 142 l 338 142 l 347 115 m 509 525 l 499 553 l 499 525 l 509 525 m 494 538 l 484 566 l 484 538 l 494 538 m 479 553 l 471 581 l 471 553 l 479 553 m 221 186 l 221 214 l 212 214 l 221 186 m 553 707 l 568 707 l 568 719 l 627 719 l 627 707 l 642 707 l 642 553 l 627 553 l 627 -137 l 642 -137 l 642 -152 l 671 -152 l 671 -167 l 727 -167 l 727 -278 l 685 -278 l 685 -292 l 456 -292 l 456 -278 l 427 -278 l 427 -250 l 415 -250 l 415 -182 l 442 -182 l 442 -167 l 471 -167 l 471 -152 l 484 -152 l 484 -137 l 499 -137 l 499 -125 l 511 -125 l 511 3 l 499 3 l 499 18 l 403 18 l 403 3 l 302 3 l 302 18 l 259 18 l 259 31 l 217 31 l 217 46 l 189 46 l 189 60 l 160 60 l 160 73 l 132 73 l 132 88 l 119 88 l 119 103 l 104 103 l 104 132 l 91 132 l 91 144 l 77 144 l 77 172 l 61 172 l 61 214 l 49 214 l 49 243 l 34 243 l 34 452 l 49 452 l 49 507 l 61 507 l 61 552 l 77 552 l 77 566 l 91 566 l 91 593 l 104 593 l 104 608 l 119 608 l 119 621 l 132 621 l 132 636 l 146 636 l 146 650 l 160 650 l 160 663 l 189 663 l 189 678 l 217 678 l 217 692 l 273 692 l 273 707 l 445 707 l 445 692 l 488 692 l 488 678 l 541 678 l 541 692 l 553 692 l 553 707 z "},"r":{"ha":822,"x_min":35,"x_max":755,"o":"m 528 707 l 583 707 l 583 719 l 643 719 l 643 707 l 699 707 l 699 692 l 727 692 l 727 678 l 741 678 l 741 663 l 755 663 l 755 538 l 741 538 l 741 525 l 727 525 l 727 510 l 583 510 l 583 525 l 488 525 l 488 510 l 460 510 l 460 496 l 433 496 l 433 481 l 418 481 l 418 468 l 404 468 l 404 453 l 389 453 l 389 441 l 374 441 l 374 426 l 359 426 l 359 411 l 347 411 l 347 171 l 359 171 l 359 157 l 374 157 l 374 142 l 586 142 l 586 129 l 600 129 l 600 102 l 614 102 l 614 31 l 600 31 l 600 18 l 586 18 l 586 3 l 118 3 l 118 18 l 106 18 l 106 31 l 91 31 l 91 129 l 106 129 l 106 142 l 175 142 l 175 157 l 203 157 l 203 171 l 217 171 l 217 199 l 232 199 l 232 370 l 217 370 l 217 525 l 203 525 l 203 538 l 175 538 l 175 553 l 149 553 l 149 538 l 80 538 l 80 525 l 50 525 l 50 553 l 35 553 l 35 663 l 50 663 l 50 678 l 133 678 l 133 692 l 217 692 l 217 707 l 307 707 l 307 678 l 319 678 l 319 663 l 334 663 l 334 621 l 347 621 l 347 593 l 358 593 l 358 608 l 387 608 l 387 621 l 400 621 l 400 636 l 415 636 l 415 650 l 442 650 l 442 663 l 471 663 l 471 678 l 499 678 l 499 692 l 528 692 l 528 707 z "},"s":{"ha":684,"x_min":33,"x_max":625,"o":"m 214 707 l 298 707 l 298 719 l 387 719 l 387 707 l 442 707 l 442 692 l 556 692 l 556 678 l 568 678 l 568 663 l 583 663 l 583 608 l 597 608 l 597 481 l 583 481 l 583 441 l 556 441 l 556 426 l 524 426 l 524 441 l 481 441 l 481 468 l 467 468 l 467 496 l 453 496 l 453 538 l 439 538 l 439 553 l 397 553 l 397 567 l 259 567 l 259 553 l 232 553 l 232 538 l 218 538 l 218 525 l 203 525 l 203 480 l 218 480 l 218 467 l 232 467 l 232 452 l 274 452 l 274 439 l 373 439 l 373 426 l 457 426 l 457 410 l 499 410 l 499 396 l 528 396 l 528 381 l 556 381 l 556 369 l 568 369 l 568 354 l 583 354 l 583 340 l 597 340 l 597 326 l 613 326 l 613 283 l 625 283 l 625 132 l 613 132 l 613 117 l 597 117 l 597 103 l 583 103 l 583 73 l 568 73 l 568 60 l 556 60 l 556 46 l 528 46 l 528 31 l 513 31 l 513 18 l 484 18 l 484 3 l 401 3 l 401 -9 l 256 -9 l 256 3 l 88 3 l 88 18 l 73 18 l 73 31 l 60 31 l 60 46 l 45 46 l 45 103 l 33 103 l 33 240 l 45 240 l 45 269 l 60 269 l 60 283 l 133 283 l 133 269 l 146 269 l 146 255 l 163 255 l 163 214 l 176 214 l 176 186 l 191 186 l 191 171 l 203 171 l 203 157 l 232 157 l 232 142 l 259 142 l 259 129 l 397 129 l 397 142 l 425 142 l 425 157 l 453 157 l 453 171 l 467 171 l 467 199 l 481 199 l 481 229 l 467 229 l 467 243 l 439 243 l 439 258 l 397 258 l 397 270 l 340 270 l 340 285 l 229 285 l 229 298 l 186 298 l 186 313 l 159 313 l 159 327 l 130 327 l 130 342 l 115 342 l 115 355 l 100 355 l 100 370 l 88 370 l 88 396 l 73 396 l 73 426 l 60 426 l 60 552 l 73 552 l 73 593 l 88 593 l 88 608 l 100 608 l 100 621 l 115 621 l 115 636 l 130 636 l 130 650 l 145 650 l 145 663 l 159 663 l 159 678 l 186 678 l 186 692 l 214 692 l 214 707 z "},"t":{"ha":732,"x_min":33,"x_max":671,"o":"m 159 833 l 189 833 l 189 848 l 262 848 l 262 833 l 275 833 l 275 804 l 290 804 l 290 735 l 275 735 l 275 707 l 290 707 l 290 692 l 347 692 l 347 678 l 357 678 l 357 692 l 581 692 l 581 707 l 613 707 l 613 692 l 627 692 l 627 678 l 642 678 l 642 567 l 613 567 l 613 553 l 262 553 l 262 441 l 248 441 l 248 171 l 262 171 l 262 157 l 275 157 l 275 142 l 290 142 l 290 129 l 414 129 l 414 142 l 513 142 l 513 157 l 553 157 l 553 171 l 642 171 l 642 157 l 671 157 l 671 60 l 656 60 l 656 46 l 627 46 l 627 31 l 598 31 l 598 18 l 557 18 l 557 3 l 486 3 l 486 -9 l 359 -9 l 359 -24 l 273 -24 l 273 -9 l 231 -9 l 231 3 l 203 3 l 203 18 l 175 18 l 175 46 l 159 46 l 159 60 l 146 60 l 146 88 l 132 88 l 132 467 l 146 467 l 146 538 l 118 538 l 118 553 l 46 553 l 46 567 l 33 567 l 33 663 l 46 663 l 46 678 l 132 678 l 132 692 l 146 692 l 146 719 l 159 719 l 159 833 z "},"u":{"ha":928,"x_min":37,"x_max":854,"o":"m 79 678 l 176 678 l 176 692 l 266 692 l 266 678 l 278 678 l 278 468 l 266 468 l 266 269 l 278 269 l 278 228 l 293 228 l 293 214 l 307 214 l 307 186 l 321 186 l 321 171 l 350 171 l 350 157 l 392 157 l 392 142 l 499 142 l 499 157 l 529 157 l 529 171 l 570 171 l 570 186 l 585 186 l 585 199 l 598 199 l 598 214 l 613 214 l 613 510 l 598 510 l 598 525 l 585 525 l 585 538 l 514 538 l 514 553 l 499 553 l 499 650 l 514 650 l 514 663 l 585 663 l 585 678 l 655 678 l 655 692 l 715 692 l 715 678 l 728 678 l 728 636 l 743 636 l 743 510 l 728 510 l 728 199 l 743 199 l 743 186 l 772 186 l 772 171 l 841 171 l 841 142 l 854 142 l 854 60 l 841 60 l 841 46 l 785 46 l 785 31 l 757 31 l 757 18 l 715 18 l 715 3 l 655 3 l 655 18 l 625 18 l 625 31 l 613 31 l 613 46 l 587 46 l 587 31 l 545 31 l 545 18 l 505 18 l 505 3 l 433 3 l 433 -9 l 332 -9 l 332 3 l 289 3 l 289 18 l 260 18 l 260 31 l 248 31 l 248 46 l 233 46 l 233 60 l 205 60 l 205 88 l 191 88 l 191 103 l 176 103 l 176 144 l 163 144 l 163 229 l 148 229 l 148 297 l 163 297 l 163 313 l 148 313 l 148 381 l 163 381 l 163 396 l 148 396 l 148 525 l 134 525 l 134 538 l 65 538 l 65 553 l 50 553 l 50 567 l 37 567 l 37 636 l 50 636 l 50 663 l 79 663 l 79 678 z "},"v":{"ha":939,"x_min":37,"x_max":865,"o":"m 854 674 l 865 674 l 865 587 l 856 587 l 856 553 l 800 553 l 800 538 l 787 538 l 787 510 l 772 510 l 772 496 l 758 496 l 758 453 l 743 453 l 743 411 l 730 411 l 730 384 l 715 384 l 715 342 l 701 342 l 701 313 l 686 313 l 686 285 l 674 285 l 674 270 l 659 270 l 659 229 l 644 229 l 644 214 l 629 214 l 629 172 l 617 172 l 617 132 l 602 132 l 602 103 l 589 103 l 589 73 l 576 73 l 576 46 l 562 46 l 562 31 l 548 31 l 548 3 l 532 3 l 532 -9 l 430 -9 l 430 3 l 418 3 l 418 18 l 403 18 l 403 46 l 388 46 l 388 60 l 373 60 l 373 103 l 361 103 l 361 132 l 347 132 l 347 159 l 332 159 l 332 184 l 319 184 l 319 214 l 304 214 l 304 243 l 290 243 l 290 285 l 275 285 l 275 298 l 262 298 l 262 342 l 247 342 l 247 370 l 235 370 l 235 411 l 220 411 l 220 441 l 206 441 l 206 468 l 191 468 l 191 510 l 179 510 l 179 538 l 163 538 l 163 553 l 65 553 l 65 567 l 52 567 l 52 582 l 37 582 l 37 663 l 52 663 l 52 678 l 65 678 l 65 692 l 308 692 l 308 678 l 365 678 l 365 663 l 378 663 l 378 567 l 336 567 l 336 553 l 321 553 l 321 522 l 336 522 l 336 495 l 350 495 l 350 452 l 365 452 l 365 426 l 378 426 l 378 396 l 391 396 l 391 354 l 406 354 l 406 326 l 419 326 l 419 297 l 435 297 l 435 269 l 448 269 l 448 240 l 463 240 l 463 228 l 476 228 l 476 214 l 491 214 l 491 199 l 500 199 l 500 214 l 515 214 l 515 228 l 530 228 l 530 269 l 544 269 l 544 297 l 559 297 l 559 340 l 571 340 l 571 369 l 585 369 l 585 410 l 600 410 l 600 452 l 612 452 l 612 480 l 628 480 l 628 507 l 642 507 l 642 553 l 600 553 l 600 567 l 544 567 l 544 594 l 530 594 l 530 663 l 544 663 l 544 678 l 571 678 l 571 692 l 795 692 l 795 707 l 854 707 l 854 674 z "},"w":{"ha":1047,"x_min":39,"x_max":967,"o":"m 334 707 l 334 692 l 391 692 l 391 582 l 376 582 l 376 567 l 278 567 l 278 553 l 263 553 l 263 507 l 278 507 l 278 452 l 292 452 l 292 396 l 307 396 l 307 354 l 319 354 l 319 297 l 334 297 l 334 269 l 349 269 l 349 240 l 358 240 l 358 255 l 373 255 l 373 283 l 387 283 l 387 326 l 401 326 l 401 381 l 415 381 l 415 426 l 429 426 l 429 452 l 444 452 l 444 495 l 457 495 l 457 507 l 484 507 l 484 522 l 530 522 l 530 507 l 545 507 l 545 495 l 559 495 l 559 467 l 574 467 l 574 439 l 587 439 l 587 396 l 602 396 l 602 354 l 616 354 l 616 326 l 631 326 l 631 283 l 643 283 l 643 269 l 682 269 l 682 326 l 696 326 l 696 369 l 711 369 l 711 426 l 724 426 l 724 480 l 738 480 l 738 553 l 724 553 l 724 567 l 625 567 l 625 582 l 613 582 l 613 594 l 598 594 l 598 663 l 613 663 l 613 692 l 639 692 l 639 707 l 925 707 l 925 692 l 939 692 l 939 678 l 952 678 l 952 663 l 967 663 l 967 594 l 952 594 l 952 582 l 939 582 l 939 567 l 911 567 l 911 553 l 882 553 l 882 525 l 867 525 l 867 496 l 854 496 l 854 411 l 841 411 l 841 355 l 826 355 l 826 327 l 814 327 l 814 285 l 799 285 l 799 243 l 784 243 l 784 172 l 769 172 l 769 144 l 755 144 l 755 88 l 742 88 l 742 60 l 728 60 l 728 31 l 713 31 l 713 18 l 700 18 l 700 3 l 613 3 l 613 18 l 598 18 l 598 46 l 585 46 l 585 73 l 570 73 l 570 103 l 556 103 l 556 144 l 541 144 l 541 201 l 528 201 l 528 243 l 513 243 l 513 285 l 490 285 l 490 243 l 475 243 l 475 214 l 461 214 l 461 159 l 446 159 l 446 117 l 433 117 l 433 73 l 419 73 l 419 46 l 404 46 l 404 31 l 391 31 l 391 3 l 302 3 l 302 18 l 289 18 l 289 31 l 274 31 l 274 60 l 260 60 l 260 103 l 245 103 l 245 144 l 233 144 l 233 201 l 218 201 l 218 243 l 205 243 l 205 285 l 190 285 l 190 327 l 175 327 l 175 370 l 163 370 l 163 426 l 148 426 l 148 481 l 134 481 l 134 510 l 119 510 l 119 538 l 92 538 l 92 553 l 49 553 l 49 587 l 39 587 l 39 675 l 49 675 l 49 707 l 334 707 z "},"x":{"ha":914,"x_min":37,"x_max":842,"o":"m 52 674 l 65 674 l 65 689 l 294 689 l 294 674 l 363 674 l 363 647 l 378 647 l 378 578 l 363 578 l 363 564 l 350 564 l 350 551 l 336 551 l 336 548 l 350 548 l 350 521 l 363 521 l 363 506 l 378 506 l 378 491 l 392 491 l 392 479 l 407 479 l 407 464 l 460 464 l 460 479 l 475 479 l 475 491 l 487 491 l 487 506 l 502 506 l 502 521 l 515 521 l 515 536 l 530 536 l 530 551 l 502 551 l 502 564 l 487 564 l 487 578 l 475 578 l 475 647 l 487 647 l 487 662 l 502 662 l 502 674 l 772 674 l 772 662 l 784 662 l 784 551 l 716 551 l 716 537 l 686 537 l 686 522 l 674 522 l 674 507 l 659 507 l 659 492 l 646 492 l 646 480 l 617 480 l 617 465 l 602 465 l 602 437 l 590 437 l 590 425 l 574 425 l 574 395 l 560 395 l 560 380 l 548 380 l 548 366 l 533 366 l 533 353 l 548 353 l 548 338 l 560 338 l 560 324 l 574 324 l 574 309 l 590 309 l 590 296 l 602 296 l 602 267 l 631 267 l 631 252 l 646 252 l 646 239 l 659 239 l 659 212 l 674 212 l 674 198 l 686 198 l 686 183 l 703 183 l 703 168 l 716 168 l 716 153 l 743 153 l 743 141 l 799 141 l 799 126 l 814 126 l 814 113 l 829 113 l 829 85 l 842 85 l 842 15 l 829 15 l 829 1 l 515 1 l 515 15 l 502 15 l 502 126 l 543 126 l 543 142 l 530 142 l 530 156 l 515 156 l 515 184 l 502 184 l 502 198 l 487 198 l 487 213 l 475 213 l 475 225 l 460 225 l 460 240 l 445 240 l 445 254 l 407 254 l 407 240 l 392 240 l 392 213 l 378 213 l 378 198 l 350 198 l 350 168 l 336 168 l 336 156 l 321 156 l 321 142 l 309 142 l 309 126 l 363 126 l 363 113 l 378 113 l 378 30 l 363 30 l 363 1 l 80 1 l 80 15 l 65 15 l 65 126 l 80 126 l 80 141 l 122 141 l 122 153 l 163 153 l 163 168 l 178 168 l 178 183 l 191 183 l 191 198 l 206 198 l 206 212 l 220 212 l 220 224 l 235 224 l 235 252 l 248 252 l 248 267 l 277 267 l 277 296 l 292 296 l 292 309 l 304 309 l 304 324 l 319 324 l 319 338 l 332 338 l 332 354 l 319 354 l 319 380 l 304 380 l 304 395 l 292 395 l 292 410 l 277 410 l 277 425 l 263 425 l 263 437 l 248 437 l 248 452 l 235 452 l 235 465 l 220 465 l 220 480 l 206 480 l 206 492 l 191 492 l 191 507 l 178 507 l 178 522 l 163 522 l 163 537 l 136 537 l 136 551 l 52 551 l 52 564 l 37 564 l 37 662 l 52 662 l 52 674 z "},"y":{"ha":882,"x_min":35,"x_max":811,"o":"m 52 674 l 134 674 l 134 689 l 165 689 l 165 674 l 178 674 l 178 689 l 222 689 l 222 674 l 335 674 l 335 662 l 363 662 l 363 564 l 349 564 l 349 551 l 308 551 l 308 537 l 293 537 l 293 536 l 308 536 l 308 506 l 320 506 l 320 479 l 335 479 l 335 450 l 349 450 l 349 422 l 363 422 l 363 393 l 377 393 l 377 365 l 389 365 l 389 353 l 406 353 l 406 309 l 419 309 l 419 281 l 434 281 l 434 267 l 446 267 l 446 252 l 457 252 l 457 267 l 472 267 l 472 281 l 486 281 l 486 324 l 500 324 l 500 365 l 514 365 l 514 393 l 529 393 l 529 422 l 543 422 l 543 464 l 556 464 l 556 506 l 570 506 l 570 551 l 500 551 l 500 564 l 486 564 l 486 578 l 472 578 l 472 647 l 486 647 l 486 674 l 612 674 l 612 689 l 785 689 l 785 674 l 799 674 l 799 647 l 811 647 l 811 578 l 799 578 l 799 551 l 757 551 l 757 537 l 713 537 l 713 522 l 700 522 l 700 492 l 685 492 l 685 452 l 673 452 l 673 410 l 658 410 l 658 380 l 644 380 l 644 339 l 629 339 l 629 311 l 616 311 l 616 269 l 601 269 l 601 254 l 587 254 l 587 213 l 574 213 l 574 184 l 560 184 l 560 156 l 547 156 l 547 114 l 532 114 l 532 99 l 518 99 l 518 72 l 502 72 l 502 42 l 490 42 l 490 30 l 475 30 l 475 -14 l 461 -14 l 461 -42 l 446 -42 l 446 -69 l 434 -69 l 434 -96 l 419 -96 l 419 -140 l 406 -140 l 406 -168 l 389 -168 l 389 -182 l 377 -182 l 377 -210 l 363 -210 l 363 -237 l 335 -237 l 335 -252 l 320 -252 l 320 -266 l 293 -266 l 293 -281 l 278 -281 l 278 -294 l 222 -294 l 222 -308 l 148 -308 l 148 -294 l 107 -294 l 107 -281 l 92 -281 l 92 -266 l 79 -266 l 79 -170 l 92 -170 l 92 -141 l 107 -141 l 107 -126 l 208 -126 l 208 -141 l 260 -141 l 260 -126 l 290 -126 l 290 -99 l 302 -99 l 302 -71 l 317 -71 l 317 -56 l 331 -56 l 331 -28 l 346 -28 l 346 0 l 359 0 l 359 27 l 373 27 l 373 56 l 388 56 l 388 99 l 373 99 l 373 127 l 359 127 l 359 156 l 346 156 l 346 184 l 331 184 l 331 198 l 317 198 l 317 225 l 302 225 l 302 254 l 290 254 l 290 269 l 275 269 l 275 297 l 260 297 l 260 311 l 245 311 l 245 339 l 233 339 l 233 380 l 218 380 l 218 410 l 205 410 l 205 437 l 190 437 l 190 465 l 178 465 l 178 492 l 163 492 l 163 522 l 148 522 l 148 537 l 134 537 l 134 551 l 52 551 l 52 578 l 35 578 l 35 647 l 52 647 l 52 674 z "},"z":{"ha":716,"x_min":33,"x_max":655,"o":"m 103 674 l 118 674 l 118 689 l 430 689 l 430 674 l 525 674 l 525 689 l 613 689 l 613 674 l 627 674 l 627 662 l 642 662 l 642 564 l 627 564 l 627 537 l 613 537 l 613 522 l 598 522 l 598 507 l 586 507 l 586 492 l 571 492 l 571 480 l 556 480 l 556 465 l 541 465 l 541 452 l 529 452 l 529 437 l 514 437 l 514 425 l 500 425 l 500 410 l 488 410 l 488 395 l 473 395 l 473 380 l 460 380 l 460 366 l 444 366 l 444 354 l 430 354 l 430 339 l 415 339 l 415 326 l 403 326 l 403 311 l 388 311 l 388 297 l 374 297 l 374 282 l 359 282 l 359 269 l 347 269 l 347 254 l 317 254 l 317 240 l 302 240 l 302 213 l 290 213 l 290 198 l 262 198 l 262 184 l 248 184 l 248 168 l 233 168 l 233 156 l 220 156 l 220 142 l 205 142 l 205 141 l 233 141 l 233 126 l 300 126 l 300 141 l 331 141 l 331 126 l 412 126 l 412 141 l 483 141 l 483 153 l 511 153 l 511 168 l 525 168 l 525 183 l 540 183 l 540 198 l 553 198 l 553 224 l 568 224 l 568 252 l 595 252 l 595 267 l 642 267 l 642 252 l 655 252 l 655 87 l 642 87 l 642 30 l 627 30 l 627 15 l 613 15 l 613 1 l 103 1 l 103 15 l 61 15 l 61 30 l 47 30 l 47 72 l 33 72 l 33 141 l 47 141 l 47 153 l 61 153 l 61 183 l 75 183 l 75 198 l 91 198 l 91 212 l 103 212 l 103 224 l 118 224 l 118 239 l 132 239 l 132 252 l 146 252 l 146 267 l 159 267 l 159 281 l 174 281 l 174 296 l 187 296 l 187 309 l 203 309 l 203 324 l 231 324 l 231 353 l 244 353 l 244 365 l 259 365 l 259 380 l 273 380 l 273 393 l 285 393 l 285 410 l 300 410 l 300 422 l 315 422 l 315 435 l 330 435 l 330 450 l 342 450 l 342 464 l 370 464 l 370 479 l 385 479 l 385 491 l 397 491 l 397 506 l 412 506 l 412 536 l 427 536 l 427 548 l 456 548 l 456 551 l 220 551 l 220 537 l 191 537 l 191 507 l 176 507 l 176 480 l 164 480 l 164 437 l 136 437 l 136 425 l 91 425 l 91 437 l 75 437 l 75 465 l 61 465 l 61 536 l 75 536 l 75 618 l 91 618 l 91 662 l 103 662 l 103 674 z "},"A":{"ha":1004,"x_min":34,"x_max":941,"o":"m 353 446 l 366 446 l 366 434 l 564 434 l 564 446 l 579 446 l 579 464 l 564 464 l 564 519 l 551 519 l 551 564 l 534 564 l 534 606 l 522 606 l 522 636 l 509 636 l 509 680 l 492 680 l 492 707 l 480 707 l 480 722 l 453 722 l 453 693 l 441 693 l 441 650 l 425 650 l 425 621 l 411 621 l 411 564 l 396 564 l 396 534 l 381 534 l 381 491 l 366 491 l 366 464 l 353 464 l 353 446 m 594 435 l 594 418 l 602 446 l 579 446 l 579 435 l 594 435 m 483 722 l 483 735 l 488 735 l 480 764 l 480 722 l 483 722 m 502 707 l 492 734 l 492 707 l 502 707 m 366 406 l 366 434 l 357 434 l 366 406 m 435 994 l 450 994 l 450 1008 l 511 1008 l 511 994 l 526 994 l 526 979 l 540 979 l 540 952 l 553 952 l 553 907 l 568 907 l 568 879 l 582 879 l 582 836 l 598 836 l 598 792 l 612 792 l 612 750 l 627 750 l 627 707 l 640 707 l 640 663 l 655 663 l 655 621 l 669 621 l 669 576 l 685 576 l 685 548 l 697 548 l 697 519 l 713 519 l 713 491 l 727 491 l 727 434 l 742 434 l 742 404 l 755 404 l 755 374 l 769 374 l 769 317 l 784 317 l 784 289 l 799 289 l 799 245 l 814 245 l 814 217 l 827 217 l 827 189 l 842 189 l 842 160 l 872 160 l 872 145 l 914 145 l 914 130 l 941 130 l 941 16 l 929 16 l 929 3 l 609 3 l 609 16 l 564 16 l 564 115 l 579 115 l 579 130 l 637 130 l 637 145 l 680 145 l 680 190 l 667 190 l 667 233 l 651 233 l 651 260 l 637 260 l 637 275 l 623 275 l 623 290 l 422 290 l 422 304 l 338 304 l 338 290 l 311 290 l 311 275 l 296 275 l 296 218 l 282 218 l 282 174 l 266 174 l 266 172 l 282 172 l 282 160 l 296 160 l 296 145 l 381 145 l 381 130 l 396 130 l 396 33 l 381 33 l 381 16 l 224 16 l 224 3 l 61 3 l 61 16 l 34 16 l 34 130 l 49 130 l 49 145 l 77 145 l 77 160 l 104 160 l 104 172 l 119 172 l 119 189 l 133 189 l 133 231 l 149 231 l 149 245 l 161 245 l 161 289 l 176 289 l 176 331 l 191 331 l 191 374 l 206 374 l 206 404 l 220 404 l 220 434 l 236 434 l 236 463 l 248 463 l 248 519 l 263 519 l 263 548 l 278 548 l 278 576 l 293 576 l 293 621 l 307 621 l 307 648 l 320 648 l 320 692 l 335 692 l 335 750 l 349 750 l 349 792 l 363 792 l 363 836 l 377 836 l 377 865 l 393 865 l 393 922 l 407 922 l 407 979 l 435 979 l 435 994 z "},"B":{"ha":806,"x_min":31,"x_max":753,"o":"m 593 275 l 606 275 l 606 290 l 593 290 l 593 332 l 576 332 l 576 362 l 563 362 l 563 377 l 548 377 l 548 391 l 534 391 l 534 406 l 519 406 l 519 419 l 490 419 l 490 435 l 461 435 l 461 448 l 404 448 l 404 464 l 293 464 l 293 448 l 279 448 l 279 160 l 293 160 l 293 145 l 336 145 l 336 130 l 461 130 l 461 145 l 490 145 l 490 160 l 519 160 l 519 172 l 534 172 l 534 189 l 563 189 l 563 217 l 576 217 l 576 245 l 593 245 l 593 275 m 572 377 l 563 406 l 563 377 l 572 377 m 556 391 l 548 418 l 548 391 l 556 391 m 544 406 l 534 434 l 534 406 l 544 406 m 529 419 l 519 448 l 519 419 l 529 419 m 499 435 l 490 464 l 490 435 l 499 435 m 471 448 l 461 476 l 461 448 l 471 448 m 414 464 l 404 491 l 404 464 l 414 464 m 293 117 l 293 145 l 283 145 l 293 117 m 336 102 l 336 130 l 327 130 l 336 102 m 519 720 l 534 720 l 534 751 l 519 751 l 519 793 l 506 793 l 506 808 l 490 808 l 490 823 l 461 823 l 461 838 l 404 838 l 404 850 l 321 850 l 321 838 l 293 838 l 293 808 l 279 808 l 279 621 l 293 621 l 293 591 l 376 591 l 376 605 l 419 605 l 419 621 l 448 621 l 448 633 l 461 633 l 461 648 l 490 648 l 490 663 l 506 663 l 506 692 l 519 692 l 519 720 m 514 808 l 506 837 l 506 808 l 514 808 m 499 823 l 490 850 l 490 823 l 499 823 m 471 838 l 461 867 l 461 838 l 471 838 m 414 850 l 404 879 l 404 850 l 414 850 m 31 964 l 46 964 l 46 979 l 480 979 l 480 964 l 552 964 l 552 952 l 581 952 l 581 937 l 595 937 l 595 922 l 624 922 l 624 894 l 637 894 l 637 879 l 652 879 l 652 849 l 666 849 l 666 779 l 682 779 l 682 707 l 666 707 l 666 650 l 652 650 l 652 621 l 637 621 l 637 593 l 624 593 l 624 576 l 610 576 l 610 564 l 595 564 l 595 549 l 581 549 l 581 533 l 624 533 l 624 519 l 637 519 l 637 505 l 666 505 l 666 491 l 682 491 l 682 476 l 694 476 l 694 463 l 709 463 l 709 434 l 724 434 l 724 418 l 739 418 l 739 374 l 753 374 l 753 190 l 739 190 l 739 161 l 724 161 l 724 132 l 709 132 l 709 103 l 694 103 l 694 88 l 682 88 l 682 75 l 666 75 l 666 58 l 637 58 l 637 45 l 624 45 l 624 33 l 595 33 l 595 16 l 566 16 l 566 3 l 507 3 l 507 -12 l 461 -12 l 461 3 l 321 3 l 321 -12 l 217 -12 l 217 3 l 46 3 l 46 16 l 31 16 l 31 115 l 46 115 l 46 130 l 75 130 l 75 145 l 117 145 l 117 160 l 132 160 l 132 172 l 145 172 l 145 389 l 161 389 l 161 435 l 145 435 l 145 823 l 117 823 l 117 838 l 46 838 l 46 850 l 31 850 l 31 964 z "},"C":{"ha":792,"x_min":30,"x_max":739,"o":"m 290 979 l 332 979 l 332 994 l 509 994 l 509 979 l 582 979 l 582 964 l 711 964 l 711 952 l 724 952 l 724 922 l 739 922 l 739 838 l 724 838 l 724 750 l 739 750 l 739 665 l 724 665 l 724 650 l 711 650 l 711 636 l 635 636 l 635 650 l 621 650 l 621 680 l 606 680 l 606 751 l 593 751 l 593 780 l 576 780 l 576 793 l 564 793 l 564 808 l 548 808 l 548 823 l 519 823 l 519 838 l 366 838 l 366 823 l 338 823 l 338 808 l 308 808 l 308 793 l 293 793 l 293 780 l 278 780 l 278 765 l 263 765 l 263 735 l 251 735 l 251 722 l 235 722 l 235 693 l 221 693 l 221 650 l 209 650 l 209 593 l 193 593 l 193 359 l 209 359 l 209 305 l 221 305 l 221 260 l 235 260 l 235 245 l 251 245 l 251 217 l 263 217 l 263 202 l 278 202 l 278 189 l 293 189 l 293 172 l 323 172 l 323 160 l 350 160 l 350 145 l 380 145 l 380 130 l 491 130 l 491 145 l 519 145 l 519 160 l 548 160 l 548 172 l 564 172 l 564 189 l 576 189 l 576 217 l 593 217 l 593 231 l 606 231 l 606 289 l 621 289 l 621 331 l 635 331 l 635 347 l 648 347 l 648 359 l 711 359 l 711 347 l 739 347 l 739 103 l 724 103 l 724 88 l 711 88 l 711 75 l 696 75 l 696 58 l 666 58 l 666 45 l 652 45 l 652 33 l 624 33 l 624 16 l 594 16 l 594 3 l 537 3 l 537 -12 l 480 -12 l 480 -26 l 377 -26 l 377 -12 l 304 -12 l 304 3 l 260 3 l 260 16 l 232 16 l 232 33 l 203 33 l 203 45 l 190 45 l 190 58 l 175 58 l 175 75 l 161 75 l 161 88 l 145 88 l 145 103 l 133 103 l 133 132 l 118 132 l 118 146 l 103 146 l 103 161 l 88 161 l 88 203 l 73 203 l 73 233 l 58 233 l 58 275 l 46 275 l 46 349 l 30 349 l 30 605 l 46 605 l 46 663 l 58 663 l 58 707 l 73 707 l 73 750 l 88 750 l 88 779 l 103 779 l 103 807 l 118 807 l 118 822 l 133 822 l 133 849 l 145 849 l 145 865 l 161 865 l 161 879 l 175 879 l 175 894 l 190 894 l 190 907 l 203 907 l 203 922 l 217 922 l 217 937 l 245 937 l 245 952 l 260 952 l 260 964 l 290 964 l 290 979 z "},"D":{"ha":884,"x_min":31,"x_max":827,"o":"m 665 476 l 680 476 l 680 477 l 665 477 l 665 576 l 650 576 l 650 621 l 637 621 l 637 665 l 623 665 l 623 680 l 608 680 l 608 707 l 594 707 l 594 722 l 578 722 l 578 751 l 549 751 l 549 765 l 536 765 l 536 780 l 521 780 l 521 793 l 507 793 l 507 808 l 450 808 l 450 823 l 323 823 l 323 808 l 309 808 l 309 793 l 294 793 l 294 160 l 309 160 l 309 145 l 351 145 l 351 130 l 420 130 l 420 145 l 463 145 l 463 160 l 507 160 l 507 172 l 536 172 l 536 189 l 566 189 l 566 217 l 578 217 l 578 231 l 594 231 l 594 245 l 608 245 l 608 275 l 623 275 l 623 305 l 637 305 l 637 347 l 650 347 l 650 389 l 665 389 l 665 476 m 281 359 l 281 376 l 273 349 l 294 349 l 294 359 l 281 359 m 617 707 l 608 734 l 608 707 l 617 707 m 602 722 l 594 750 l 594 722 l 602 722 m 559 765 l 549 793 l 549 765 l 559 765 m 545 780 l 536 807 l 536 780 l 545 780 m 529 793 l 521 822 l 521 793 l 529 793 m 517 808 l 507 837 l 507 808 l 517 808 m 458 823 l 450 850 l 450 823 l 458 823 m 351 102 l 351 130 l 343 130 l 351 102 m 309 117 l 309 145 l 300 145 l 309 117 m 632 680 l 623 708 l 623 680 l 632 680 m 47 964 l 61 964 l 61 979 l 180 979 l 180 964 l 321 964 l 321 979 l 368 979 l 368 964 l 510 964 l 510 952 l 553 952 l 553 937 l 583 937 l 583 922 l 612 922 l 612 907 l 640 907 l 640 894 l 655 894 l 655 879 l 667 879 l 667 865 l 684 865 l 684 849 l 697 849 l 697 836 l 712 836 l 712 822 l 726 822 l 726 807 l 741 807 l 741 779 l 754 779 l 754 762 l 770 762 l 770 735 l 783 735 l 783 692 l 798 692 l 798 633 l 812 633 l 812 563 l 827 563 l 827 377 l 812 377 l 812 290 l 798 290 l 798 248 l 783 248 l 783 203 l 770 203 l 770 174 l 754 174 l 754 146 l 741 146 l 741 132 l 726 132 l 726 117 l 712 117 l 712 103 l 697 103 l 697 75 l 667 75 l 667 58 l 655 58 l 655 45 l 640 45 l 640 33 l 612 33 l 612 16 l 595 16 l 595 3 l 510 3 l 510 -12 l 76 -12 l 76 3 l 61 3 l 61 16 l 47 16 l 47 115 l 76 115 l 76 130 l 119 130 l 119 145 l 146 145 l 146 160 l 163 160 l 163 707 l 176 707 l 176 722 l 163 722 l 163 808 l 146 808 l 146 823 l 104 823 l 104 838 l 47 838 l 47 850 l 31 850 l 31 952 l 47 952 l 47 964 z "},"E":{"ha":838,"x_min":31,"x_max":784,"o":"m 31 964 l 45 964 l 45 979 l 739 979 l 739 964 l 754 964 l 754 922 l 768 922 l 768 808 l 754 808 l 754 735 l 739 735 l 739 693 l 726 693 l 726 680 l 650 680 l 650 707 l 633 707 l 633 780 l 621 780 l 621 808 l 591 808 l 591 823 l 506 823 l 506 838 l 308 838 l 308 823 l 293 823 l 293 605 l 308 605 l 308 591 l 446 591 l 446 621 l 463 621 l 463 648 l 476 648 l 476 692 l 492 692 l 492 707 l 538 707 l 538 692 l 552 692 l 552 663 l 567 663 l 567 593 l 552 593 l 552 332 l 492 332 l 492 349 l 476 349 l 476 377 l 463 377 l 463 406 l 446 406 l 446 435 l 434 435 l 434 448 l 392 448 l 392 464 l 308 464 l 308 435 l 293 435 l 293 419 l 278 419 l 278 189 l 293 189 l 293 160 l 308 160 l 308 145 l 549 145 l 549 160 l 606 160 l 606 172 l 633 172 l 633 189 l 650 189 l 650 217 l 663 217 l 663 275 l 678 275 l 678 317 l 693 317 l 693 331 l 754 331 l 754 317 l 768 317 l 768 289 l 784 289 l 784 33 l 768 33 l 768 16 l 754 16 l 754 3 l 726 3 l 726 -12 l 678 -12 l 678 3 l 73 3 l 73 16 l 61 16 l 61 33 l 45 33 l 45 115 l 61 115 l 61 130 l 88 130 l 88 145 l 132 145 l 132 160 l 148 160 l 148 172 l 160 172 l 160 823 l 132 823 l 132 838 l 61 838 l 61 850 l 45 850 l 45 867 l 31 867 l 31 964 z "},"F":{"ha":868,"x_min":31,"x_max":812,"o":"m 47 979 l 191 979 l 191 994 l 236 994 l 236 979 l 507 979 l 507 994 l 770 994 l 770 979 l 798 979 l 798 952 l 812 952 l 812 765 l 798 765 l 798 665 l 783 665 l 783 650 l 723 650 l 723 665 l 707 665 l 707 680 l 694 680 l 694 780 l 680 780 l 680 793 l 665 793 l 665 808 l 623 808 l 623 823 l 566 823 l 566 838 l 420 838 l 420 850 l 351 850 l 351 838 l 323 838 l 323 591 l 351 591 l 351 576 l 434 576 l 434 591 l 492 591 l 492 648 l 507 648 l 507 692 l 536 692 l 536 707 l 567 707 l 567 692 l 583 692 l 583 678 l 595 678 l 595 319 l 567 319 l 567 304 l 536 304 l 536 319 l 521 319 l 521 332 l 507 332 l 507 377 l 492 377 l 492 419 l 477 419 l 477 435 l 420 435 l 420 448 l 351 448 l 351 435 l 339 435 l 339 419 l 323 419 l 323 332 l 309 332 l 309 317 l 323 317 l 323 189 l 339 189 l 339 172 l 351 172 l 351 160 l 396 160 l 396 145 l 480 145 l 480 130 l 496 130 l 496 33 l 480 33 l 480 16 l 468 16 l 468 3 l 90 3 l 90 16 l 61 16 l 61 130 l 76 130 l 76 145 l 104 145 l 104 160 l 176 160 l 176 189 l 191 189 l 191 418 l 205 418 l 205 419 l 191 419 l 191 591 l 205 591 l 205 606 l 191 606 l 191 823 l 176 823 l 176 838 l 76 838 l 76 850 l 47 850 l 47 880 l 31 880 l 31 952 l 47 952 l 47 979 z "},"G":{"ha":868,"x_min":31,"x_max":812,"o":"m 292 979 l 334 979 l 334 994 l 538 994 l 538 979 l 612 979 l 612 964 l 741 964 l 741 952 l 754 952 l 754 922 l 770 922 l 770 808 l 754 808 l 754 665 l 741 665 l 741 636 l 712 636 l 712 621 l 680 621 l 680 636 l 650 636 l 650 665 l 636 665 l 636 735 l 621 735 l 621 765 l 608 765 l 608 793 l 593 793 l 593 808 l 578 808 l 578 823 l 549 823 l 549 838 l 521 838 l 521 850 l 396 850 l 396 838 l 366 838 l 366 823 l 323 823 l 323 808 l 309 808 l 309 793 l 294 793 l 294 780 l 281 780 l 281 765 l 266 765 l 266 751 l 251 751 l 251 722 l 236 722 l 236 693 l 222 693 l 222 665 l 206 665 l 206 636 l 194 636 l 194 564 l 180 564 l 180 404 l 194 404 l 194 331 l 206 331 l 206 289 l 222 289 l 222 275 l 236 275 l 236 245 l 251 245 l 251 217 l 266 217 l 266 202 l 294 202 l 294 189 l 309 189 l 309 172 l 323 172 l 323 160 l 366 160 l 366 145 l 396 145 l 396 130 l 507 130 l 507 145 l 536 145 l 536 160 l 566 160 l 566 172 l 593 172 l 593 189 l 608 189 l 608 275 l 593 275 l 593 290 l 578 290 l 578 304 l 463 304 l 463 319 l 450 319 l 450 434 l 477 434 l 477 446 l 798 446 l 798 434 l 812 434 l 812 319 l 798 319 l 798 304 l 770 304 l 770 290 l 741 290 l 741 75 l 726 75 l 726 58 l 655 58 l 655 45 l 625 45 l 625 33 l 595 33 l 595 16 l 567 16 l 567 3 l 525 3 l 525 -12 l 480 -12 l 480 -26 l 391 -26 l 391 -12 l 305 -12 l 305 3 l 275 3 l 275 16 l 233 16 l 233 33 l 205 33 l 205 45 l 189 45 l 189 58 l 176 58 l 176 75 l 161 75 l 161 88 l 146 88 l 146 103 l 134 103 l 134 117 l 118 117 l 118 146 l 104 146 l 104 174 l 90 174 l 90 190 l 76 190 l 76 218 l 61 218 l 61 275 l 47 275 l 47 377 l 31 377 l 31 576 l 47 576 l 47 663 l 61 663 l 61 735 l 76 735 l 76 762 l 90 762 l 90 792 l 104 792 l 104 822 l 118 822 l 118 849 l 134 849 l 134 865 l 146 865 l 146 879 l 161 879 l 161 894 l 176 894 l 176 907 l 189 907 l 189 922 l 218 922 l 218 937 l 233 937 l 233 952 l 263 952 l 263 964 l 292 964 l 292 979 z "},"H":{"ha":914,"x_min":33,"x_max":856,"o":"m 47 952 l 61 952 l 61 964 l 311 964 l 311 952 l 353 952 l 353 937 l 369 937 l 369 823 l 324 823 l 324 808 l 296 808 l 296 665 l 282 665 l 282 591 l 296 591 l 296 576 l 311 576 l 311 563 l 579 563 l 579 576 l 608 576 l 608 808 l 551 808 l 551 823 l 492 823 l 492 850 l 480 850 l 480 922 l 492 922 l 492 952 l 537 952 l 537 964 l 669 964 l 669 952 l 812 952 l 812 937 l 827 937 l 827 823 l 784 823 l 784 808 l 755 808 l 755 780 l 742 780 l 742 145 l 755 145 l 755 130 l 812 130 l 812 115 l 842 115 l 842 102 l 856 102 l 856 -12 l 812 -12 l 812 -26 l 595 -26 l 595 -12 l 551 -12 l 551 3 l 537 3 l 537 102 l 551 102 l 551 115 l 579 115 l 579 130 l 595 130 l 595 145 l 608 145 l 608 406 l 363 406 l 363 419 l 324 419 l 324 406 l 296 406 l 296 377 l 282 377 l 282 145 l 296 145 l 296 130 l 324 130 l 324 115 l 381 115 l 381 102 l 397 102 l 397 -12 l 339 -12 l 339 -26 l 206 -26 l 206 -12 l 182 -12 l 182 -26 l 104 -26 l 104 -12 l 77 -12 l 77 16 l 61 16 l 61 88 l 77 88 l 77 115 l 104 115 l 104 130 l 149 130 l 149 808 l 119 808 l 119 823 l 47 823 l 47 838 l 33 838 l 33 937 l 47 937 l 47 952 z "},"I":{"ha":732,"x_min":30,"x_max":682,"o":"m 45 979 l 477 979 l 477 994 l 509 994 l 509 979 l 608 979 l 608 964 l 624 964 l 624 952 l 637 952 l 637 880 l 624 880 l 624 838 l 551 838 l 551 823 l 420 823 l 420 808 l 408 808 l 408 172 l 420 172 l 420 160 l 450 160 l 450 145 l 652 145 l 652 130 l 667 130 l 667 115 l 682 115 l 682 16 l 652 16 l 652 3 l 102 3 l 102 16 l 88 16 l 88 33 l 75 33 l 75 130 l 88 130 l 88 145 l 117 145 l 117 160 l 206 160 l 206 145 l 232 145 l 232 160 l 262 160 l 262 189 l 275 189 l 275 762 l 290 762 l 290 765 l 275 765 l 275 808 l 262 808 l 262 823 l 146 823 l 146 838 l 45 838 l 45 850 l 30 850 l 30 952 l 45 952 l 45 979 z "},"J":{"ha":838,"x_min":31,"x_max":784,"o":"m 305 952 l 319 952 l 319 979 l 754 979 l 754 964 l 768 964 l 768 952 l 784 952 l 784 880 l 768 880 l 768 850 l 754 850 l 754 838 l 726 838 l 726 823 l 693 823 l 693 838 l 651 838 l 651 823 l 639 823 l 639 808 l 624 808 l 624 692 l 639 692 l 639 161 l 624 161 l 624 117 l 609 117 l 609 75 l 597 75 l 597 58 l 582 58 l 582 45 l 567 45 l 567 33 l 552 33 l 552 16 l 524 16 l 524 3 l 465 3 l 465 -12 l 407 -12 l 407 -26 l 377 -26 l 377 -12 l 247 -12 l 247 3 l 190 3 l 190 16 l 148 16 l 148 33 l 118 33 l 118 45 l 73 45 l 73 58 l 61 58 l 61 75 l 45 75 l 45 132 l 31 132 l 31 289 l 45 289 l 45 305 l 88 305 l 88 317 l 121 317 l 121 305 l 151 305 l 151 289 l 165 289 l 165 260 l 178 260 l 178 231 l 193 231 l 193 202 l 208 202 l 208 189 l 221 189 l 221 172 l 236 172 l 236 160 l 266 160 l 266 145 l 434 145 l 434 160 l 463 160 l 463 172 l 476 172 l 476 189 l 492 189 l 492 217 l 506 217 l 506 808 l 476 808 l 476 823 l 434 823 l 434 838 l 319 838 l 319 850 l 305 850 l 305 952 z "},"K":{"ha":974,"x_min":33,"x_max":913,"o":"m 46 979 l 91 979 l 91 994 l 122 994 l 122 979 l 178 979 l 178 994 l 209 994 l 209 979 l 368 979 l 368 964 l 382 964 l 382 867 l 368 867 l 368 850 l 309 850 l 309 838 l 296 838 l 296 808 l 279 808 l 279 779 l 296 779 l 296 621 l 279 621 l 279 621 l 296 621 l 296 591 l 309 591 l 309 576 l 335 576 l 335 591 l 349 591 l 349 605 l 365 605 l 365 621 l 377 621 l 377 633 l 392 633 l 392 648 l 407 648 l 407 663 l 419 663 l 419 678 l 435 678 l 435 692 l 449 692 l 449 707 l 464 707 l 464 720 l 479 720 l 479 750 l 494 750 l 494 762 l 506 762 l 506 792 l 522 792 l 522 807 l 536 807 l 536 822 l 551 822 l 551 838 l 522 838 l 522 850 l 494 850 l 494 964 l 506 964 l 506 979 l 551 979 l 551 994 l 582 994 l 582 979 l 651 979 l 651 994 l 769 994 l 769 979 l 814 979 l 814 952 l 826 952 l 826 867 l 814 867 l 814 850 l 798 850 l 798 838 l 755 838 l 755 823 l 727 823 l 727 808 l 711 808 l 711 793 l 699 793 l 699 780 l 684 780 l 684 765 l 669 765 l 669 751 l 654 751 l 654 735 l 639 735 l 639 707 l 627 707 l 627 693 l 612 693 l 612 680 l 597 680 l 597 665 l 582 665 l 582 650 l 570 650 l 570 636 l 553 636 l 553 621 l 540 621 l 540 606 l 525 606 l 525 576 l 511 576 l 511 564 l 496 564 l 496 549 l 481 549 l 481 534 l 453 534 l 453 533 l 467 533 l 467 519 l 481 519 l 481 491 l 496 491 l 496 476 l 511 476 l 511 463 l 525 463 l 525 446 l 540 446 l 540 434 l 553 434 l 553 418 l 570 418 l 570 404 l 582 404 l 582 389 l 597 389 l 597 359 l 612 359 l 612 347 l 627 347 l 627 331 l 639 331 l 639 305 l 654 305 l 654 289 l 669 289 l 669 275 l 684 275 l 684 260 l 699 260 l 699 245 l 711 245 l 711 231 l 727 231 l 727 202 l 741 202 l 741 189 l 755 189 l 755 172 l 769 172 l 769 160 l 826 160 l 826 145 l 886 145 l 886 130 l 898 130 l 898 115 l 913 115 l 913 16 l 898 16 l 898 3 l 869 3 l 869 -12 l 823 -12 l 823 3 l 693 3 l 693 16 l 665 16 l 665 33 l 651 33 l 651 45 l 636 45 l 636 58 l 621 58 l 621 88 l 609 88 l 609 103 l 594 103 l 594 132 l 579 132 l 579 146 l 564 146 l 564 174 l 551 174 l 551 190 l 536 190 l 536 203 l 522 203 l 522 218 l 506 218 l 506 233 l 494 233 l 494 260 l 479 260 l 479 275 l 464 275 l 464 290 l 449 290 l 449 319 l 435 319 l 435 332 l 419 332 l 419 349 l 407 349 l 407 362 l 392 362 l 392 377 l 377 377 l 377 391 l 365 391 l 365 406 l 335 406 l 335 419 l 324 419 l 324 406 l 296 406 l 296 172 l 309 172 l 309 160 l 338 160 l 338 145 l 395 145 l 395 130 l 411 130 l 411 115 l 425 115 l 425 16 l 395 16 l 395 3 l 91 3 l 91 16 l 75 16 l 75 45 l 61 45 l 61 115 l 75 115 l 75 130 l 91 130 l 91 145 l 119 145 l 119 160 l 148 160 l 148 172 l 163 172 l 163 823 l 148 823 l 148 838 l 61 838 l 61 850 l 46 850 l 46 880 l 33 880 l 33 952 l 46 952 l 46 979 z "},"L":{"ha":914,"x_min":33,"x_max":856,"o":"m 33 979 l 61 979 l 61 994 l 453 994 l 453 979 l 483 979 l 483 952 l 495 952 l 495 880 l 483 880 l 483 867 l 467 867 l 467 850 l 438 850 l 438 838 l 366 838 l 366 823 l 353 823 l 353 808 l 338 808 l 338 792 l 353 792 l 353 593 l 338 593 l 338 189 l 353 189 l 353 160 l 381 160 l 381 145 l 522 145 l 522 160 l 636 160 l 636 172 l 680 172 l 680 189 l 709 189 l 709 260 l 722 260 l 722 347 l 736 347 l 736 359 l 827 359 l 827 347 l 842 347 l 842 145 l 856 145 l 856 45 l 842 45 l 842 3 l 812 3 l 812 -12 l 693 -12 l 693 3 l 104 3 l 104 16 l 76 16 l 76 45 l 61 45 l 61 115 l 76 115 l 76 130 l 91 130 l 91 145 l 104 145 l 104 160 l 191 160 l 191 172 l 203 172 l 203 779 l 218 779 l 218 808 l 203 808 l 203 823 l 191 823 l 191 838 l 61 838 l 61 850 l 33 850 l 33 979 z "},"M":{"ha":1053,"x_min":34,"x_max":989,"o":"m 49 994 l 79 994 l 79 1008 l 241 1008 l 241 994 l 283 994 l 283 979 l 297 979 l 297 964 l 312 964 l 312 937 l 326 937 l 326 907 l 342 907 l 342 879 l 355 879 l 355 836 l 370 836 l 370 807 l 384 807 l 384 779 l 399 779 l 399 750 l 412 750 l 412 720 l 429 720 l 429 692 l 441 692 l 441 663 l 456 663 l 456 633 l 471 633 l 471 591 l 483 591 l 483 576 l 499 576 l 499 548 l 524 548 l 524 576 l 540 576 l 540 591 l 552 591 l 552 633 l 568 633 l 568 663 l 582 663 l 582 707 l 597 707 l 597 735 l 610 735 l 610 762 l 625 762 l 625 792 l 639 792 l 639 836 l 655 836 l 655 879 l 667 879 l 667 922 l 681 922 l 681 937 l 697 937 l 697 964 l 711 964 l 711 994 l 959 994 l 959 979 l 989 979 l 989 850 l 955 850 l 955 867 l 944 867 l 944 850 l 916 850 l 916 838 l 860 838 l 860 534 l 844 534 l 844 463 l 860 463 l 860 290 l 844 290 l 844 275 l 860 275 l 860 189 l 872 189 l 872 172 l 916 172 l 916 160 l 959 160 l 959 145 l 974 145 l 974 130 l 989 130 l 989 33 l 974 33 l 974 16 l 916 16 l 916 3 l 854 3 l 854 16 l 639 16 l 639 33 l 625 33 l 625 45 l 610 45 l 610 115 l 625 115 l 625 145 l 639 145 l 639 160 l 681 160 l 681 172 l 711 172 l 711 189 l 727 189 l 727 476 l 739 476 l 739 621 l 727 621 l 727 693 l 715 693 l 715 680 l 700 680 l 700 650 l 685 650 l 685 621 l 673 621 l 673 593 l 658 593 l 658 576 l 643 576 l 643 534 l 628 534 l 628 491 l 614 491 l 614 477 l 600 477 l 600 448 l 586 448 l 586 419 l 570 419 l 570 391 l 557 391 l 557 377 l 543 377 l 543 349 l 528 349 l 528 332 l 480 332 l 480 349 l 465 349 l 465 362 l 453 362 l 453 377 l 438 377 l 438 406 l 423 406 l 423 419 l 410 419 l 410 464 l 395 464 l 395 491 l 381 491 l 381 519 l 365 519 l 365 549 l 353 549 l 353 576 l 338 576 l 338 606 l 323 606 l 323 636 l 308 636 l 308 665 l 294 665 l 294 693 l 269 693 l 269 534 l 254 534 l 254 418 l 269 418 l 269 245 l 283 245 l 283 202 l 297 202 l 297 189 l 312 189 l 312 172 l 370 172 l 370 160 l 399 160 l 399 115 l 412 115 l 412 45 l 399 45 l 399 33 l 384 33 l 384 16 l 79 16 l 79 33 l 64 33 l 64 145 l 79 145 l 79 160 l 92 160 l 92 172 l 121 172 l 121 189 l 137 189 l 137 202 l 151 202 l 151 434 l 165 434 l 165 838 l 151 838 l 151 850 l 121 850 l 121 867 l 49 867 l 49 909 l 34 909 l 34 979 l 49 979 l 49 994 z "},"N":{"ha":898,"x_min":33,"x_max":841,"o":"m 33 979 l 46 979 l 46 994 l 151 994 l 151 979 l 281 979 l 281 964 l 296 964 l 296 937 l 308 937 l 308 907 l 324 907 l 324 879 l 338 879 l 338 865 l 353 865 l 353 822 l 366 822 l 366 792 l 380 792 l 380 779 l 395 779 l 395 750 l 408 750 l 408 720 l 423 720 l 423 692 l 438 692 l 438 663 l 453 663 l 453 648 l 467 648 l 467 633 l 483 633 l 483 605 l 495 605 l 495 576 l 510 576 l 510 548 l 525 548 l 525 533 l 540 533 l 540 505 l 552 505 l 552 491 l 568 491 l 568 463 l 582 463 l 582 434 l 595 434 l 595 418 l 610 418 l 610 404 l 624 404 l 624 374 l 651 374 l 651 665 l 636 665 l 636 780 l 621 780 l 621 808 l 606 808 l 606 823 l 551 823 l 551 838 l 522 838 l 522 850 l 492 850 l 492 964 l 507 964 l 507 979 l 826 979 l 826 964 l 841 964 l 841 850 l 826 850 l 826 838 l 798 838 l 798 823 l 769 823 l 769 636 l 755 636 l 755 404 l 769 404 l 769 16 l 755 16 l 755 3 l 727 3 l 727 -12 l 665 -12 l 665 3 l 651 3 l 651 16 l 636 16 l 636 33 l 621 33 l 621 58 l 606 58 l 606 88 l 593 88 l 593 117 l 576 117 l 576 146 l 564 146 l 564 174 l 551 174 l 551 203 l 534 203 l 534 248 l 522 248 l 522 260 l 507 260 l 507 304 l 492 304 l 492 319 l 477 319 l 477 349 l 464 349 l 464 362 l 449 362 l 449 391 l 435 391 l 435 419 l 419 419 l 419 448 l 406 448 l 406 464 l 391 464 l 391 491 l 377 491 l 377 519 l 362 519 l 362 549 l 349 549 l 349 564 l 335 564 l 335 593 l 320 593 l 320 621 l 305 621 l 305 650 l 290 650 l 290 665 l 278 665 l 278 693 l 251 693 l 251 680 l 236 680 l 236 347 l 251 347 l 251 217 l 266 217 l 266 189 l 281 189 l 281 172 l 324 172 l 324 160 l 380 160 l 380 145 l 395 145 l 395 130 l 408 130 l 408 16 l 324 16 l 324 3 l 76 3 l 76 16 l 46 16 l 46 45 l 33 45 l 33 115 l 46 115 l 46 130 l 61 130 l 61 145 l 76 145 l 76 160 l 91 160 l 91 172 l 103 172 l 103 189 l 133 189 l 133 823 l 119 823 l 119 838 l 46 838 l 46 850 l 33 850 l 33 979 z "},"O":{"ha":852,"x_min":31,"x_max":796,"o":"m 633 476 l 650 476 l 650 549 l 633 549 l 633 636 l 621 636 l 621 693 l 606 693 l 606 707 l 591 707 l 591 735 l 576 735 l 576 765 l 563 765 l 563 793 l 549 793 l 549 808 l 519 808 l 519 823 l 492 823 l 492 838 l 463 838 l 463 850 l 419 850 l 419 867 l 378 867 l 378 850 l 336 850 l 336 838 l 293 838 l 293 823 l 278 823 l 278 808 l 266 808 l 266 793 l 250 793 l 250 765 l 236 765 l 236 735 l 221 735 l 221 707 l 206 707 l 206 665 l 191 665 l 191 606 l 179 606 l 179 404 l 191 404 l 191 347 l 206 347 l 206 305 l 221 305 l 221 275 l 236 275 l 236 245 l 250 245 l 250 231 l 266 231 l 266 217 l 278 217 l 278 202 l 293 202 l 293 189 l 323 189 l 323 172 l 351 172 l 351 160 l 393 160 l 393 145 l 419 145 l 419 160 l 476 160 l 476 172 l 505 172 l 505 189 l 534 189 l 534 202 l 549 202 l 549 217 l 563 217 l 563 245 l 576 245 l 576 260 l 591 260 l 591 289 l 606 289 l 606 317 l 621 317 l 621 374 l 633 374 l 633 476 m 614 707 l 606 734 l 606 707 l 614 707 m 559 808 l 549 837 l 549 808 l 559 808 m 529 823 l 519 850 l 519 823 l 529 823 m 500 838 l 492 867 l 492 838 l 500 838 m 472 850 l 463 879 l 463 850 l 472 850 m 427 867 l 419 894 l 419 867 l 427 867 m 250 202 l 250 231 l 241 231 l 250 202 m 266 190 l 266 217 l 256 217 l 266 190 m 278 174 l 278 202 l 270 202 l 278 174 m 293 160 l 293 189 l 285 189 l 293 160 m 323 145 l 323 172 l 315 172 l 323 145 m 351 132 l 351 160 l 342 160 l 351 132 m 393 117 l 393 145 l 384 145 l 393 117 m 317 1008 l 359 1008 l 359 1024 l 423 1024 l 423 1008 l 510 1008 l 510 994 l 567 994 l 567 979 l 594 979 l 594 964 l 609 964 l 609 952 l 624 952 l 624 937 l 652 937 l 652 922 l 667 922 l 667 894 l 681 894 l 681 879 l 697 879 l 697 865 l 709 865 l 709 849 l 724 849 l 724 822 l 739 822 l 739 779 l 754 779 l 754 750 l 766 750 l 766 692 l 783 692 l 783 621 l 796 621 l 796 391 l 783 391 l 783 319 l 766 319 l 766 248 l 754 248 l 754 218 l 739 218 l 739 190 l 724 190 l 724 161 l 709 161 l 709 132 l 697 132 l 697 117 l 667 117 l 667 103 l 652 103 l 652 88 l 639 88 l 639 75 l 624 75 l 624 58 l 609 58 l 609 45 l 581 45 l 581 33 l 552 33 l 552 16 l 465 16 l 465 3 l 317 3 l 317 16 l 260 16 l 260 33 l 232 33 l 232 45 l 202 45 l 202 58 l 174 58 l 174 75 l 160 75 l 160 88 l 145 88 l 145 117 l 132 117 l 132 132 l 118 132 l 118 146 l 103 146 l 103 174 l 88 174 l 88 190 l 73 190 l 73 233 l 61 233 l 61 275 l 45 275 l 45 332 l 31 332 l 31 633 l 45 633 l 45 735 l 61 735 l 61 762 l 73 762 l 73 807 l 88 807 l 88 822 l 103 822 l 103 865 l 118 865 l 118 879 l 132 879 l 132 894 l 145 894 l 145 922 l 174 922 l 174 937 l 189 937 l 189 952 l 218 952 l 218 964 l 232 964 l 232 979 l 260 979 l 260 994 l 317 994 l 317 1008 z "},"P":{"ha":852,"x_min":31,"x_max":796,"o":"m 629 666 l 643 666 l 643 749 q 637 754 639 751 q 632 757 635 757 l 629 773 l 613 773 l 613 787 l 600 787 l 600 802 l 586 802 l 586 817 l 568 817 l 568 833 l 540 833 l 540 848 l 509 848 l 509 863 l 467 863 l 467 848 l 434 848 l 434 863 l 349 863 l 349 848 l 334 848 l 334 559 l 349 559 l 349 545 l 479 545 l 479 559 l 540 559 l 540 575 l 568 575 l 568 589 l 600 589 l 600 620 l 613 620 l 613 635 l 629 635 l 629 666 m 623 787 l 613 815 l 613 787 l 623 787 m 609 802 l 600 830 l 600 802 l 609 802 m 594 817 l 586 845 l 586 817 l 594 817 m 578 833 l 568 861 l 568 833 l 578 833 m 548 848 l 540 875 l 540 848 l 548 848 m 518 863 l 509 891 l 509 863 l 518 863 m 444 863 l 434 891 l 434 863 l 444 863 m 349 517 l 349 545 l 339 545 l 349 517 m 46 993 l 61 993 l 61 1006 l 586 1006 l 586 993 l 661 993 l 661 978 l 677 978 l 677 963 l 707 963 l 707 949 l 722 949 l 722 933 l 736 933 l 736 918 l 750 918 l 750 890 l 766 890 l 766 872 l 781 872 l 781 844 l 796 844 l 796 609 l 781 609 l 781 578 l 766 578 l 766 549 l 750 549 l 750 518 l 736 518 l 736 503 l 722 503 l 722 488 l 707 488 l 707 472 l 677 472 l 677 458 l 647 458 l 647 444 l 617 444 l 617 429 l 557 429 l 557 415 l 513 415 l 513 397 l 334 397 l 334 354 l 319 354 l 319 187 l 334 187 l 334 156 l 362 156 l 362 141 l 467 141 l 467 126 l 496 126 l 496 110 l 513 110 l 513 11 l 496 11 l 496 -4 l 452 -4 l 452 -20 l 331 -20 l 331 -4 l 302 -4 l 302 -20 l 77 -20 l 77 -4 l 61 -4 l 61 110 l 77 110 l 77 126 l 91 126 l 91 141 l 165 141 l 165 156 l 180 156 l 180 170 l 195 170 l 195 823 q 189 828 191 826 q 184 830 187 830 l 180 848 l 152 848 l 152 863 l 95 863 l 95 848 l 46 848 l 46 876 l 31 876 l 31 978 l 46 978 l 46 993 z "},"Q":{"ha":882,"x_min":31,"x_max":825,"o":"m 643 396 l 659 396 l 659 593 l 643 593 l 643 639 l 629 639 l 629 684 l 614 684 l 614 727 l 600 727 l 600 757 l 583 757 l 583 773 l 570 773 l 570 802 l 540 802 l 540 817 l 495 817 l 495 833 l 465 833 l 465 848 l 449 848 l 449 863 l 363 863 l 363 848 l 334 848 l 334 833 l 302 833 l 302 817 l 274 817 l 274 802 l 259 802 l 259 787 l 243 787 l 243 757 l 229 757 l 229 742 l 213 742 l 213 697 l 199 697 l 199 669 l 184 669 l 184 609 l 170 609 l 170 380 l 184 380 l 184 321 l 199 321 l 199 290 l 213 290 l 213 260 l 229 260 l 229 231 l 243 231 l 243 216 l 259 216 l 259 201 l 274 201 l 274 187 l 289 187 l 289 170 l 302 170 l 302 156 l 334 156 l 334 141 l 377 141 l 377 126 l 465 126 l 465 141 l 509 141 l 509 156 l 525 156 l 525 170 l 540 170 l 540 187 l 570 187 l 570 216 l 583 216 l 583 231 l 600 231 l 600 260 l 614 260 l 614 305 l 629 305 l 629 365 l 643 365 l 643 396 m 593 773 l 583 802 l 583 773 l 593 773 m 548 817 l 540 845 l 540 817 l 548 817 m 503 833 l 495 861 l 495 833 l 503 833 m 475 848 l 465 875 l 465 848 l 475 848 m 457 863 l 449 891 l 449 863 l 457 863 m 243 189 l 243 216 l 233 216 l 243 189 m 259 172 l 259 201 l 251 201 l 259 172 m 274 159 l 274 187 l 264 187 l 274 159 m 289 142 l 289 170 l 279 170 l 289 142 m 302 127 l 302 156 l 294 156 l 302 127 m 334 113 l 334 141 l 324 141 l 334 113 m 377 99 l 377 126 l 368 126 l 377 99 m 271 993 l 331 993 l 331 1006 l 483 1006 l 483 993 l 557 993 l 557 978 l 587 978 l 587 963 l 617 963 l 617 949 l 632 949 l 632 933 l 647 933 l 647 918 l 677 918 l 677 903 l 690 903 l 690 872 l 707 872 l 707 859 l 722 859 l 722 829 l 736 829 l 736 799 l 751 799 l 751 769 l 768 769 l 768 726 l 781 726 l 781 680 l 796 680 l 796 354 l 781 354 l 781 279 l 768 279 l 768 235 l 751 235 l 751 205 l 736 205 l 736 174 l 722 174 l 722 160 l 707 160 l 707 145 l 690 145 l 690 114 l 677 114 l 677 100 l 661 100 l 661 84 l 632 84 l 632 71 l 617 71 l 617 39 l 587 39 l 587 22 l 601 22 l 601 7 l 617 7 l 617 -8 l 632 -8 l 632 -23 l 647 -23 l 647 -54 l 661 -54 l 661 -68 l 677 -68 l 677 -83 l 690 -83 l 690 -98 l 707 -98 l 707 -114 l 722 -114 l 722 -127 l 750 -127 l 750 -114 l 796 -114 l 796 -127 l 825 -127 l 825 -259 l 796 -259 l 796 -274 l 751 -274 l 751 -288 l 722 -288 l 722 -305 l 690 -305 l 690 -319 l 629 -319 l 629 -298 q 617 -290 618 -290 l 614 -274 l 600 -274 l 600 -239 q 593 -233 597 -236 q 587 -231 590 -231 l 583 -214 l 570 -214 l 570 -199 l 555 -199 l 555 -170 l 540 -170 l 540 -153 l 525 -153 l 525 -119 q 519 -113 522 -117 q 513 -110 515 -110 l 509 -94 l 480 -94 l 480 -64 l 449 -64 l 449 -34 l 419 -34 l 419 -20 l 389 -20 l 389 -4 l 285 -4 l 285 11 l 255 11 l 255 24 l 241 24 l 241 39 l 210 39 l 210 54 l 195 54 l 195 71 l 165 71 l 165 84 l 152 84 l 152 114 l 136 114 l 136 130 l 121 130 l 121 145 l 107 145 l 107 179 q 101 185 104 182 q 96 189 98 189 l 92 205 l 77 205 l 77 235 l 61 235 l 61 279 l 47 279 l 47 339 l 31 339 l 31 680 l 47 680 l 47 739 l 61 739 l 61 783 l 77 783 l 77 812 l 92 812 l 92 829 l 107 829 l 107 859 l 121 859 l 121 872 l 136 872 l 136 890 l 152 890 l 152 903 l 165 903 l 165 918 l 182 918 l 182 933 l 195 933 l 195 949 l 210 949 l 210 963 l 225 963 l 225 978 l 271 978 l 271 993 z "},"R":{"ha":977,"x_min":33,"x_max":916,"o":"m 585 694 l 598 694 l 598 742 l 585 742 l 585 787 l 571 787 l 571 802 l 555 802 l 555 817 l 525 817 l 525 833 l 510 833 l 510 848 l 450 848 l 450 863 l 319 863 l 319 848 l 304 848 l 304 817 l 289 817 l 289 589 l 304 589 l 304 575 l 495 575 l 495 589 l 525 589 l 525 605 l 541 605 l 541 620 l 555 620 l 555 635 l 571 635 l 571 648 l 585 648 l 585 694 m 579 802 l 571 830 l 571 802 l 579 802 m 564 817 l 555 845 l 555 817 l 564 817 m 533 833 l 525 861 l 525 833 l 533 833 m 519 848 l 510 875 l 510 848 l 519 848 m 458 863 l 450 891 l 450 863 l 458 863 m 304 547 l 304 575 l 296 575 l 304 547 m 47 993 l 62 993 l 62 1006 l 168 1006 l 168 993 l 180 993 l 180 1006 l 244 1006 l 244 993 l 361 993 l 361 1006 l 438 1006 l 438 993 l 589 993 l 589 978 l 632 978 l 632 963 l 646 963 l 646 949 l 662 949 l 662 933 l 677 933 l 677 918 l 692 918 l 692 903 l 707 903 l 707 890 l 723 890 l 723 859 l 736 859 l 736 799 l 753 799 l 753 639 l 736 639 l 736 593 l 723 593 l 723 563 l 707 563 l 707 549 l 692 549 l 692 518 l 662 518 l 662 503 l 646 503 l 646 488 l 617 488 l 617 472 l 589 472 l 589 458 l 559 458 l 559 454 l 572 454 l 572 441 l 589 441 l 589 425 l 602 425 l 602 411 l 617 411 l 617 396 l 632 396 l 632 380 l 646 380 l 646 350 l 662 350 l 662 335 l 677 335 l 677 321 l 692 321 l 692 290 l 707 290 l 707 260 l 723 260 l 723 247 l 736 247 l 736 216 l 753 216 l 753 187 l 766 187 l 766 156 l 798 156 l 798 141 l 826 141 l 826 126 l 901 126 l 901 110 l 916 110 l 916 11 l 901 11 l 901 -20 l 688 -20 l 688 -4 l 674 -4 l 674 11 l 659 11 l 659 24 l 644 24 l 644 54 l 628 54 l 628 71 l 614 71 l 614 100 l 598 100 l 598 121 q 589 127 591 127 l 585 145 l 571 145 l 571 179 q 565 185 568 182 q 559 189 562 189 l 555 205 l 541 205 l 541 239 q 534 245 538 241 q 528 248 530 248 l 525 264 l 510 264 l 510 294 l 495 294 l 495 324 l 464 324 l 464 339 l 450 339 l 450 369 l 435 369 l 435 384 l 420 384 l 420 397 l 391 397 l 391 415 l 374 415 l 374 429 l 304 429 l 304 415 l 289 415 l 289 156 l 304 156 l 304 141 l 335 141 l 335 126 l 422 126 l 422 110 l 453 110 l 453 11 l 438 11 l 438 -4 l 76 -4 l 76 11 l 62 11 l 62 110 l 76 110 l 76 126 l 94 126 l 94 141 l 137 141 l 137 156 l 165 156 l 165 833 l 151 833 l 151 848 l 137 848 l 137 863 l 125 863 l 125 848 l 94 848 l 94 863 l 47 863 l 47 876 l 33 876 l 33 978 l 47 978 l 47 993 z "},"S":{"ha":757,"x_min":30,"x_max":705,"o":"m 240 1006 l 283 1006 l 283 1024 l 511 1024 l 511 1006 l 646 1006 l 646 993 l 659 993 l 659 949 l 675 949 l 675 727 l 659 727 l 659 697 l 646 697 l 646 684 l 616 684 l 616 669 l 582 669 l 582 684 l 552 684 l 552 712 l 538 712 l 538 787 l 521 787 l 521 808 q 511 817 513 817 l 507 833 l 477 833 l 477 848 l 464 848 l 464 863 l 404 863 l 404 876 l 301 876 l 301 863 l 258 863 l 258 848 l 243 848 l 243 833 l 228 833 l 228 817 l 212 817 l 212 802 l 198 802 l 198 773 l 182 773 l 182 726 l 198 726 l 198 694 l 212 694 l 212 666 l 228 666 l 228 648 l 243 648 l 243 635 l 288 635 l 288 620 l 332 620 l 332 605 l 361 605 l 361 589 l 422 589 l 422 575 l 495 575 l 495 559 l 525 559 l 525 545 l 556 545 l 556 529 l 585 529 l 585 514 l 600 514 l 600 500 l 616 500 l 616 486 l 629 486 l 629 471 l 646 471 l 646 454 l 659 454 l 659 441 l 675 441 l 675 396 l 690 396 l 690 350 l 705 350 l 705 205 l 690 205 l 690 160 l 675 160 l 675 130 l 659 130 l 659 100 l 646 100 l 646 84 l 629 84 l 629 71 l 616 71 l 616 54 l 600 54 l 600 39 l 585 39 l 585 24 l 556 24 l 556 11 l 525 11 l 525 -4 l 481 -4 l 481 -20 l 210 -20 l 210 -4 l 152 -4 l 152 -20 l 73 -20 l 73 -4 l 45 -4 l 45 24 l 30 24 l 30 290 l 45 290 l 45 321 l 60 321 l 60 335 l 137 335 l 137 305 l 152 305 l 152 260 l 168 260 l 168 216 l 182 216 l 182 187 l 198 187 l 198 170 l 212 170 l 212 156 l 243 156 l 243 141 l 271 141 l 271 126 l 434 126 l 434 141 l 464 141 l 464 156 l 494 156 l 494 170 l 507 170 l 507 187 l 521 187 l 521 201 l 538 201 l 538 216 l 552 216 l 552 315 q 546 320 548 317 q 541 323 544 323 l 538 339 l 521 339 l 521 354 l 507 354 l 507 369 l 494 369 l 494 384 l 464 384 l 464 397 l 418 397 l 418 415 l 374 415 l 374 429 l 328 429 l 328 444 l 254 444 l 254 458 l 210 458 l 210 472 l 179 472 l 179 488 l 164 488 l 164 503 l 133 503 l 133 518 l 104 518 l 104 538 q 94 547 96 547 l 90 563 l 73 563 l 73 585 q 64 593 65 593 l 60 609 l 45 609 l 45 652 l 30 652 l 30 769 l 45 769 l 45 829 l 60 829 l 60 859 l 73 859 l 73 890 l 90 890 l 90 918 l 104 918 l 104 933 l 133 933 l 133 949 l 151 949 l 151 963 l 164 963 l 164 978 l 194 978 l 194 993 l 240 993 l 240 1006 z "},"T":{"ha":898,"x_min":33,"x_max":841,"o":"m 46 978 l 62 978 l 62 993 l 810 993 l 810 978 l 826 978 l 826 949 l 841 949 l 841 669 l 826 669 l 826 639 l 738 652 l 734 669 l 718 669 l 718 802 l 704 802 l 704 817 l 688 817 l 688 833 l 644 833 l 644 848 l 557 848 l 557 833 l 511 833 l 511 817 l 498 817 l 498 589 l 511 589 l 511 503 l 498 503 l 498 486 l 511 486 l 511 397 l 498 397 l 498 290 l 511 290 l 511 156 l 543 156 l 543 141 l 586 141 l 586 126 l 692 126 l 692 110 l 707 110 l 707 96 l 722 96 l 722 11 l 707 11 l 707 -20 l 632 -20 l 632 -34 l 598 -34 l 598 -20 l 195 -20 l 195 110 l 210 110 l 210 126 l 256 126 l 256 141 l 316 141 l 316 156 l 361 156 l 361 170 l 374 170 l 374 817 l 361 817 l 361 833 l 301 833 l 301 848 l 258 848 l 258 833 l 213 833 l 213 817 l 198 817 l 198 802 l 184 802 l 184 787 l 168 787 l 168 697 l 155 697 l 155 639 l 123 639 l 123 623 l 62 623 l 62 652 l 46 652 l 46 773 l 33 773 l 33 890 l 46 890 l 46 978 z "},"U":{"ha":928,"x_min":33,"x_max":869,"o":"m 33 993 l 62 993 l 62 1006 l 228 1006 l 228 993 l 300 993 l 300 1006 l 334 1006 l 334 993 l 378 993 l 378 978 l 392 978 l 392 907 l 378 907 l 378 876 l 363 876 l 363 863 l 304 863 l 304 848 l 289 848 l 289 802 l 274 802 l 274 545 l 289 545 l 289 216 l 304 216 l 304 201 l 317 201 l 317 187 l 334 187 l 334 170 l 347 170 l 347 156 l 378 156 l 378 141 l 407 141 l 407 126 l 510 126 l 510 141 l 570 141 l 570 156 l 598 156 l 598 170 l 613 170 l 613 187 l 628 187 l 628 201 l 644 201 l 644 231 l 658 231 l 658 802 l 644 802 l 644 848 l 613 848 l 613 863 l 570 863 l 570 876 l 555 876 l 555 892 l 538 892 l 538 978 l 555 978 l 555 993 l 854 993 l 854 978 l 869 978 l 869 863 l 840 863 l 840 848 l 796 848 l 796 817 l 783 817 l 783 757 l 765 757 l 765 174 l 751 174 l 751 130 l 736 130 l 736 100 l 722 100 l 722 71 l 705 71 l 705 54 l 692 54 l 692 39 l 662 39 l 662 24 l 646 24 l 646 11 l 602 11 l 602 -4 l 572 -4 l 572 -20 l 315 -20 l 315 -4 l 286 -4 l 286 11 l 256 11 l 256 24 l 225 24 l 225 39 l 210 39 l 210 60 q 199 68 202 68 l 197 84 l 179 84 l 179 114 l 165 114 l 165 160 l 151 160 l 151 833 l 136 833 l 136 848 l 122 848 l 122 863 l 62 863 l 62 876 l 33 876 l 33 993 z "},"V":{"ha":960,"x_min":33,"x_max":901,"o":"m 47 1006 l 182 1006 l 182 1024 l 319 1024 l 319 1006 l 395 1006 l 395 978 l 410 978 l 410 907 l 395 907 l 395 876 l 319 876 l 319 863 l 289 863 l 289 799 l 304 799 l 304 754 l 319 754 l 319 694 l 335 694 l 335 648 l 349 648 l 349 605 l 365 605 l 365 575 l 378 575 l 378 514 l 395 514 l 395 471 l 410 471 l 410 411 l 423 411 l 423 380 l 438 380 l 438 335 l 453 335 l 453 290 l 468 290 l 468 247 l 483 247 l 483 231 l 495 231 l 495 247 l 510 247 l 510 277 l 524 277 l 524 321 l 541 321 l 541 365 l 555 365 l 555 425 l 570 425 l 570 454 l 585 454 l 585 514 l 601 514 l 601 575 l 614 575 l 614 635 l 629 635 l 629 680 l 644 680 l 644 739 l 658 739 l 658 812 l 675 812 l 675 848 l 658 848 l 658 863 l 585 863 l 585 876 l 570 876 l 570 993 l 585 993 l 585 1006 l 886 1006 l 886 993 l 901 993 l 901 863 l 886 863 l 886 848 l 857 848 l 857 833 l 826 833 l 826 802 l 812 802 l 812 757 l 796 757 l 796 712 l 783 712 l 783 669 l 766 669 l 766 623 l 751 623 l 751 578 l 736 578 l 736 532 l 723 532 l 723 488 l 707 488 l 707 444 l 693 444 l 693 384 l 677 384 l 677 339 l 662 339 l 662 294 l 647 294 l 647 248 l 633 248 l 633 191 l 618 191 l 618 145 l 602 145 l 602 100 l 589 100 l 589 54 l 572 54 l 572 24 l 559 24 l 559 11 l 543 11 l 543 -4 l 528 -4 l 528 -20 l 434 -20 l 434 -4 l 420 -4 l 420 24 l 406 24 l 406 71 l 391 71 l 391 100 l 377 100 l 377 145 l 361 145 l 361 174 l 346 174 l 346 239 q 340 245 343 241 q 335 248 338 248 l 331 264 l 317 264 l 317 308 l 300 308 l 300 354 l 286 354 l 286 397 l 271 397 l 271 444 l 256 444 l 256 472 l 240 472 l 240 518 l 227 518 l 227 563 l 210 563 l 210 609 l 197 609 l 197 652 l 182 652 l 182 697 l 167 697 l 167 742 l 153 742 l 153 787 l 137 787 l 137 817 l 122 817 l 122 833 l 107 833 l 107 848 l 76 848 l 76 863 l 62 863 l 62 876 l 47 876 l 47 892 l 33 892 l 33 993 l 47 993 l 47 1006 z "},"W":{"ha":1104,"x_min":35,"x_max":1038,"o":"m 35 993 l 79 993 l 79 1006 l 320 1006 l 320 993 l 397 993 l 397 978 l 411 978 l 411 876 l 336 876 l 336 863 l 290 863 l 290 754 l 307 754 l 307 589 l 320 589 l 320 471 l 336 471 l 336 335 l 351 335 l 351 290 l 378 290 l 378 321 l 393 321 l 393 350 l 408 350 l 408 396 l 423 396 l 423 441 l 437 441 l 437 500 l 452 500 l 452 529 l 467 529 l 467 559 l 483 559 l 483 605 l 496 605 l 496 635 l 575 635 l 575 620 l 590 620 l 590 605 l 604 605 l 604 559 l 621 559 l 621 529 l 635 529 l 635 486 l 650 486 l 650 454 l 665 454 l 665 396 l 678 396 l 678 365 l 694 365 l 694 335 l 708 335 l 708 321 l 736 321 l 736 350 l 750 350 l 750 486 l 766 486 l 766 605 l 781 605 l 781 817 l 766 817 l 766 833 l 750 833 l 750 848 l 736 848 l 736 863 l 661 863 l 661 876 l 647 876 l 647 978 l 661 978 l 661 993 l 766 993 l 766 1006 l 1038 1006 l 1038 876 l 991 876 l 991 863 l 963 863 l 963 848 l 932 848 l 932 802 l 918 802 l 918 697 l 902 697 l 902 623 l 888 623 l 888 472 l 875 472 l 875 397 l 859 397 l 859 294 l 845 294 l 845 160 l 829 160 l 829 84 l 814 84 l 814 39 l 799 39 l 799 11 l 784 11 l 784 -20 l 690 -20 l 690 -4 l 675 -4 l 675 11 l 661 11 l 661 54 l 647 54 l 647 106 q 641 111 643 109 q 636 114 639 114 l 632 130 l 617 130 l 617 174 l 604 174 l 604 220 l 586 220 l 586 264 l 572 264 l 572 313 q 566 319 570 316 q 560 323 563 323 l 557 339 l 543 339 l 543 354 l 514 354 l 514 324 l 500 324 l 500 279 l 484 279 l 484 248 l 469 248 l 469 205 l 454 205 l 454 160 l 441 160 l 441 100 l 426 100 l 426 39 l 411 39 l 411 11 l 397 11 l 397 -4 l 380 -4 l 380 -20 l 302 -20 l 302 -4 l 288 -4 l 288 11 l 273 11 l 273 54 l 259 54 l 259 130 l 243 130 l 243 205 l 228 205 l 228 294 l 213 294 l 213 429 l 198 429 l 198 503 l 184 503 l 184 623 l 170 623 l 170 727 l 155 727 l 155 817 l 138 817 l 138 833 l 125 833 l 125 848 l 95 848 l 95 863 l 35 863 l 35 993 z "},"X":{"ha":977,"x_min":33,"x_max":916,"o":"m 62 1024 l 244 1024 l 244 1006 l 378 1006 l 378 993 l 393 993 l 393 978 l 408 978 l 408 892 l 393 892 l 393 876 l 350 876 l 350 863 l 335 863 l 335 829 l 350 829 l 350 812 l 365 812 l 365 783 l 378 783 l 378 754 l 393 754 l 393 739 l 408 739 l 408 709 l 425 709 l 425 694 l 438 694 l 438 666 l 454 666 l 454 648 l 481 648 l 481 666 l 496 666 l 496 680 l 510 680 l 510 694 l 526 694 l 526 726 l 541 726 l 541 754 l 556 754 l 556 769 l 571 769 l 571 812 l 585 812 l 585 844 l 600 844 l 600 863 l 556 863 l 556 876 l 526 876 l 526 993 l 541 993 l 541 1006 l 765 1006 l 765 1024 l 812 1024 l 812 1006 l 856 1006 l 856 993 l 872 993 l 872 876 l 856 876 l 856 863 l 842 863 l 842 848 l 783 848 l 783 833 l 769 833 l 769 817 l 753 817 l 753 802 l 738 802 l 738 787 l 723 787 l 723 757 l 708 757 l 708 742 l 692 742 l 692 712 l 678 712 l 678 697 l 662 697 l 662 669 l 648 669 l 648 652 l 632 652 l 632 623 l 617 623 l 617 609 l 602 609 l 602 578 l 589 578 l 589 563 l 574 563 l 574 532 l 559 532 l 559 514 l 574 514 l 574 486 l 589 486 l 589 454 l 602 454 l 602 441 l 617 441 l 617 411 l 632 411 l 632 396 l 648 396 l 648 380 l 662 380 l 662 350 l 678 350 l 678 321 l 692 321 l 692 305 l 708 305 l 708 277 l 723 277 l 723 260 l 738 260 l 738 231 l 753 231 l 753 201 l 769 201 l 769 187 l 783 187 l 783 156 l 812 156 l 812 141 l 887 141 l 887 126 l 902 126 l 902 96 l 916 96 l 916 11 l 887 11 l 887 -4 l 600 -4 l 600 11 l 571 11 l 571 24 l 556 24 l 556 141 l 585 141 l 585 156 l 614 156 l 614 160 l 600 160 l 600 205 l 585 205 l 585 220 l 571 220 l 571 264 l 556 264 l 556 279 l 541 279 l 541 294 l 526 294 l 526 324 l 510 324 l 510 339 l 496 339 l 496 354 l 481 354 l 481 384 l 438 384 l 438 354 l 425 354 l 425 339 l 408 339 l 408 308 l 393 308 l 393 279 l 378 279 l 378 248 l 365 248 l 365 235 l 350 235 l 350 205 l 335 205 l 335 174 l 321 174 l 321 156 l 350 156 l 350 141 l 393 141 l 393 24 l 378 24 l 378 11 l 350 11 l 350 -4 l 62 -4 l 62 11 l 49 11 l 49 24 l 33 24 l 33 141 l 62 141 l 62 156 l 122 156 l 122 170 l 137 170 l 137 187 l 152 187 l 152 201 l 165 201 l 165 216 l 183 216 l 183 247 l 197 247 l 197 260 l 212 260 l 212 290 l 227 290 l 227 321 l 243 321 l 243 335 l 256 335 l 256 365 l 273 365 l 273 380 l 286 380 l 286 396 l 302 396 l 302 425 l 317 425 l 317 441 l 332 441 l 332 454 l 346 454 l 346 500 l 361 500 l 361 514 l 376 514 l 376 518 l 361 518 l 361 563 l 346 563 l 346 585 q 336 593 340 593 l 332 609 l 317 609 l 317 623 l 302 623 l 302 644 q 296 650 300 647 q 290 652 293 652 l 286 669 l 273 669 l 273 684 l 256 684 l 256 712 l 243 712 l 243 742 l 227 742 l 227 762 q 216 770 218 770 l 212 787 l 197 787 l 197 817 l 183 817 l 183 833 l 165 833 l 165 848 l 152 848 l 152 863 l 94 863 l 94 876 l 62 876 l 62 1024 z "},"Y":{"ha":928,"x_min":33,"x_max":869,"o":"m 33 1006 l 62 1006 l 62 1024 l 183 1024 l 183 1006 l 210 1006 l 210 1024 l 304 1024 l 304 1006 l 378 1006 l 378 978 l 393 978 l 393 907 l 378 907 l 378 892 l 363 892 l 363 876 l 304 876 l 304 859 l 317 859 l 317 829 l 334 829 l 334 799 l 347 799 l 347 783 l 363 783 l 363 754 l 378 754 l 378 739 l 393 739 l 393 709 l 407 709 l 407 680 l 422 680 l 422 648 l 438 648 l 438 635 l 452 635 l 452 620 l 468 620 l 468 589 l 494 589 l 494 620 l 510 620 l 510 635 l 524 635 l 524 648 l 538 648 l 538 680 l 555 680 l 555 709 l 570 709 l 570 739 l 583 739 l 583 769 l 600 769 l 600 799 l 613 799 l 613 812 l 628 812 l 628 863 l 583 863 l 583 876 l 555 876 l 555 892 l 538 892 l 538 993 l 555 993 l 555 1006 l 779 1006 l 779 1024 l 841 1024 l 841 1006 l 869 1006 l 869 892 l 854 892 l 854 876 l 841 876 l 841 863 l 796 863 l 796 833 l 783 833 l 783 817 l 765 817 l 765 802 l 751 802 l 751 773 l 736 773 l 736 742 l 722 742 l 722 712 l 705 712 l 705 697 l 692 697 l 692 684 l 675 684 l 675 639 l 662 639 l 662 623 l 646 623 l 646 593 l 631 593 l 631 578 l 617 578 l 617 549 l 602 549 l 602 518 l 587 518 l 587 503 l 572 503 l 572 472 l 557 472 l 557 444 l 541 444 l 541 187 l 557 187 l 557 156 l 692 156 l 692 141 l 722 141 l 722 126 l 736 126 l 736 39 l 722 39 l 722 11 l 675 11 l 675 -4 l 628 -4 l 628 11 l 541 11 l 541 -4 l 403 -4 l 403 11 l 270 11 l 270 39 l 256 39 l 256 110 l 270 110 l 270 141 l 300 141 l 300 156 l 376 156 l 376 170 l 389 170 l 389 187 l 403 187 l 403 415 l 389 415 l 389 444 l 376 444 l 376 458 l 359 458 l 359 503 l 346 503 l 346 518 l 330 518 l 330 538 q 319 547 321 547 l 315 563 l 300 563 l 300 585 q 289 593 292 593 l 286 609 l 270 609 l 270 639 l 256 639 l 256 658 q 243 666 245 666 l 240 684 l 225 684 l 225 712 l 210 712 l 210 727 l 197 727 l 197 757 l 179 757 l 179 773 l 165 773 l 165 802 l 152 802 l 152 822 q 145 827 148 825 q 140 830 142 830 l 136 848 l 122 848 l 122 863 l 62 863 l 62 876 l 33 876 l 33 1006 z "},"Z":{"ha":819,"x_min":31,"x_max":765,"o":"m 90 1006 l 104 1006 l 104 1024 l 273 1024 l 273 1006 l 674 1006 l 674 993 l 705 993 l 705 978 l 720 978 l 720 848 l 705 848 l 705 817 l 690 817 l 690 802 l 674 802 l 674 773 l 661 773 l 661 757 l 646 757 l 646 742 l 631 742 l 631 727 l 616 727 l 616 697 l 601 697 l 601 684 l 585 684 l 585 669 l 571 669 l 571 639 l 555 639 l 555 623 l 541 623 l 541 609 l 528 609 l 528 578 l 510 578 l 510 563 l 496 563 l 496 532 l 481 532 l 481 518 l 467 518 l 467 503 l 450 503 l 450 472 l 437 472 l 437 458 l 420 458 l 420 444 l 407 444 l 407 415 l 392 415 l 392 397 l 377 397 l 377 384 l 361 384 l 361 354 l 347 354 l 347 339 l 331 339 l 331 308 l 317 308 l 317 279 l 304 279 l 304 264 l 286 264 l 286 248 l 273 248 l 273 220 l 258 220 l 258 205 l 243 205 l 243 174 l 227 174 l 227 160 l 213 160 l 213 156 l 227 156 l 227 141 l 464 141 l 464 156 l 553 156 l 553 170 l 583 170 l 583 187 l 598 187 l 598 201 l 613 201 l 613 216 l 627 216 l 627 247 l 643 247 l 643 290 l 656 290 l 656 321 l 751 321 l 751 290 l 765 290 l 765 130 l 751 130 l 751 39 l 735 39 l 735 -4 l 720 -4 l 720 -20 l 583 -20 l 583 -4 l 153 -4 l 153 -20 l 76 -20 l 76 -4 l 45 -4 l 45 11 l 31 11 l 31 170 l 45 170 l 45 201 l 61 201 l 61 216 l 76 216 l 76 231 l 90 231 l 90 260 l 104 260 l 104 277 l 119 277 l 119 305 l 136 305 l 136 321 l 149 321 l 149 335 l 165 335 l 165 365 l 179 365 l 179 380 l 194 380 l 194 396 l 209 396 l 209 425 l 225 425 l 225 441 l 239 441 l 239 454 l 255 454 l 255 486 l 269 486 l 269 500 l 285 500 l 285 514 l 300 514 l 300 545 l 313 545 l 313 559 l 330 559 l 330 575 l 343 575 l 343 605 l 359 605 l 359 620 l 374 620 l 374 635 l 389 635 l 389 666 l 403 666 l 403 680 l 419 680 l 419 694 l 433 694 l 433 726 l 449 726 l 449 739 l 464 739 l 464 754 l 479 754 l 479 783 l 492 783 l 492 799 l 510 799 l 510 829 l 524 829 l 524 859 l 537 859 l 537 863 l 286 863 l 286 848 l 243 848 l 243 833 l 227 833 l 227 817 l 197 817 l 197 773 l 183 773 l 183 727 l 168 727 l 168 697 l 76 697 l 76 712 l 61 712 l 61 918 l 76 918 l 76 993 l 90 993 l 90 1006 z "},"":{"ha":760,"x_min":34,"x_max":696,"o":"m 502 708 l 502 693 l 543 693 l 543 681 l 570 681 l 570 666 l 585 666 l 585 651 l 600 651 l 600 637 l 612 637 l 612 624 l 627 624 l 627 595 l 640 595 l 640 525 l 655 525 l 655 442 l 640 442 l 640 414 l 627 414 l 627 400 l 540 400 l 540 414 l 511 414 l 511 442 l 496 442 l 496 526 l 484 526 l 484 540 l 469 540 l 469 555 l 426 555 l 426 570 l 331 570 l 331 555 l 304 555 l 304 540 l 275 540 l 275 526 l 262 526 l 262 511 l 245 511 l 245 499 l 233 499 l 233 484 l 218 484 l 218 471 l 205 471 l 205 442 l 190 442 l 190 400 l 178 400 l 178 298 l 190 298 l 190 258 l 205 258 l 205 245 l 218 245 l 218 217 l 233 217 l 233 201 l 245 201 l 245 187 l 275 187 l 275 172 l 304 172 l 304 160 l 374 160 l 374 145 l 439 145 l 439 160 l 525 160 l 525 172 l 552 172 l 552 187 l 594 187 l 594 201 l 684 201 l 684 187 l 696 187 l 696 90 l 684 90 l 684 76 l 669 76 l 669 61 l 640 61 l 640 49 l 600 49 l 600 34 l 570 34 l 570 20 l 502 20 l 502 5 l 458 5 l 479 -64 l 471 -64 q 475 -100 473 -83 q 481 -130 477 -117 l 477 -148 l 477 -161 l 469 -163 q 471 -171 471 -167 l 399 -191 l 397 -180 l 380 -184 l 368 -142 l 358 -145 l 321 -8 l 273 -8 l 273 5 l 216 5 l 216 20 l 172 20 l 172 34 l 160 34 l 160 49 l 146 49 l 146 61 l 132 61 l 132 76 l 118 76 l 118 90 l 103 90 l 103 104 l 90 104 l 90 133 l 75 133 l 75 161 l 61 161 l 61 202 l 46 202 l 46 244 l 34 244 l 34 399 l 46 399 l 46 483 l 61 483 l 61 510 l 75 510 l 75 538 l 90 538 l 90 567 l 103 567 l 103 582 l 118 582 l 118 595 l 132 595 l 132 610 l 146 610 l 146 624 l 160 624 l 160 637 l 172 637 l 172 651 l 201 651 l 201 666 l 216 666 l 216 681 l 258 681 l 258 693 l 301 693 l 301 708 l 502 708 z "},"":{"ha":792,"x_min":30,"x_max":739,"o":"m 509 994 l 509 979 l 582 979 l 582 964 l 711 964 l 711 952 l 724 952 l 724 922 l 739 922 l 739 838 l 724 838 l 724 750 l 739 750 l 739 665 l 724 665 l 724 650 l 711 650 l 711 636 l 635 636 l 635 650 l 621 650 l 621 680 l 606 680 l 606 751 l 593 751 l 593 780 l 576 780 l 576 793 l 564 793 l 564 808 l 548 808 l 548 823 l 519 823 l 519 838 l 366 838 l 366 823 l 338 823 l 338 808 l 308 808 l 308 793 l 293 793 l 293 780 l 278 780 l 278 765 l 263 765 l 263 735 l 251 735 l 251 722 l 235 722 l 235 693 l 221 693 l 221 650 l 209 650 l 209 593 l 193 593 l 193 359 l 209 359 l 209 305 l 221 305 l 221 260 l 235 260 l 235 245 l 251 245 l 251 217 l 263 217 l 263 202 l 278 202 l 278 189 l 293 189 l 293 172 l 323 172 l 323 160 l 350 160 l 350 145 l 380 145 l 380 130 l 491 130 l 491 145 l 519 145 l 519 160 l 548 160 l 548 172 l 564 172 l 564 189 l 576 189 l 576 217 l 593 217 l 593 231 l 606 231 l 606 289 l 621 289 l 621 331 l 635 331 l 635 347 l 648 347 l 648 359 l 711 359 l 711 347 l 739 347 l 739 103 l 724 103 l 724 88 l 711 88 l 711 75 l 696 75 l 696 58 l 666 58 l 666 45 l 652 45 l 652 33 l 624 33 l 624 16 l 594 16 l 594 3 l 537 3 l 537 -12 l 533 -12 l 557 -103 l 551 -103 l 574 -193 l 557 -201 l 557 -217 l 548 -218 q 549 -229 549 -224 l 480 -248 l 477 -237 l 454 -243 l 439 -194 l 427 -198 l 388 -26 l 377 -26 l 377 -12 l 304 -12 l 304 3 l 260 3 l 260 16 l 232 16 l 232 33 l 203 33 l 203 45 l 190 45 l 190 58 l 175 58 l 175 75 l 161 75 l 161 88 l 145 88 l 145 103 l 133 103 l 133 132 l 118 132 l 118 146 l 103 146 l 103 161 l 88 161 l 88 203 l 73 203 l 73 233 l 58 233 l 58 275 l 46 275 l 46 349 l 30 349 l 30 605 l 46 605 l 46 663 l 58 663 l 58 707 l 73 707 l 73 750 l 88 750 l 88 779 l 103 779 l 103 807 l 118 807 l 118 822 l 133 822 l 133 849 l 145 849 l 145 865 l 161 865 l 161 879 l 175 879 l 175 894 l 190 894 l 190 907 l 203 907 l 203 922 l 217 922 l 217 937 l 245 937 l 245 952 l 260 952 l 260 964 l 290 964 l 290 979 l 332 979 l 332 994 l 509 994 z "},"":{"ha":928,"x_min":37,"x_max":854,"o":"m 184 905 l 225 905 l 225 920 l 384 920 l 384 905 l 564 905 l 564 920 l 692 920 l 692 905 l 707 905 l 707 891 l 722 891 l 722 766 l 707 766 l 707 738 l 651 738 l 651 723 l 199 723 l 199 738 l 184 738 l 184 751 l 171 751 l 171 891 l 184 891 l 184 905 m 416 688 l 458 688 l 458 703 l 602 703 l 602 688 l 617 688 l 617 675 l 643 675 l 643 661 l 673 661 l 673 647 l 688 647 l 688 635 l 700 635 l 700 618 l 715 618 l 715 590 l 728 590 l 728 549 l 743 549 l 743 155 l 757 155 l 757 140 l 829 140 l 829 126 l 854 126 l 854 0 l 829 0 l 829 -14 l 697 -14 l 697 0 l 557 0 l 557 28 l 544 28 l 544 99 l 557 99 l 557 111 l 572 111 l 572 126 l 585 126 l 585 140 l 600 140 l 600 155 l 613 155 l 613 323 l 625 323 l 625 393 l 613 393 l 613 465 l 600 465 l 600 494 l 585 494 l 585 506 l 572 506 l 572 522 l 557 522 l 557 536 l 529 536 l 529 551 l 449 551 l 449 536 l 419 536 l 419 522 l 378 522 l 378 506 l 350 506 l 350 494 l 307 494 l 307 465 l 293 465 l 293 339 l 278 339 l 278 237 l 293 237 l 293 155 l 307 155 l 307 140 l 378 140 l 378 126 l 407 126 l 407 111 l 419 111 l 419 99 l 433 99 l 433 28 l 419 28 l 419 15 l 407 15 l 407 0 l 122 0 l 122 15 l 107 15 l 107 28 l 94 28 l 94 99 l 107 99 l 107 126 l 122 126 l 122 140 l 149 140 l 149 155 l 163 155 l 163 522 l 149 522 l 149 536 l 50 536 l 50 551 l 37 551 l 37 647 l 50 647 l 50 661 l 79 661 l 79 675 l 149 675 l 149 688 l 251 688 l 251 675 l 266 675 l 266 661 l 278 661 l 278 635 l 317 635 l 317 647 l 332 647 l 332 661 l 361 661 l 361 675 l 416 675 l 416 688 z "},"":{"ha":898,"x_min":33,"x_max":841,"o":"m 168 1185 l 212 1185 l 212 1200 l 373 1200 l 373 1185 l 557 1185 l 557 1200 l 688 1200 l 688 1185 l 704 1185 l 704 1171 l 718 1171 l 718 1043 l 704 1043 l 704 1015 l 646 1015 l 646 1000 l 184 1000 l 184 1015 l 168 1015 l 168 1028 l 155 1028 l 155 1171 l 168 1171 l 168 1185 m 33 979 l 46 979 l 46 994 l 151 994 l 151 979 l 281 979 l 281 964 l 296 964 l 296 937 l 308 937 l 308 907 l 324 907 l 324 879 l 338 879 l 338 865 l 353 865 l 353 822 l 366 822 l 366 792 l 380 792 l 380 779 l 395 779 l 395 750 l 408 750 l 408 720 l 423 720 l 423 692 l 438 692 l 438 663 l 453 663 l 453 648 l 467 648 l 467 633 l 483 633 l 483 605 l 495 605 l 495 576 l 510 576 l 510 548 l 525 548 l 525 533 l 540 533 l 540 505 l 552 505 l 552 491 l 568 491 l 568 463 l 582 463 l 582 434 l 595 434 l 595 418 l 610 418 l 610 404 l 624 404 l 624 374 l 651 374 l 651 665 l 636 665 l 636 780 l 621 780 l 621 808 l 606 808 l 606 823 l 551 823 l 551 838 l 522 838 l 522 850 l 492 850 l 492 964 l 507 964 l 507 979 l 826 979 l 826 964 l 841 964 l 841 850 l 826 850 l 826 838 l 798 838 l 798 823 l 769 823 l 769 636 l 755 636 l 755 404 l 769 404 l 769 16 l 755 16 l 755 3 l 727 3 l 727 -12 l 665 -12 l 665 3 l 651 3 l 651 16 l 636 16 l 636 33 l 621 33 l 621 58 l 606 58 l 606 88 l 593 88 l 593 117 l 576 117 l 576 146 l 564 146 l 564 174 l 551 174 l 551 203 l 534 203 l 534 248 l 522 248 l 522 260 l 507 260 l 507 304 l 492 304 l 492 319 l 477 319 l 477 349 l 464 349 l 464 362 l 449 362 l 449 391 l 435 391 l 435 419 l 419 419 l 419 448 l 406 448 l 406 464 l 391 464 l 391 491 l 377 491 l 377 519 l 362 519 l 362 549 l 349 549 l 349 564 l 335 564 l 335 593 l 320 593 l 320 621 l 305 621 l 305 650 l 290 650 l 290 665 l 278 665 l 278 693 l 251 693 l 251 680 l 236 680 l 236 347 l 251 347 l 251 217 l 266 217 l 266 189 l 281 189 l 281 172 l 324 172 l 324 160 l 380 160 l 380 145 l 395 145 l 395 130 l 408 130 l 408 16 l 324 16 l 324 3 l 76 3 l 76 16 l 46 16 l 46 45 l 33 45 l 33 115 l 46 115 l 46 130 l 61 130 l 61 145 l 76 145 l 76 160 l 91 160 l 91 172 l 103 172 l 103 189 l 133 189 l 133 823 l 119 823 l 119 838 l 46 838 l 46 850 l 33 850 l 33 979 z "},"":{"ha":288,"x_min":23,"x_max":256,"o":"m 186 716 l 186 701 l 109 701 l 109 716 l 96 716 l 96 731 l 81 731 l 81 746 l 66 746 l 66 758 l 52 758 l 52 774 l 38 774 l 38 803 l 23 803 l 23 872 l 38 872 l 38 932 l 52 932 l 52 944 l 66 944 l 66 960 l 96 960 l 96 974 l 138 974 l 138 989 l 186 989 l 186 974 l 214 974 l 214 960 l 228 960 l 228 944 l 243 944 l 243 932 l 256 932 l 256 758 l 243 758 l 243 746 l 228 746 l 228 731 l 214 731 l 214 716 l 186 716 m 198 -61 l 198 -90 l 96 -90 l 96 -76 l 66 -76 l 66 -60 l 52 -60 l 52 -33 l 38 -33 l 38 11 l 23 11 l 23 96 l 38 96 l 38 197 l 52 197 l 52 297 l 66 297 l 66 412 l 81 412 l 81 673 l 96 673 l 96 715 l 125 715 l 125 730 l 171 730 l 171 715 l 186 715 l 186 700 l 198 700 l 198 628 l 214 628 l 214 354 l 228 354 l 228 240 l 243 240 l 243 197 l 256 197 l 256 -4 l 243 -4 l 243 -47 l 228 -47 l 228 -60 l 205 -60 l 209 -57 l 198 -61 z "},"!":{"ha":288,"x_min":23,"x_max":256,"o":"m 65 251 l 94 251 l 94 266 l 171 266 l 171 251 l 183 251 l 183 237 l 198 237 l 198 221 l 213 221 l 213 208 l 228 208 l 228 193 l 241 193 l 241 164 l 256 164 l 256 94 l 241 94 l 241 35 l 228 35 l 228 22 l 213 22 l 213 7 l 183 7 l 183 -7 l 141 -7 l 141 -22 l 94 -22 l 94 -7 l 65 -7 l 65 7 l 52 7 l 52 22 l 37 22 l 37 35 l 23 35 l 23 208 l 37 208 l 37 221 l 52 221 l 52 237 l 65 237 l 65 251 m 71 1024 l 81 1028 l 81 1055 l 183 1055 l 183 1043 l 213 1043 l 213 1028 l 228 1028 l 228 998 l 241 998 l 241 956 l 256 956 l 256 869 l 241 869 l 241 770 l 228 770 l 228 670 l 213 670 l 213 553 l 198 553 l 198 294 l 183 294 l 183 252 l 155 252 l 155 237 l 109 237 l 109 252 l 94 252 l 94 267 l 81 267 l 81 339 l 65 339 l 65 612 l 52 612 l 52 726 l 37 726 l 37 770 l 23 770 l 23 971 l 37 971 l 37 1013 l 52 1013 l 52 1028 l 75 1028 l 71 1024 z "},"":{"ha":374,"x_min":14,"x_max":354,"o":"m 15 1135 l 20 1141 l 14 1154 l 33 1165 l 27 1177 l 121 1232 l 126 1221 l 201 1265 q 195 1276 195 1276 l 273 1321 l 278 1312 l 286 1317 l 290 1306 l 298 1310 l 346 1229 l 339 1223 l 354 1198 l 324 1183 q 331 1171 331 1172 l 92 1029 l 87 1040 l 80 1036 l 75 1046 l 66 1043 l 15 1135 z "},"`":{"ha":374,"x_min":9,"x_max":351,"o":"m 332 1168 l 351 1158 l 343 1142 l 350 1138 l 297 1046 l 288 1050 q 285 1039 285 1044 l 277 1044 q 273 1038 275 1042 q 271 1032 271 1034 l 34 1175 l 38 1185 l 9 1203 l 23 1227 l 18 1232 l 66 1314 l 75 1309 l 76 1310 l 84 1316 q 87 1320 85 1318 q 90 1324 90 1322 l 168 1278 l 163 1268 l 239 1223 q 241 1229 240 1226 q 243 1233 243 1232 l 340 1179 l 332 1168 z "},"^":{"ha":331,"x_min":9,"x_max":313,"o":"m 161 1305 q 170 1310 164 1308 q 178 1313 176 1313 l 178 1306 l 187 1312 l 187 1303 l 189 1305 l 311 1100 l 301 1096 l 313 1076 l 286 1062 l 286 1055 l 232 1024 l 231 1029 l 229 1034 l 221 1031 l 171 1115 l 179 1119 l 161 1149 q 153 1137 155 1139 q 141 1119 151 1134 q 151 1115 149 1115 l 102 1032 l 94 1034 l 90 1029 l 90 1024 l 35 1055 l 35 1062 l 9 1078 l 20 1096 l 11 1100 l 133 1305 l 134 1303 l 134 1312 l 144 1306 l 144 1313 l 161 1305 z "},"":{"ha":572,"x_min":27,"x_max":529,"o":"m 42 1226 l 42 1240 l 56 1240 l 56 1255 l 100 1255 l 100 1268 l 132 1268 l 132 1255 l 175 1255 l 175 1240 l 190 1240 l 190 1226 l 202 1226 l 202 1082 l 190 1082 l 190 1054 l 175 1054 l 175 1040 l 132 1040 l 132 1025 l 100 1025 l 100 1040 l 56 1040 l 56 1070 l 42 1070 l 42 1082 l 27 1082 l 27 1226 l 42 1226 m 369 1213 l 369 1240 l 397 1240 l 397 1255 l 426 1255 l 426 1268 l 457 1268 l 457 1255 l 500 1255 l 500 1240 l 515 1240 l 515 1226 l 529 1226 l 529 1070 l 515 1070 l 515 1054 l 500 1054 l 500 1040 l 487 1040 l 487 1025 l 411 1025 l 411 1040 l 381 1040 l 381 1070 l 369 1070 l 369 1112 l 354 1112 l 354 1213 l 369 1213 z "},".":{"ha":320,"x_min":23,"x_max":288,"o":"m 83 176 l 140 176 l 140 193 l 171 193 l 171 176 l 228 176 l 228 163 l 244 163 l 244 146 l 258 146 l 258 119 l 273 119 l 273 90 l 288 90 l 288 19 l 273 19 l 273 -23 l 258 -23 l 258 -38 l 244 -38 l 244 -52 l 228 -52 l 228 -66 l 216 -66 l 216 -80 l 201 -80 l 201 -96 l 140 -96 l 140 -80 l 98 -80 l 98 -66 l 69 -66 l 69 -52 l 53 -52 l 53 -38 l 39 -38 l 39 -9 l 23 -9 l 23 76 l 39 76 l 39 134 l 53 134 l 53 146 l 69 146 l 69 163 l 83 163 l 83 176 z "},":":{"ha":258,"x_min":23,"x_max":228,"o":"m 53 159 l 79 159 l 79 174 l 141 174 l 141 159 l 183 159 l 183 146 l 212 146 l 212 117 l 228 117 l 228 3 l 212 3 l 212 -11 l 198 -11 l 198 -27 l 183 -27 l 183 -39 l 65 -39 l 65 -27 l 53 -27 l 53 -11 l 37 -11 l 37 31 l 23 31 l 23 102 l 37 102 l 37 130 l 53 130 l 53 159 m 53 562 l 65 562 l 65 576 l 170 576 l 170 562 l 183 562 l 183 548 l 212 548 l 212 505 l 228 505 l 228 434 l 212 434 l 212 392 l 198 392 l 198 376 l 170 376 l 170 362 l 65 362 l 65 376 l 53 376 l 53 392 l 37 392 l 37 434 l 23 434 l 23 505 l 37 505 l 37 548 l 53 548 l 53 562 z "},",":{"ha":288,"x_min":23,"x_max":256,"o":"m 94 176 l 123 176 l 123 193 l 183 193 l 183 176 l 198 176 l 198 163 l 228 163 l 228 146 l 241 146 l 241 119 l 256 119 l 256 -96 l 241 -96 l 241 -125 l 228 -125 l 228 -138 l 213 -138 l 213 -153 l 198 -153 l 198 -168 l 183 -168 l 183 -183 l 171 -183 l 171 -195 l 155 -195 l 155 -210 l 141 -210 l 141 -225 l 126 -225 l 126 -239 l 99 -239 l 99 -255 l 65 -255 l 65 -239 l 37 -239 l 37 -210 l 23 -210 l 23 -140 l 37 -140 l 37 -111 l 52 -111 l 52 -98 l 65 -98 l 65 -69 l 81 -69 l 81 -54 l 94 -54 l 94 -39 l 107 -39 l 107 -38 l 94 -38 l 94 -23 l 81 -23 l 81 -9 l 65 -9 l 65 34 l 52 34 l 52 119 l 65 119 l 65 163 l 94 163 l 94 176 z "},";":{"ha":313,"x_min":22,"x_max":289,"o":"m 104 174 q 112 173 109 174 q 118 172 115 172 q 119 174 119 172 q 119 190 119 175 l 157 190 l 152 182 q 159 190 159 189 q 161 191 160 191 q 176 174 174 191 q 189 172 182 174 q 203 166 197 171 q 215 153 210 161 q 220 129 220 144 q 225 155 225 144 l 233 140 l 233 144 q 235 144 235 144 q 236 145 235 145 q 248 133 245 141 q 250 115 251 125 q 262 125 252 115 l 262 35 q 271 45 267 41 q 277 53 274 49 l 277 34 q 276 6 277 23 q 278 -14 275 -11 q 273 -57 278 -50 q 260 -64 269 -64 q 250 -77 256 -75 q 247 -98 250 -88 q 233 -107 244 -107 q 221 -122 231 -121 l 221 -138 q 208 -149 210 -146 q 203 -151 205 -151 q 190 -165 202 -164 q 179 -180 187 -180 l 172 -179 l 179 -170 q 171 -180 174 -175 q 161 -190 168 -184 l 161 -197 q 151 -208 153 -206 q 145 -209 148 -209 l 144 -209 q 134 -221 138 -220 q 125 -222 130 -222 q 106 -239 125 -239 l 99 -239 q 96 -238 96 -239 q 94 -237 95 -237 l 90 -237 q 75 -235 83 -239 q 64 -208 66 -231 q 57 -220 61 -218 q 49 -222 53 -222 l 49 -189 q 50 -174 49 -182 q 47 -163 50 -165 q 57 -118 47 -127 q 60 -102 54 -103 q 76 -102 65 -102 l 77 -102 q 91 -83 80 -83 l 92 -83 q 98 -73 95 -75 q 107 -72 100 -72 l 107 -68 q 115 -58 110 -64 q 119 -84 114 -64 l 119 -61 l 119 -57 q 121 -56 121 -57 q 122 -56 121 -56 l 119 -56 q 121 -38 119 -42 l 121 -35 q 113 -31 115 -34 q 107 -19 110 -28 l 107 -23 q 95 -19 100 -23 q 90 9 90 -15 l 90 20 q 85 -3 87 0 q 77 -7 84 -7 l 77 57 l 80 75 q 62 50 68 60 q 61 69 61 56 q 66 96 61 90 q 77 102 71 102 l 77 123 q 80 148 77 134 q 91 161 83 161 q 93 155 94 159 q 91 146 92 151 q 96 165 94 157 q 104 174 98 174 m 277 73 q 284 71 279 73 q 277 53 289 68 l 277 73 m 119 -56 l 119 -57 l 115 -58 q 119 -56 115 -56 m 218 160 q 225 155 224 159 l 218 160 m 252 113 q 250 114 251 114 q 252 113 252 113 m 87 578 q 100 597 88 593 l 100 609 l 157 609 l 151 601 q 158 609 157 608 q 160 610 159 610 q 175 595 172 610 l 193 595 q 203 594 198 595 q 212 582 209 593 q 218 578 216 581 q 224 567 221 575 l 237 560 q 248 553 237 553 l 248 476 q 249 451 248 464 q 250 426 250 438 q 248 402 250 410 q 245 393 247 395 q 240 392 243 391 q 235 393 237 393 q 225 377 231 377 q 220 367 224 369 q 210 365 217 365 q 203 351 210 351 q 201 357 201 351 l 201 338 q 187 337 195 338 q 174 336 179 336 l 153 336 l 152 336 q 142 325 149 327 q 129 326 136 323 l 125 326 q 113 324 115 326 q 100 340 102 324 q 96 336 98 336 l 91 338 l 98 346 q 85 339 88 335 q 79 351 81 343 q 65 365 68 351 q 55 372 60 366 q 49 395 50 377 q 42 403 45 396 q 39 431 39 410 l 39 442 q 35 426 37 431 q 26 420 33 420 l 26 457 q 24 467 24 461 q 24 477 24 472 q 31 506 24 496 q 22 526 23 517 q 26 541 22 534 q 39 551 31 547 q 53 555 46 555 q 62 567 56 566 q 72 567 68 568 q 81 574 77 572 q 87 578 84 576 m 224 537 q 227 555 227 547 q 224 566 228 563 q 224 559 224 563 q 225 551 225 555 q 224 544 225 549 q 224 537 224 538 m 76 366 q 77 354 76 357 q 77 360 77 357 q 76 366 76 363 m 225 400 l 225 403 l 225 397 l 225 400 z "},"":{"ha":578,"x_min":27,"x_max":534,"o":"m 214 -90 l 214 -77 l 156 -77 l 156 -61 l 142 -61 l 142 -47 l 114 -47 l 114 -33 l 99 -33 l 99 -18 l 85 -18 l 85 -5 l 69 -5 l 69 11 l 56 11 l 56 24 l 41 24 l 41 68 l 27 68 l 27 240 l 41 240 l 41 282 l 56 282 l 56 312 l 69 312 l 69 340 l 85 340 l 85 354 l 99 354 l 99 370 l 114 370 l 114 382 l 127 382 l 127 397 l 142 397 l 142 412 l 156 412 l 156 427 l 170 427 l 170 457 l 184 457 l 184 469 l 199 469 l 199 484 l 214 484 l 214 511 l 227 511 l 227 541 l 243 541 l 243 644 l 256 644 l 256 656 l 347 656 l 347 644 l 361 644 l 361 500 l 347 500 l 347 456 l 332 456 l 332 427 l 319 427 l 319 414 l 304 414 l 304 385 l 290 385 l 290 355 l 260 355 l 260 327 l 245 327 l 245 313 l 232 313 l 232 298 l 217 298 l 217 269 l 202 269 l 202 240 l 187 240 l 187 212 l 175 212 l 175 153 l 187 153 l 187 109 l 202 109 l 202 80 l 232 80 l 232 66 l 343 66 l 343 80 l 359 80 l 359 96 l 372 96 l 372 125 l 385 125 l 385 240 l 401 240 l 401 254 l 414 254 l 414 267 l 506 267 l 506 254 l 518 254 l 518 240 l 534 240 l 534 81 l 518 81 l 518 68 l 506 68 l 506 39 l 491 39 l 491 11 l 476 11 l 476 -5 l 461 -5 l 461 -33 l 431 -33 l 431 -47 l 404 -47 l 404 -61 l 389 -61 l 389 -77 l 347 -77 l 347 -90 l 214 -90 m 243 688 l 243 701 l 214 701 l 214 716 l 184 716 l 184 745 l 170 745 l 170 774 l 156 774 l 156 872 l 170 872 l 170 902 l 184 902 l 184 930 l 214 930 l 214 944 l 361 944 l 361 930 l 377 930 l 377 916 l 389 916 l 389 758 l 377 758 l 377 745 l 361 745 l 361 716 l 332 716 l 332 701 l 304 701 l 304 688 l 243 688 z "},"?":{"ha":578,"x_min":27,"x_max":534,"o":"m 347 1042 l 347 1028 l 404 1028 l 404 1012 l 419 1012 l 419 1000 l 448 1000 l 448 983 l 463 983 l 463 970 l 476 970 l 476 958 l 492 958 l 492 941 l 506 941 l 506 928 l 521 928 l 521 883 l 534 883 l 534 712 l 521 712 l 521 669 l 506 669 l 506 640 l 492 640 l 492 612 l 476 612 l 476 598 l 463 598 l 463 582 l 448 582 l 448 570 l 434 570 l 434 553 l 419 553 l 419 540 l 404 540 l 404 525 l 392 525 l 392 495 l 377 495 l 377 483 l 362 483 l 362 468 l 347 468 l 347 441 l 335 441 l 335 411 l 319 411 l 319 308 l 305 308 l 305 296 l 214 296 l 214 308 l 201 308 l 201 452 l 214 452 l 214 496 l 229 496 l 229 525 l 243 525 l 243 538 l 258 538 l 258 567 l 271 567 l 271 597 l 301 597 l 301 625 l 316 625 l 316 639 l 330 639 l 330 654 l 345 654 l 345 684 l 359 684 l 359 712 l 374 712 l 374 741 l 387 741 l 387 799 l 374 799 l 374 842 l 359 842 l 359 871 l 330 871 l 330 886 l 218 886 l 218 871 l 202 871 l 202 856 l 190 856 l 190 826 l 176 826 l 176 712 l 160 712 l 160 699 l 148 699 l 148 685 l 56 685 l 56 699 l 43 699 l 43 712 l 27 712 l 27 869 l 43 869 l 43 883 l 56 883 l 56 913 l 71 913 l 71 941 l 85 941 l 85 958 l 100 958 l 100 983 l 130 983 l 130 1000 l 157 1000 l 157 1012 l 172 1012 l 172 1028 l 214 1028 l 214 1042 l 347 1042 m 319 264 l 319 251 l 347 251 l 347 236 l 377 236 l 377 208 l 392 208 l 392 178 l 404 178 l 404 79 l 392 79 l 392 50 l 377 50 l 377 22 l 347 22 l 347 8 l 201 8 l 201 22 l 184 22 l 184 37 l 172 37 l 172 193 l 184 193 l 184 208 l 201 208 l 201 236 l 229 236 l 229 251 l 258 251 l 258 264 l 319 264 z "},"(":{"ha":518,"x_min":27,"x_max":477,"o":"m 358 1072 l 372 1072 l 372 1085 l 448 1085 l 448 1072 l 463 1072 l 463 1055 l 477 1055 l 477 958 l 463 958 l 463 929 l 434 929 l 434 916 l 418 916 l 418 899 l 406 899 l 406 886 l 389 886 l 389 869 l 376 869 l 376 857 l 361 857 l 361 842 l 347 842 l 347 827 l 334 827 l 334 812 l 319 812 l 319 800 l 305 800 l 305 770 l 290 770 l 290 755 l 277 755 l 277 726 l 260 726 l 260 699 l 247 699 l 247 670 l 231 670 l 231 642 l 218 642 l 218 583 l 203 583 l 203 510 l 189 510 l 189 336 l 203 336 l 203 266 l 218 266 l 218 237 l 231 237 l 231 193 l 247 193 l 247 164 l 260 164 l 260 134 l 277 134 l 277 122 l 290 122 l 290 92 l 305 92 l 305 79 l 319 79 l 319 62 l 334 62 l 334 34 l 347 34 l 347 20 l 361 20 l 361 5 l 376 5 l 376 -8 l 406 -8 l 406 -23 l 418 -23 l 418 -37 l 434 -37 l 434 -66 l 448 -66 l 448 -81 l 463 -81 l 463 -193 l 434 -193 l 434 -209 l 372 -209 l 372 -193 l 358 -193 l 358 -180 l 343 -180 l 343 -165 l 330 -165 l 330 -151 l 316 -151 l 316 -138 l 300 -138 l 300 -123 l 288 -123 l 288 -109 l 273 -109 l 273 -94 l 258 -94 l 258 -79 l 243 -79 l 243 -64 l 229 -64 l 229 -52 l 213 -52 l 213 -35 l 201 -35 l 201 -22 l 186 -22 l 186 7 l 171 7 l 171 22 l 156 22 l 156 52 l 142 52 l 142 79 l 127 79 l 127 94 l 114 94 l 114 107 l 100 107 l 100 136 l 85 136 l 85 180 l 72 180 l 72 237 l 56 237 l 56 267 l 42 267 l 42 410 l 27 410 l 27 510 l 42 510 l 42 610 l 56 610 l 56 667 l 72 667 l 72 712 l 85 712 l 85 727 l 100 727 l 100 769 l 114 769 l 114 781 l 127 781 l 127 811 l 142 811 l 142 841 l 156 841 l 156 856 l 171 856 l 171 869 l 186 869 l 186 884 l 201 884 l 201 898 l 213 898 l 213 926 l 229 926 l 229 941 l 243 941 l 243 956 l 258 956 l 258 971 l 273 971 l 273 985 l 288 985 l 288 998 l 300 998 l 300 1028 l 316 1028 l 316 1043 l 330 1043 l 330 1055 l 358 1055 l 358 1072 z "},")":{"ha":502,"x_min":26,"x_max":461,"o":"m 26 1085 l 39 1085 l 39 1100 l 114 1100 l 114 1085 l 130 1085 l 130 1072 l 144 1072 l 144 1055 l 159 1055 l 159 1043 l 174 1043 l 174 1028 l 189 1028 l 189 1013 l 217 1013 l 217 985 l 231 985 l 231 971 l 247 971 l 247 956 l 259 956 l 259 941 l 273 941 l 273 926 l 289 926 l 289 914 l 301 914 l 301 884 l 317 884 l 317 869 l 331 869 l 331 856 l 346 856 l 346 826 l 361 826 l 361 811 l 376 811 l 376 781 l 388 781 l 388 755 l 404 755 l 404 739 l 418 739 l 418 712 l 433 712 l 433 654 l 446 654 l 446 567 l 461 567 l 461 267 l 446 267 l 446 222 l 433 222 l 433 194 l 418 194 l 418 151 l 404 151 l 404 123 l 388 123 l 388 94 l 376 94 l 376 79 l 361 79 l 361 52 l 346 52 l 346 35 l 331 35 l 331 7 l 317 7 l 317 -7 l 301 -7 l 301 -22 l 289 -22 l 289 -35 l 273 -35 l 273 -52 l 259 -52 l 259 -64 l 247 -64 l 247 -79 l 231 -79 l 231 -94 l 217 -94 l 217 -109 l 202 -109 l 202 -123 l 189 -123 l 189 -138 l 174 -138 l 174 -151 l 159 -151 l 159 -180 l 144 -180 l 144 -193 l 102 -193 l 102 -209 l 54 -209 l 54 -193 l 39 -193 l 39 -165 l 26 -165 l 26 -95 l 39 -95 l 39 -66 l 54 -66 l 54 -53 l 69 -53 l 69 -37 l 84 -37 l 84 -23 l 113 -23 l 113 -8 l 126 -8 l 126 5 l 141 5 l 141 34 l 156 34 l 156 50 l 171 50 l 171 62 l 183 62 l 183 92 l 199 92 l 199 107 l 213 107 l 213 122 l 228 122 l 228 149 l 241 149 l 241 179 l 255 179 l 255 208 l 271 208 l 271 237 l 283 237 l 283 294 l 298 294 l 298 350 l 313 350 l 313 526 l 298 526 l 298 568 l 283 568 l 283 625 l 271 625 l 271 655 l 255 655 l 255 699 l 241 699 l 241 726 l 228 726 l 228 755 l 213 755 l 213 770 l 199 770 l 199 800 l 183 800 l 183 812 l 171 812 l 171 827 l 156 827 l 156 842 l 141 842 l 141 857 l 126 857 l 126 886 l 113 886 l 113 899 l 84 899 l 84 916 l 69 916 l 69 929 l 54 929 l 54 941 l 39 941 l 39 958 l 26 958 l 26 1085 z "},"@":{"ha":914,"x_min":33,"x_max":856,"o":"m 678 538 l 666 538 l 666 553 l 651 553 l 651 568 l 636 568 l 636 583 l 624 583 l 624 598 l 579 598 l 579 612 l 555 612 l 555 598 l 510 598 l 510 583 l 496 583 l 496 568 l 467 568 l 467 553 l 454 553 l 454 538 l 439 538 l 439 526 l 425 526 l 425 496 l 410 496 l 410 454 l 397 454 l 397 408 l 410 408 l 410 366 l 425 366 l 425 336 l 439 336 l 439 324 l 454 324 l 454 308 l 467 308 l 467 294 l 579 294 l 579 308 l 608 308 l 608 324 l 636 324 l 636 350 l 651 350 l 651 366 l 666 366 l 666 438 l 678 438 l 678 538 m 693 510 l 693 496 l 703 525 l 678 525 l 678 510 l 693 510 m 674 553 l 666 582 l 666 553 l 674 553 m 661 568 l 651 597 l 651 568 l 661 568 m 646 583 l 636 612 l 636 583 l 646 583 m 632 598 l 624 625 l 624 598 l 632 598 m 467 266 l 467 294 l 458 294 l 467 266 m 439 296 l 439 324 l 430 324 l 439 296 m 454 281 l 454 308 l 445 308 l 454 281 m 587 612 l 579 640 l 579 612 l 587 612 m 350 1055 l 407 1055 l 407 1072 l 481 1072 l 481 1055 l 612 1055 l 612 1043 l 654 1043 l 654 1028 l 684 1028 l 684 1013 l 696 1013 l 696 998 l 712 998 l 712 985 l 741 985 l 741 971 l 755 971 l 755 956 l 770 956 l 770 926 l 783 926 l 783 914 l 799 914 l 799 869 l 812 869 l 812 826 l 827 826 l 827 739 l 841 739 l 841 670 l 827 670 l 827 598 l 812 598 l 812 526 l 799 526 l 799 483 l 783 483 l 783 410 l 770 410 l 770 350 l 783 350 l 783 324 l 812 324 l 812 308 l 841 308 l 841 294 l 856 294 l 856 180 l 827 180 l 827 165 l 736 165 l 736 180 l 708 180 l 708 194 l 693 194 l 693 210 l 669 210 l 669 194 l 654 194 l 654 180 l 612 180 l 612 165 l 597 165 l 597 151 l 464 151 l 464 165 l 420 165 l 420 180 l 392 180 l 392 194 l 378 194 l 378 210 l 363 210 l 363 222 l 350 222 l 350 237 l 334 237 l 334 252 l 320 252 l 320 281 l 305 281 l 305 351 l 292 351 l 292 453 l 305 453 l 305 525 l 320 525 l 320 582 l 334 582 l 334 610 l 350 610 l 350 640 l 363 640 l 363 654 l 378 654 l 378 667 l 392 667 l 392 682 l 407 682 l 407 697 l 420 697 l 420 712 l 464 712 l 464 727 l 507 727 l 507 739 l 612 739 l 612 727 l 669 727 l 669 712 l 708 712 l 708 800 l 693 800 l 693 827 l 678 827 l 678 842 l 666 842 l 666 857 l 651 857 l 651 869 l 636 869 l 636 886 l 608 886 l 608 899 l 566 899 l 566 916 l 521 916 l 521 929 l 425 929 l 425 916 l 368 916 l 368 899 l 338 899 l 338 886 l 309 886 l 309 869 l 294 869 l 294 857 l 281 857 l 281 842 l 264 842 l 264 827 l 252 827 l 252 812 l 239 812 l 239 800 l 222 800 l 222 770 l 210 770 l 210 741 l 195 741 l 195 712 l 180 712 l 180 684 l 165 684 l 165 655 l 151 655 l 151 598 l 136 598 l 136 425 l 123 425 l 123 380 l 136 380 l 136 294 l 151 294 l 151 237 l 165 237 l 165 179 l 180 179 l 180 149 l 195 149 l 195 122 l 210 122 l 210 107 l 222 107 l 222 79 l 239 79 l 239 62 l 252 62 l 252 50 l 264 50 l 264 34 l 281 34 l 281 20 l 294 20 l 294 5 l 323 5 l 323 -8 l 338 -8 l 338 -23 l 353 -23 l 353 -37 l 381 -37 l 381 -53 l 410 -53 l 410 -66 l 454 -66 l 454 -81 l 770 -81 l 770 -193 l 755 -193 l 755 -209 l 696 -209 l 696 -222 l 583 -222 l 583 -237 l 536 -237 l 536 -222 l 449 -222 l 449 -209 l 392 -209 l 392 -193 l 350 -193 l 350 -180 l 320 -180 l 320 -165 l 305 -165 l 305 -151 l 277 -151 l 277 -138 l 262 -138 l 262 -123 l 235 -123 l 235 -109 l 220 -109 l 220 -94 l 205 -94 l 205 -79 l 193 -79 l 193 -64 l 176 -64 l 176 -52 l 163 -52 l 163 -35 l 148 -35 l 148 -22 l 133 -22 l 133 7 l 118 7 l 118 22 l 104 22 l 104 52 l 90 52 l 90 94 l 76 94 l 76 123 l 60 123 l 60 194 l 47 194 l 47 281 l 33 281 l 33 624 l 47 624 l 47 682 l 60 682 l 60 739 l 76 739 l 76 769 l 90 769 l 90 811 l 104 811 l 104 841 l 118 841 l 118 869 l 133 869 l 133 884 l 148 884 l 148 898 l 163 898 l 163 926 l 176 926 l 176 941 l 193 941 l 193 956 l 205 956 l 205 971 l 220 971 l 220 985 l 235 985 l 235 998 l 262 998 l 262 1013 l 277 1013 l 277 1028 l 305 1028 l 305 1043 l 350 1043 l 350 1055 z "},"#":{"ha":898,"x_min":33,"x_max":841,"o":"m 623 1043 l 650 1043 l 650 1055 l 684 1055 l 684 1043 l 696 1043 l 696 1028 l 711 1028 l 711 998 l 726 998 l 726 929 l 711 929 l 711 857 l 696 857 l 696 827 l 684 827 l 684 770 l 667 770 l 667 699 l 654 699 l 654 640 l 799 640 l 799 624 l 827 624 l 827 610 l 841 610 l 841 510 l 827 510 l 827 496 l 741 496 l 741 483 l 708 483 l 708 496 l 667 496 l 667 483 l 612 483 l 612 468 l 597 468 l 597 410 l 583 410 l 583 380 l 612 380 l 612 366 l 755 366 l 755 350 l 770 350 l 770 336 l 783 336 l 783 252 l 770 252 l 770 237 l 741 237 l 741 222 l 583 222 l 583 210 l 553 210 l 553 165 l 538 165 l 538 123 l 525 123 l 525 35 l 509 35 l 509 -64 l 496 -64 l 496 -109 l 481 -109 l 481 -151 l 467 -151 l 467 -180 l 452 -180 l 452 -193 l 392 -193 l 392 -180 l 378 -180 l 378 -37 l 392 -37 l 392 20 l 407 20 l 407 92 l 420 92 l 420 134 l 434 134 l 434 208 l 449 208 l 449 251 l 463 251 l 463 324 l 479 324 l 479 396 l 491 396 l 491 453 l 507 453 l 507 525 l 521 525 l 521 595 l 536 595 l 536 654 l 551 654 l 551 739 l 566 739 l 566 811 l 578 811 l 578 884 l 594 884 l 594 971 l 608 971 l 608 1028 l 623 1028 l 623 1043 m 392 1028 l 420 1028 l 420 1043 l 481 1043 l 481 1028 l 496 1028 l 496 886 l 481 886 l 481 827 l 467 827 l 467 784 l 452 784 l 452 726 l 439 726 l 439 655 l 425 655 l 425 568 l 410 568 l 410 526 l 396 526 l 396 468 l 381 468 l 381 396 l 368 396 l 368 324 l 351 324 l 351 267 l 338 267 l 338 210 l 323 210 l 323 136 l 309 136 l 309 79 l 294 79 l 294 -7 l 281 -7 l 281 -94 l 264 -94 l 264 -151 l 252 -151 l 252 -180 l 236 -180 l 236 -193 l 222 -193 l 222 -209 l 191 -209 l 191 -193 l 163 -193 l 163 -165 l 146 -165 l 146 -66 l 163 -66 l 163 -8 l 176 -8 l 176 62 l 191 62 l 191 107 l 205 107 l 205 164 l 218 164 l 218 208 l 235 208 l 235 210 l 218 210 l 218 222 l 47 222 l 47 237 l 33 237 l 33 350 l 47 350 l 47 366 l 235 366 l 235 380 l 262 380 l 262 438 l 277 438 l 277 481 l 292 481 l 292 483 l 235 483 l 235 496 l 104 496 l 104 510 l 90 510 l 90 624 l 104 624 l 104 640 l 304 640 l 304 654 l 320 654 l 320 712 l 334 712 l 334 755 l 349 755 l 349 841 l 363 841 l 363 898 l 378 898 l 378 971 l 392 971 l 392 1028 z "},"$":{"ha":700,"x_min":28,"x_max":651,"o":"m 289 1142 l 301 1142 l 301 1158 l 378 1158 l 378 1142 l 391 1142 l 391 1043 l 407 1043 l 407 1028 l 420 1028 l 420 1013 l 464 1013 l 464 998 l 506 998 l 506 985 l 549 985 l 549 971 l 566 971 l 566 956 l 578 956 l 578 941 l 593 941 l 593 914 l 608 914 l 608 726 l 593 726 l 593 712 l 566 712 l 566 699 l 532 699 l 532 712 l 488 712 l 488 726 l 476 726 l 476 755 l 460 755 l 460 842 l 446 842 l 446 857 l 431 857 l 431 869 l 373 869 l 373 886 l 320 886 l 320 869 l 292 869 l 292 857 l 262 857 l 262 842 l 233 842 l 233 827 l 220 827 l 220 812 l 205 812 l 205 784 l 191 784 l 191 741 l 176 741 l 176 739 l 191 739 l 191 727 l 205 727 l 205 697 l 220 697 l 220 682 l 233 682 l 233 667 l 262 667 l 262 654 l 307 654 l 307 640 l 378 640 l 378 624 l 420 624 l 420 610 l 464 610 l 464 595 l 506 595 l 506 582 l 536 582 l 536 567 l 549 567 l 549 553 l 566 553 l 566 538 l 593 538 l 593 510 l 608 510 l 608 495 l 623 495 l 623 453 l 636 453 l 636 396 l 651 396 l 651 324 l 636 324 l 636 252 l 623 252 l 623 222 l 608 222 l 608 194 l 593 194 l 593 165 l 578 165 l 578 151 l 566 151 l 566 136 l 536 136 l 536 123 l 522 123 l 522 107 l 494 107 l 494 94 l 464 94 l 464 79 l 420 79 l 420 65 l 407 65 l 407 52 l 391 52 l 391 -79 l 378 -79 l 378 -193 l 363 -193 l 363 -222 l 301 -222 l 301 -209 l 289 -209 l 289 -193 l 274 -193 l 274 52 l 244 52 l 244 65 l 186 65 l 186 79 l 115 79 l 115 94 l 87 94 l 87 107 l 57 107 l 57 123 l 45 123 l 45 151 l 28 151 l 28 336 l 45 336 l 45 380 l 73 380 l 73 396 l 104 396 l 104 380 l 133 380 l 133 350 l 146 350 l 146 308 l 163 308 l 163 279 l 176 279 l 176 266 l 191 266 l 191 251 l 205 251 l 205 237 l 220 237 l 220 221 l 250 221 l 250 208 l 389 208 l 389 221 l 418 221 l 418 237 l 446 237 l 446 251 l 460 251 l 460 266 l 476 266 l 476 279 l 488 279 l 488 308 l 503 308 l 503 368 l 488 368 l 488 381 l 476 381 l 476 396 l 460 396 l 460 410 l 446 410 l 446 425 l 418 425 l 418 439 l 373 439 l 373 454 l 331 454 l 331 468 l 289 468 l 289 483 l 232 483 l 232 496 l 202 496 l 202 510 l 174 510 l 174 526 l 144 526 l 144 538 l 129 538 l 129 553 l 115 553 l 115 568 l 99 568 l 99 583 l 87 583 l 87 612 l 73 612 l 73 642 l 57 642 l 57 841 l 73 841 l 73 869 l 87 869 l 87 898 l 99 898 l 99 914 l 115 914 l 115 941 l 129 941 l 129 956 l 159 956 l 159 971 l 174 971 l 174 985 l 202 985 l 202 998 l 232 998 l 232 1013 l 259 1013 l 259 1028 l 274 1028 l 274 1130 l 289 1130 l 289 1142 z "},"%":{"ha":928,"x_min":33,"x_max":869,"o":"m 582 122 l 598 122 l 598 107 l 610 107 l 610 92 l 627 92 l 627 79 l 652 79 l 652 62 l 680 62 l 680 79 l 722 79 l 722 92 l 751 92 l 751 122 l 766 122 l 766 136 l 751 136 l 751 151 l 738 151 l 738 180 l 722 180 l 722 194 l 627 194 l 627 180 l 610 180 l 610 165 l 598 165 l 598 136 l 582 136 l 582 122 m 598 79 l 598 107 l 589 107 l 598 79 m 610 64 l 610 92 l 602 92 l 610 64 m 627 50 l 627 79 l 617 79 l 627 50 m 652 34 l 652 62 l 644 62 l 652 34 m 761 151 l 751 179 l 751 151 l 761 151 m 731 194 l 722 222 l 722 194 l 731 194 m 564 308 l 581 308 l 581 324 l 755 324 l 755 308 l 798 308 l 798 294 l 812 294 l 812 279 l 827 279 l 827 266 l 842 266 l 842 237 l 854 237 l 854 193 l 869 193 l 869 52 l 854 52 l 854 22 l 842 22 l 842 -7 l 827 -7 l 827 -22 l 812 -22 l 812 -35 l 798 -35 l 798 -52 l 769 -52 l 769 -64 l 741 -64 l 741 -79 l 608 -79 l 608 -64 l 581 -64 l 581 -52 l 551 -52 l 551 -35 l 536 -35 l 536 -22 l 521 -22 l 521 7 l 506 7 l 506 35 l 492 35 l 492 221 l 506 221 l 506 251 l 521 251 l 521 279 l 536 279 l 536 294 l 564 294 l 564 308 m 307 899 l 290 899 l 290 916 l 277 916 l 277 929 l 248 929 l 248 941 l 209 941 l 209 929 l 179 929 l 179 916 l 165 916 l 165 899 l 151 899 l 151 869 l 137 869 l 137 869 l 151 869 l 151 841 l 165 841 l 165 826 l 195 826 l 195 811 l 248 811 l 248 826 l 277 826 l 277 841 l 290 841 l 290 856 l 307 856 l 307 899 m 319 857 l 319 856 l 328 884 l 307 884 l 307 857 l 319 857 m 300 916 l 290 943 l 290 916 l 300 916 m 286 929 l 277 958 l 277 929 l 286 929 m 258 941 l 248 970 l 248 941 l 258 941 m 165 799 l 165 826 l 156 826 l 165 799 m 195 783 l 195 811 l 186 811 l 195 783 m 148 1072 l 191 1072 l 191 1085 l 251 1085 l 251 1072 l 324 1072 l 324 1055 l 366 1055 l 366 1043 l 438 1043 l 438 1028 l 481 1028 l 481 1013 l 495 1013 l 495 916 l 481 916 l 481 899 l 425 899 l 425 886 l 411 886 l 411 800 l 396 800 l 396 770 l 381 770 l 381 741 l 366 741 l 366 726 l 353 726 l 353 712 l 336 712 l 336 699 l 309 699 l 309 684 l 279 684 l 279 670 l 161 670 l 161 684 l 132 684 l 132 699 l 104 699 l 104 712 l 90 712 l 90 726 l 75 726 l 75 741 l 62 741 l 62 755 l 46 755 l 46 800 l 33 800 l 33 956 l 46 956 l 46 998 l 62 998 l 62 1013 l 75 1013 l 75 1028 l 90 1028 l 90 1043 l 104 1043 l 104 1055 l 148 1055 l 148 1072 m 608 1055 l 623 1055 l 623 1072 l 697 1072 l 697 1055 l 711 1055 l 711 941 l 697 941 l 697 916 l 682 916 l 682 886 l 669 886 l 669 842 l 652 842 l 652 827 l 640 827 l 640 784 l 627 784 l 627 755 l 610 755 l 610 726 l 598 726 l 598 684 l 582 684 l 582 655 l 568 655 l 568 612 l 553 612 l 553 598 l 538 598 l 538 553 l 524 553 l 524 510 l 511 510 l 511 483 l 495 483 l 495 439 l 481 439 l 481 410 l 467 410 l 467 381 l 453 381 l 453 351 l 438 351 l 438 324 l 425 324 l 425 281 l 411 281 l 411 252 l 396 252 l 396 210 l 381 210 l 381 180 l 366 180 l 366 136 l 353 136 l 353 94 l 336 94 l 336 52 l 324 52 l 324 22 l 309 22 l 309 -22 l 294 -22 l 294 -52 l 279 -52 l 279 -64 l 266 -64 l 266 -79 l 203 -79 l 203 -64 l 191 -64 l 191 92 l 203 92 l 203 122 l 220 122 l 220 149 l 233 149 l 233 164 l 248 164 l 248 221 l 262 221 l 262 251 l 277 251 l 277 279 l 290 279 l 290 308 l 307 308 l 307 350 l 319 350 l 319 380 l 334 380 l 334 423 l 349 423 l 349 453 l 363 453 l 363 495 l 378 495 l 378 525 l 393 525 l 393 553 l 406 553 l 406 582 l 420 582 l 420 610 l 435 610 l 435 654 l 448 654 l 448 682 l 464 682 l 464 727 l 477 727 l 477 769 l 492 769 l 492 781 l 506 781 l 506 826 l 521 826 l 521 856 l 536 856 l 536 884 l 551 884 l 551 914 l 564 914 l 564 956 l 581 956 l 581 998 l 593 998 l 593 1043 l 608 1043 l 608 1055 z "},"&":{"ha":930,"x_min":33,"x_max":872,"o":"m 167 308 l 179 308 l 179 266 l 195 266 l 195 237 l 209 237 l 209 221 l 224 221 l 224 208 l 237 208 l 237 179 l 266 179 l 266 164 l 282 164 l 282 149 l 324 149 l 324 134 l 435 134 l 435 149 l 480 149 l 480 164 l 492 164 l 492 179 l 522 179 l 522 193 l 537 193 l 537 222 l 522 222 l 522 252 l 509 252 l 509 281 l 492 281 l 492 309 l 480 309 l 480 324 l 465 324 l 465 351 l 450 351 l 450 368 l 435 368 l 435 381 l 422 381 l 422 410 l 406 410 l 406 425 l 393 425 l 393 439 l 378 439 l 378 454 l 363 454 l 363 468 l 351 468 l 351 483 l 282 483 l 282 468 l 266 468 l 266 454 l 237 454 l 237 439 l 224 439 l 224 425 l 209 425 l 209 410 l 195 410 l 195 381 l 179 381 l 179 339 l 167 339 l 167 308 m 551 194 l 551 179 l 560 208 l 537 208 l 537 194 l 551 194 m 224 179 l 224 208 l 216 208 l 224 179 m 266 136 l 266 164 l 258 164 l 266 136 m 282 122 l 282 149 l 273 149 l 282 122 m 324 106 l 324 134 l 315 134 l 324 106 m 401 439 l 393 467 l 393 439 l 401 439 m 490 324 l 480 351 l 480 324 l 490 324 m 460 368 l 450 396 l 450 368 l 460 368 m 445 381 l 435 410 l 435 381 l 445 381 m 415 425 l 406 453 l 406 425 l 415 425 m 359 483 l 351 510 l 351 483 l 359 483 m 387 454 l 378 483 l 378 454 l 387 454 m 373 468 l 363 496 l 363 468 l 373 468 m 209 193 l 209 221 l 199 221 l 209 193 m 293 998 l 363 998 l 363 1013 l 453 1013 l 453 998 l 511 998 l 511 985 l 526 985 l 526 971 l 556 971 l 556 941 l 568 941 l 568 827 l 556 827 l 556 812 l 526 812 l 526 800 l 465 800 l 465 812 l 450 812 l 450 827 l 422 827 l 422 842 l 354 842 l 354 827 l 324 827 l 324 812 l 312 812 l 312 800 l 296 800 l 296 769 l 312 769 l 312 739 l 324 739 l 324 727 l 339 727 l 339 697 l 354 697 l 354 682 l 369 682 l 369 667 l 381 667 l 381 654 l 396 654 l 396 640 l 411 640 l 411 624 l 425 624 l 425 610 l 439 610 l 439 595 l 453 595 l 453 582 l 469 582 l 469 553 l 483 553 l 483 538 l 498 538 l 498 525 l 511 525 l 511 510 l 526 510 l 526 481 l 540 481 l 540 465 l 556 465 l 556 453 l 568 453 l 568 438 l 583 438 l 583 408 l 598 408 l 598 380 l 610 380 l 610 366 l 637 366 l 637 481 l 651 481 l 651 510 l 667 510 l 667 525 l 856 525 l 856 381 l 827 381 l 827 368 l 800 368 l 800 351 l 770 351 l 770 339 l 755 339 l 755 294 l 742 294 l 742 252 l 727 252 l 727 222 l 713 222 l 713 194 l 697 194 l 697 179 l 738 179 l 738 193 l 766 193 l 766 208 l 827 208 l 827 193 l 856 193 l 856 164 l 872 164 l 872 94 l 856 94 l 856 35 l 842 35 l 842 22 l 812 22 l 812 7 l 785 7 l 785 -7 l 709 -7 l 709 7 l 667 7 l 667 22 l 651 22 l 651 35 l 637 35 l 637 52 l 583 52 l 583 35 l 556 35 l 556 22 l 526 22 l 526 7 l 498 7 l 498 -7 l 453 -7 l 453 -22 l 278 -22 l 278 -7 l 235 -7 l 235 7 l 206 7 l 206 22 l 176 22 l 176 35 l 149 35 l 149 52 l 134 52 l 134 65 l 119 65 l 119 79 l 107 79 l 107 94 l 91 94 l 91 123 l 77 123 l 77 151 l 62 151 l 62 180 l 47 180 l 47 210 l 33 210 l 33 438 l 47 438 l 47 465 l 62 465 l 62 495 l 77 495 l 77 510 l 91 510 l 91 525 l 107 525 l 107 538 l 119 538 l 119 553 l 134 553 l 134 567 l 161 567 l 161 582 l 191 582 l 191 595 l 220 595 l 220 625 l 206 625 l 206 642 l 191 642 l 191 670 l 176 670 l 176 712 l 161 712 l 161 869 l 176 869 l 176 898 l 191 898 l 191 926 l 206 926 l 206 941 l 220 941 l 220 956 l 248 956 l 248 971 l 264 971 l 264 985 l 293 985 l 293 998 z "},"*":{"ha":884,"x_min":31,"x_max":827,"o":"m 363 1072 l 378 1072 l 378 1085 l 481 1085 l 481 1072 l 510 1072 l 510 1028 l 526 1028 l 526 958 l 510 958 l 510 899 l 496 899 l 496 800 l 481 800 l 481 726 l 468 726 l 468 712 l 453 712 l 453 699 l 420 699 l 420 712 l 391 712 l 391 741 l 378 741 l 378 842 l 363 842 l 363 916 l 349 916 l 349 1055 l 363 1055 l 363 1072 m 334 667 l 396 667 l 396 654 l 410 654 l 410 624 l 423 624 l 423 553 l 410 553 l 410 526 l 396 526 l 396 510 l 381 510 l 381 483 l 368 483 l 368 454 l 351 454 l 351 425 l 339 425 l 339 396 l 323 396 l 323 351 l 309 351 l 309 324 l 281 324 l 281 309 l 205 309 l 205 324 l 176 324 l 176 339 l 163 339 l 163 381 l 146 381 l 146 453 l 163 453 l 163 481 l 176 481 l 176 495 l 189 495 l 189 510 l 205 510 l 205 525 l 218 525 l 218 538 l 233 538 l 233 553 l 248 553 l 248 567 l 263 567 l 263 582 l 277 582 l 277 595 l 292 595 l 292 610 l 305 610 l 305 624 l 321 624 l 321 640 l 334 640 l 334 667 m 47 856 l 61 856 l 61 869 l 164 869 l 164 856 l 194 856 l 194 841 l 222 841 l 222 826 l 252 826 l 252 811 l 281 811 l 281 798 l 294 798 l 294 781 l 339 781 l 339 769 l 368 769 l 368 755 l 381 755 l 381 655 l 368 655 l 368 625 l 321 625 l 321 642 l 263 642 l 263 655 l 146 655 l 146 670 l 90 670 l 90 684 l 47 684 l 47 712 l 31 712 l 31 826 l 47 826 l 47 856 m 680 873 l 694 861 l 694 869 l 783 869 l 783 856 l 798 856 l 798 841 l 812 841 l 812 811 l 827 811 l 827 712 l 812 712 l 812 684 l 798 684 l 798 670 l 697 670 l 697 655 l 625 655 l 625 642 l 568 642 l 568 625 l 538 625 l 538 624 l 553 624 l 553 610 l 568 610 l 568 595 l 583 595 l 583 582 l 595 582 l 595 567 l 612 567 l 612 553 l 625 553 l 625 538 l 639 538 l 639 525 l 655 525 l 655 510 l 667 510 l 667 495 l 684 495 l 684 481 l 697 481 l 697 453 l 712 453 l 712 368 l 697 368 l 697 351 l 684 351 l 684 324 l 655 324 l 655 309 l 578 309 l 578 324 l 566 324 l 566 339 l 549 339 l 549 368 l 536 368 l 536 381 l 521 381 l 521 410 l 507 410 l 507 439 l 492 439 l 492 483 l 479 483 l 479 496 l 463 496 l 463 526 l 450 526 l 450 553 l 435 553 l 435 624 l 450 624 l 450 667 l 479 667 l 479 769 l 521 769 l 521 781 l 578 781 l 578 798 l 594 798 l 594 811 l 621 811 l 621 826 l 650 826 l 650 841 l 680 841 l 680 873 z "},"_":{"ha":1020,"x_min":34,"x_max":958,"o":"m 49 -224 l 77 -224 l 77 -212 l 182 -212 l 182 -224 l 724 -224 l 724 -212 l 785 -212 l 785 -224 l 811 -224 l 811 -212 l 914 -212 l 914 -224 l 943 -224 l 943 -254 l 958 -254 l 958 -368 l 943 -368 l 943 -381 l 193 -381 l 193 -368 l 137 -368 l 137 -381 l 107 -381 l 107 -368 l 49 -368 l 49 -353 l 34 -353 l 34 -239 l 49 -239 l 49 -224 z "},"":{"ha":502,"x_min":26,"x_max":461,"o":"m 317 1040 l 317 1025 l 361 1025 l 361 1012 l 376 1012 l 376 997 l 389 997 l 389 983 l 406 983 l 406 955 l 418 955 l 418 910 l 431 910 l 431 769 l 418 769 l 418 739 l 406 739 l 406 711 l 389 711 l 389 694 l 376 694 l 376 682 l 361 682 l 361 666 l 332 666 l 332 652 l 302 652 l 302 637 l 171 637 l 171 652 l 142 652 l 142 666 l 114 666 l 114 682 l 98 682 l 98 694 l 85 694 l 85 724 l 69 724 l 69 754 l 56 754 l 56 939 l 69 939 l 69 967 l 85 967 l 85 997 l 98 997 l 98 1012 l 127 1012 l 127 1025 l 142 1025 l 142 1040 l 317 1040 m 285 898 l 285 911 l 189 911 l 189 898 l 174 898 l 174 883 l 160 883 l 160 853 l 145 853 l 145 838 l 160 838 l 160 825 l 174 825 l 174 810 l 189 810 l 189 796 l 216 796 l 216 780 l 243 780 l 243 796 l 285 796 l 285 810 l 315 810 l 315 838 l 330 838 l 330 853 l 315 853 l 315 869 l 300 869 l 300 898 l 285 898 m 160 798 l 160 825 l 152 825 l 160 798 m 174 781 l 174 810 l 164 810 l 174 781 m 189 768 l 189 796 l 180 796 l 189 768 m 216 753 l 216 780 l 206 780 l 216 753 m 323 869 l 315 897 l 315 869 l 323 869 m 189 939 l 180 911 l 189 911 l 189 939 m 294 911 l 285 939 l 285 911 l 294 911 m 198 648 l 198 637 l 335 637 l 335 648 l 439 648 l 439 637 l 452 637 l 452 627 l 461 627 l 461 514 l 452 514 l 452 492 l 407 492 l 407 481 l 47 481 l 47 492 l 37 492 l 37 503 l 26 503 l 26 627 l 37 627 l 37 637 l 69 637 l 69 648 l 198 648 z "},"":{"ha":502,"x_min":26,"x_max":461,"o":"m 302 1039 q 321 1029 308 1039 q 339 1006 334 1019 l 331 1025 q 342 1018 335 1025 q 358 1002 350 1010 q 368 1006 363 1006 l 372 991 l 382 991 l 382 879 q 376 848 382 854 l 376 761 l 385 772 q 387 771 387 772 q 388 770 387 770 q 395 769 389 769 l 400 769 q 402 770 401 769 q 406 770 403 770 q 415 764 410 770 q 426 749 420 758 q 435 730 431 739 q 439 715 439 720 q 433 667 439 684 q 403 651 427 651 q 393 655 399 651 q 389 648 391 651 q 385 644 387 646 l 385 639 q 366 638 377 639 q 346 637 354 637 l 317 637 q 298 655 311 637 l 297 670 q 296 650 297 651 q 294 652 296 648 q 291 653 293 652 q 282 654 289 654 l 286 656 q 276 653 279 654 q 271 652 273 652 l 269 652 l 271 658 l 263 650 l 270 639 l 138 639 l 145 646 q 137 638 138 639 q 134 637 136 637 q 117 656 127 637 l 122 646 q 106 651 115 646 q 90 667 96 656 l 92 661 q 79 665 85 661 q 68 680 72 669 l 56 670 l 56 692 q 47 689 47 689 q 47 701 47 693 q 47 718 47 708 q 46 734 46 727 q 46 746 46 742 l 46 777 q 50 791 46 780 q 58 814 53 803 l 42 819 q 78 854 69 846 q 90 863 87 861 l 90 868 l 104 868 l 104 875 l 113 875 l 109 879 q 92 876 100 876 l 92 955 l 92 960 q 87 981 85 972 q 94 995 88 990 q 109 1002 100 1000 q 122 1005 117 1005 l 118 996 q 126 1008 123 1005 q 133 1010 129 1010 q 140 1018 136 1017 q 149 1019 144 1019 l 142 1008 q 159 1025 156 1025 l 165 1028 l 159 1016 q 176 1031 168 1031 q 193 1031 184 1032 q 202 1039 195 1039 l 302 1039 m 191 911 q 190 898 191 902 l 220 898 q 232 905 225 905 q 240 901 235 905 q 250 892 245 897 l 248 897 l 254 897 q 256 897 255 897 q 258 898 256 898 l 260 894 q 262 897 259 897 q 269 901 264 899 q 277 905 274 903 q 281 907 279 907 q 286 909 283 907 l 285 906 l 288 907 l 269 929 l 270 926 q 259 929 267 929 q 244 929 251 929 l 222 926 l 228 935 q 220 925 225 930 q 213 920 214 920 q 209 922 212 920 q 197 914 203 914 q 191 911 194 914 m 198 648 l 198 637 l 335 637 l 335 648 l 439 648 l 439 637 l 452 637 l 452 627 l 461 627 l 461 514 l 452 514 l 452 492 l 407 492 l 407 481 l 47 481 l 47 492 l 37 492 l 37 503 l 26 503 l 26 627 l 37 627 l 37 637 l 69 637 l 69 648 l 198 648 m 209 795 q 205 790 206 792 q 201 785 203 788 q 225 765 210 777 l 155 766 l 159 776 l 153 766 q 156 765 155 765 l 168 754 l 168 757 l 235 757 q 241 760 237 758 q 247 761 244 761 q 248 759 248 760 q 250 758 247 758 q 256 768 252 766 q 262 770 259 770 q 267 776 264 773 q 273 779 270 779 q 282 781 282 779 l 282 802 q 277 789 281 791 q 270 787 273 787 l 203 787 l 209 795 m 190 795 l 190 807 l 187 796 q 180 801 183 800 q 176 799 176 802 l 174 779 q 168 772 168 773 q 171 772 168 772 q 173 771 172 772 q 175 770 174 770 q 187 780 183 770 q 201 785 195 780 q 190 795 193 793 m 149 773 l 149 777 q 151 780 149 779 l 149 773 q 143 777 145 779 q 141 757 141 776 l 140 753 l 148 768 l 146 757 q 149 760 148 758 q 153 766 151 761 l 149 773 m 140 753 q 134 735 137 742 q 138 735 132 728 l 140 753 m 178 728 q 168 754 178 742 l 178 728 m 161 784 l 159 776 l 161 784 z "},"/":{"ha":594,"x_min":27,"x_max":549,"o":"m 430 1082 l 445 1082 l 445 1096 l 521 1096 l 521 1082 l 534 1082 l 534 1067 l 549 1067 l 549 954 l 534 954 l 534 925 l 521 925 l 521 895 l 506 895 l 506 867 l 492 867 l 492 825 l 476 825 l 476 781 l 463 781 l 463 753 l 448 753 l 448 709 l 434 709 l 434 680 l 420 680 l 420 651 l 406 651 l 406 595 l 392 595 l 392 551 l 377 551 l 377 509 l 363 509 l 363 480 l 347 480 l 347 435 l 335 435 l 335 393 l 319 393 l 319 363 l 305 363 l 305 321 l 290 321 l 290 277 l 275 277 l 275 248 l 260 248 l 260 193 l 248 193 l 248 163 l 232 163 l 232 134 l 218 134 l 218 77 l 205 77 l 205 33 l 190 33 l 190 -11 l 176 -11 l 176 -68 l 160 -68 l 160 -126 l 148 -126 l 148 -140 l 133 -140 l 133 -155 l 90 -155 l 90 -170 l 56 -170 l 56 -155 l 43 -155 l 43 -140 l 27 -140 l 27 -41 l 43 -41 l 43 16 l 56 16 l 56 58 l 71 58 l 71 103 l 85 103 l 85 146 l 100 146 l 100 175 l 115 175 l 115 203 l 130 203 l 130 248 l 142 248 l 142 290 l 159 290 l 159 332 l 172 332 l 172 377 l 187 377 l 187 407 l 201 407 l 201 435 l 214 435 l 214 477 l 229 477 l 229 536 l 243 536 l 243 578 l 258 578 l 258 606 l 273 606 l 273 651 l 288 651 l 288 693 l 301 693 l 301 735 l 317 735 l 317 780 l 330 780 l 330 808 l 345 808 l 345 852 l 359 852 l 359 895 l 374 895 l 374 937 l 387 937 l 387 982 l 403 982 l 403 1009 l 416 1009 l 416 1054 l 430 1054 l 430 1082 z "},"=":{"ha":838,"x_min":31,"x_max":784,"o":"m 222 680 l 222 666 l 449 666 l 449 680 l 555 680 l 555 666 l 769 666 l 769 651 l 784 651 l 784 551 l 769 551 l 769 522 l 682 522 l 682 509 l 650 509 l 650 522 l 609 522 l 609 509 l 521 509 l 521 522 l 480 522 l 480 509 l 404 509 l 404 522 l 380 522 l 380 509 l 76 509 l 76 522 l 46 522 l 46 551 l 31 551 l 31 636 l 46 636 l 46 651 l 61 651 l 61 666 l 148 666 l 148 680 l 222 680 m 266 464 l 266 449 l 769 449 l 769 419 l 784 419 l 784 321 l 769 321 l 769 305 l 380 305 l 380 292 l 275 292 l 275 305 l 61 305 l 61 321 l 46 321 l 46 335 l 31 335 l 31 419 l 46 419 l 46 435 l 61 435 l 61 449 l 214 449 l 206 438 l 228 464 l 266 464 z "},"\"":{"ha":534,"x_min":27,"x_max":492,"o":"m 39 1086 l 54 1086 l 54 1099 l 174 1099 l 174 1086 l 202 1086 l 202 1072 l 216 1072 l 216 928 l 202 928 l 202 814 l 187 814 l 187 655 l 174 655 l 174 640 l 159 640 l 159 627 l 98 627 l 98 640 l 83 640 l 83 655 l 69 655 l 69 727 l 54 727 l 54 827 l 39 827 l 39 928 l 27 928 l 27 1072 l 39 1072 l 39 1086 m 317 1101 l 346 1089 l 346 1099 l 449 1099 l 449 1086 l 477 1086 l 477 1072 l 492 1072 l 492 914 l 477 914 l 477 699 l 464 699 l 464 655 l 449 655 l 449 640 l 435 640 l 435 627 l 373 627 l 373 640 l 359 640 l 359 655 l 346 655 l 346 727 l 330 727 l 330 856 l 317 856 l 317 943 l 302 943 l 302 1072 l 317 1072 l 317 1101 z "},"-":{"ha":637,"x_min":28,"x_max":591,"o":"m 42 525 l 84 525 l 84 540 l 247 540 l 247 525 l 431 525 l 431 540 l 562 540 l 562 525 l 578 525 l 578 511 l 591 511 l 591 384 l 578 384 l 578 354 l 519 354 l 519 340 l 58 340 l 58 354 l 42 354 l 42 369 l 28 369 l 28 511 l 42 511 l 42 525 z "},"'":{"ha":271,"x_min":23,"x_max":240,"o":"m 52 1096 l 94 1096 l 94 1112 l 155 1112 l 155 1096 l 198 1096 l 198 1082 l 228 1082 l 228 1054 l 240 1054 l 240 954 l 228 954 l 228 867 l 213 867 l 213 637 l 198 637 l 198 623 l 183 623 l 183 609 l 94 609 l 94 623 l 80 623 l 80 637 l 65 637 l 65 724 l 52 724 l 52 867 l 35 867 l 35 940 l 23 940 l 23 1067 l 35 1067 l 35 1082 l 52 1082 l 52 1096 z "},"+":{"ha":1004,"x_min":34,"x_max":941,"o":"m 435 958 l 465 958 l 465 970 l 511 970 l 511 958 l 525 958 l 525 941 l 540 941 l 540 928 l 553 928 l 553 655 l 540 655 l 540 610 l 553 610 l 553 597 l 568 597 l 568 581 l 914 581 l 914 567 l 926 567 l 926 552 l 941 552 l 941 453 l 926 453 l 926 425 l 869 425 l 869 411 l 838 411 l 838 425 l 784 425 l 784 411 l 751 411 l 751 425 l 582 425 l 582 411 l 553 411 l 553 308 l 540 308 l 540 251 l 553 251 l 553 64 l 540 64 l 540 50 l 525 50 l 525 37 l 495 37 l 495 22 l 465 22 l 465 37 l 435 37 l 435 64 l 420 64 l 420 396 l 407 396 l 407 411 l 349 411 l 349 425 l 46 425 l 46 453 l 34 453 l 34 525 l 46 525 l 46 552 l 61 552 l 61 567 l 149 567 l 149 581 l 308 581 l 308 567 l 335 567 l 335 581 l 420 581 l 420 941 l 435 941 l 435 958 z "},"":{"ha":914,"x_min":33,"x_max":856,"o":"m 693 650 l 722 650 l 722 666 l 811 666 l 811 650 l 827 650 l 827 564 l 811 564 l 811 552 l 798 552 l 798 536 l 769 536 l 769 522 l 739 522 l 739 507 l 712 507 l 712 494 l 682 494 l 682 480 l 654 480 l 654 464 l 624 464 l 624 450 l 595 450 l 595 435 l 568 435 l 568 422 l 540 422 l 540 407 l 525 407 l 525 393 l 483 393 l 483 377 l 453 377 l 453 365 l 423 365 l 423 350 l 396 350 l 396 335 l 380 335 l 380 320 l 353 320 l 353 305 l 324 305 l 324 290 l 281 290 l 281 278 l 251 278 l 251 263 l 221 263 l 221 248 l 194 248 l 194 236 l 179 236 l 179 220 l 151 220 l 151 206 l 122 206 l 122 191 l 94 191 l 94 176 l 61 176 l 61 191 l 46 191 l 46 206 l 33 206 l 33 305 l 46 305 l 46 320 l 61 320 l 61 334 l 91 334 l 91 347 l 119 347 l 119 362 l 161 362 l 161 376 l 191 376 l 191 392 l 218 392 l 218 406 l 233 406 l 233 420 l 262 420 l 262 434 l 307 434 l 307 449 l 335 449 l 335 464 l 349 464 l 349 479 l 377 479 l 377 491 l 435 491 l 435 507 l 449 507 l 449 521 l 465 521 l 465 536 l 492 536 l 492 551 l 522 551 l 522 563 l 551 563 l 551 578 l 578 578 l 578 593 l 606 593 l 606 608 l 636 608 l 636 621 l 665 621 l 665 636 l 693 636 l 693 650 m 119 1053 l 233 1053 l 233 1069 l 353 1069 l 353 1053 l 366 1053 l 366 1010 l 380 1010 l 380 883 l 366 883 l 366 694 l 380 694 l 380 666 l 408 666 l 408 650 l 511 650 l 511 636 l 525 636 l 525 522 l 146 522 l 146 536 l 119 536 l 119 650 l 146 650 l 146 666 l 248 666 l 248 680 l 262 680 l 262 883 l 248 883 l 248 911 l 194 911 l 194 897 l 133 897 l 133 911 l 119 911 l 119 939 l 104 939 l 104 1024 l 119 1024 l 119 1053 m 477 347 l 492 347 l 492 362 l 568 362 l 568 347 l 582 347 l 582 263 l 568 263 l 568 236 l 553 236 l 553 206 l 540 206 l 540 176 l 525 176 l 525 133 l 511 133 l 511 103 l 495 103 l 495 76 l 623 76 l 623 88 l 636 88 l 636 190 l 651 190 l 651 233 l 665 233 l 665 247 l 712 247 l 712 233 l 727 233 l 727 217 l 739 217 l 739 118 l 755 118 l 755 88 l 769 88 l 769 76 l 827 76 l 827 60 l 841 60 l 841 46 l 856 46 l 856 -54 l 841 -54 l 841 -83 l 769 -83 l 769 -96 l 755 -96 l 755 -141 l 739 -141 l 739 -168 l 727 -168 l 727 -183 l 665 -183 l 665 -168 l 651 -168 l 651 -155 l 636 -155 l 636 -111 l 623 -111 l 623 -83 l 391 -83 l 391 -68 l 377 -68 l 377 -54 l 362 -54 l 362 -38 l 349 -38 l 349 88 l 362 88 l 362 132 l 377 132 l 377 146 l 391 146 l 391 175 l 406 175 l 406 205 l 420 205 l 420 247 l 435 247 l 435 262 l 449 262 l 449 305 l 465 305 l 465 334 l 477 334 l 477 347 z "},"":{"ha":852,"x_min":31,"x_max":796,"o":"m 323 1062 l 323 1047 l 338 1047 l 338 1032 l 351 1032 l 351 671 l 381 671 l 381 659 l 480 659 l 480 644 l 495 644 l 495 629 l 510 629 l 510 544 l 495 544 l 495 530 l 118 530 l 118 544 l 104 544 l 104 644 l 132 644 l 132 659 l 233 659 l 233 688 l 247 688 l 247 876 l 233 876 l 233 918 l 194 918 l 194 903 l 118 903 l 118 918 l 104 918 l 104 932 l 88 932 l 88 1032 l 104 1032 l 104 1047 l 189 1047 l 189 1062 l 323 1062 m 783 688 l 783 671 l 796 671 l 796 557 l 769 557 l 769 544 l 754 544 l 754 530 l 712 530 l 712 515 l 682 515 l 682 500 l 654 500 l 654 486 l 625 486 l 625 471 l 595 471 l 595 458 l 567 458 l 567 444 l 538 444 l 538 429 l 510 429 l 510 415 l 480 415 l 480 400 l 452 400 l 452 387 l 438 387 l 438 372 l 408 372 l 408 357 l 381 357 l 381 342 l 338 342 l 338 328 l 323 328 l 323 313 l 293 313 l 293 300 l 251 300 l 251 283 l 222 283 l 222 271 l 194 271 l 194 256 l 179 256 l 179 241 l 149 241 l 149 228 l 122 228 l 122 213 l 107 213 l 107 199 l 46 199 l 46 213 l 31 213 l 31 328 l 46 328 l 46 340 l 75 340 l 75 355 l 118 355 l 118 370 l 146 370 l 146 385 l 160 385 l 160 397 l 203 397 l 203 414 l 233 414 l 233 427 l 263 427 l 263 442 l 275 442 l 275 457 l 320 457 l 320 471 l 347 471 l 347 486 l 376 486 l 376 500 l 391 500 l 391 514 l 420 514 l 420 528 l 450 528 l 450 543 l 463 543 l 463 556 l 492 556 l 492 572 l 519 572 l 519 586 l 549 586 l 549 600 l 578 600 l 578 614 l 621 614 l 621 629 l 650 629 l 650 644 l 665 644 l 665 659 l 694 659 l 694 671 l 707 671 l 707 688 l 783 688 m 625 385 l 625 370 l 667 370 l 667 355 l 697 355 l 697 340 l 712 340 l 712 328 l 724 328 l 724 312 l 741 312 l 741 283 l 754 283 l 754 256 l 769 256 l 769 155 l 754 155 l 754 126 l 741 126 l 741 98 l 724 98 l 724 83 l 712 83 l 712 68 l 682 68 l 682 56 l 667 56 l 667 39 l 639 39 l 639 26 l 625 26 l 625 12 l 581 12 l 581 -3 l 553 -3 l 553 -16 l 538 -16 l 538 -33 l 510 -33 l 510 -34 l 650 -34 l 650 -18 l 678 -18 l 678 -5 l 707 -5 l 707 11 l 769 11 l 769 -5 l 783 -5 l 783 -132 l 769 -132 l 769 -161 l 741 -161 l 741 -176 l 678 -176 l 678 -161 l 581 -161 l 581 -176 l 347 -176 l 347 -161 l 320 -161 l 320 -146 l 305 -146 l 305 -34 l 320 -34 l 320 -5 l 334 -5 l 334 11 l 347 11 l 347 24 l 376 24 l 376 39 l 391 39 l 391 54 l 434 54 l 434 69 l 463 69 l 463 81 l 477 81 l 477 96 l 507 96 l 507 111 l 536 111 l 536 125 l 549 125 l 549 140 l 563 140 l 563 153 l 591 153 l 591 170 l 608 170 l 608 183 l 621 183 l 621 198 l 636 198 l 636 213 l 621 213 l 621 228 l 608 228 l 608 241 l 468 241 l 468 228 l 452 228 l 452 213 l 438 213 l 438 184 l 423 184 l 423 155 l 408 155 l 408 142 l 393 142 l 393 126 l 334 126 l 334 155 l 320 155 l 320 240 l 334 240 l 334 283 l 347 283 l 347 312 l 362 312 l 362 328 l 376 328 l 376 340 l 406 340 l 406 355 l 434 355 l 434 370 l 477 370 l 477 385 l 625 385 z "},"":{"ha":312,"x_min":23,"x_max":278,"o":"m 251 1314 l 231 1294 q 241 1279 239 1289 q 250 1270 245 1276 q 260 1255 254 1263 q 260 1251 260 1253 q 259 1246 259 1249 q 267 1236 263 1242 q 270 1222 270 1229 l 270 1215 q 278 1225 270 1225 l 278 1142 q 277 1126 278 1131 q 275 1118 277 1120 q 273 1116 274 1116 q 270 1114 271 1115 q 268 1096 270 1103 q 259 1086 266 1089 q 250 1069 256 1074 q 244 1068 247 1072 q 240 1062 241 1065 q 228 1047 232 1047 q 225 1048 227 1047 q 220 1038 224 1042 l 241 1017 q 223 1017 236 1017 q 195 1017 210 1017 q 167 1016 180 1016 q 149 1016 153 1016 l 113 1016 q 107 1023 111 1016 q 99 1038 103 1031 l 104 1028 l 99 1028 q 87 1029 91 1028 q 81 1038 84 1031 q 71 1037 76 1038 q 64 1047 66 1036 l 65 1047 l 64 1047 q 62 1062 62 1051 l 62 1050 q 64 1047 62 1047 q 49 1062 50 1047 q 43 1077 43 1067 l 43 1080 q 37 1083 39 1081 q 34 1096 35 1085 q 24 1088 31 1095 q 24 1104 24 1093 q 24 1126 24 1115 q 23 1149 23 1138 q 23 1165 23 1160 l 23 1208 q 25 1235 23 1229 q 33 1244 27 1241 q 43 1263 35 1259 q 47 1276 45 1274 q 53 1280 50 1278 l 58 1290 q 47 1299 53 1294 q 34 1314 41 1305 l 251 1314 m 80 1040 q 81 1038 80 1038 q 81 1044 81 1040 q 80 1051 80 1047 l 80 1040 m 43 1253 l 43 1261 l 43 1253 m 58 1057 q 56 1058 56 1057 q 58 1057 56 1057 m 180 1195 q 178 1198 179 1196 q 175 1203 176 1199 l 121 1203 q 113 1195 119 1198 l 103 1187 q 103 1175 103 1180 q 100 1168 103 1171 q 101 1166 100 1166 q 102 1164 102 1165 q 108 1155 106 1161 q 113 1142 110 1149 q 111 1154 113 1152 l 115 1146 l 117 1146 q 122 1147 121 1146 q 123 1148 123 1147 q 125 1149 123 1149 q 135 1142 133 1149 q 138 1124 137 1135 q 145 1137 138 1137 q 149 1135 148 1137 q 163 1146 156 1145 q 172 1147 170 1147 q 175 1142 175 1147 q 187 1158 182 1158 q 189 1158 189 1158 q 190 1157 189 1157 l 190 1152 q 193 1165 191 1161 q 197 1172 194 1169 l 197 1173 q 186 1177 190 1173 q 180 1195 183 1180 m 98 1165 l 100 1168 l 94 1173 l 94 1165 l 91 1165 l 100 1119 q 104 1128 103 1122 q 104 1142 104 1135 q 102 1164 104 1156 q 100 1164 100 1164 q 98 1165 99 1165 m 180 1203 l 172 1240 l 171 1236 q 172 1214 171 1221 q 175 1203 172 1207 l 180 1203 m 201 1166 l 201 1149 l 209 1177 q 197 1172 199 1177 q 201 1166 199 1168 m 144 1128 q 144 1107 144 1120 q 148 1090 145 1093 l 148 1131 q 149 1135 152 1135 q 144 1128 146 1134 m 190 1123 q 191 1135 191 1122 q 190 1152 191 1149 l 190 1123 m 182 1195 l 182 1217 q 180 1214 180 1215 l 180 1213 l 180 1195 l 182 1195 m 94 1181 q 100 1187 99 1181 l 94 1181 m 122 1135 q 119 1141 121 1138 q 115 1146 118 1143 q 122 1135 115 1142 m 100 1187 l 103 1187 l 103 1194 q 100 1187 103 1187 m 172 1138 l 175 1142 q 172 1138 172 1139 z "},"\\":{"ha":594,"x_min":27,"x_max":549,"o":"m 133 1082 l 148 1082 l 148 1054 l 160 1054 l 160 1009 l 175 1009 l 175 982 l 190 982 l 190 937 l 203 937 l 203 895 l 218 895 l 218 852 l 232 852 l 232 808 l 248 808 l 248 780 l 260 780 l 260 735 l 275 735 l 275 693 l 290 693 l 290 651 l 305 651 l 305 606 l 319 606 l 319 578 l 335 578 l 335 536 l 347 536 l 347 477 l 363 477 l 363 435 l 377 435 l 377 407 l 389 407 l 389 377 l 406 377 l 406 332 l 419 332 l 419 290 l 434 290 l 434 248 l 448 248 l 448 203 l 463 203 l 463 175 l 476 175 l 476 146 l 492 146 l 492 103 l 506 103 l 506 58 l 521 58 l 521 16 l 534 16 l 534 -41 l 549 -41 l 549 -140 l 534 -140 l 534 -155 l 521 -155 l 521 -170 l 488 -170 l 488 -155 l 445 -155 l 445 -140 l 430 -140 l 430 -126 l 416 -126 l 416 -68 l 401 -68 l 401 -11 l 387 -11 l 387 33 l 372 33 l 372 77 l 359 77 l 359 134 l 345 134 l 345 163 l 330 163 l 330 193 l 317 193 l 317 248 l 301 248 l 301 277 l 288 277 l 288 321 l 273 321 l 273 363 l 258 363 l 258 393 l 243 393 l 243 435 l 229 435 l 229 480 l 214 480 l 214 509 l 201 509 l 201 551 l 184 551 l 184 595 l 172 595 l 172 651 l 157 651 l 157 680 l 142 680 l 142 709 l 130 709 l 130 753 l 115 753 l 115 781 l 100 781 l 100 825 l 85 825 l 85 867 l 71 867 l 71 895 l 56 895 l 56 925 l 43 925 l 43 954 l 27 954 l 27 1067 l 43 1067 l 43 1082 l 56 1082 l 56 1096 l 133 1096 l 133 1082 z "},"":{"ha":331,"x_min":9,"x_max":313,"o":"m 161 1305 q 170 1310 164 1308 q 178 1313 176 1313 l 178 1306 l 187 1312 l 187 1303 l 189 1305 l 311 1100 l 301 1096 l 313 1076 l 286 1062 l 286 1055 l 232 1024 l 231 1029 l 229 1034 l 221 1031 l 171 1115 l 179 1119 l 161 1149 q 153 1137 155 1139 q 141 1119 151 1134 q 151 1115 149 1115 l 102 1032 l 94 1034 l 90 1029 l 90 1024 l 35 1055 l 35 1062 l 9 1078 l 20 1096 l 11 1100 l 133 1305 l 134 1303 l 134 1312 l 144 1306 l 144 1313 l 161 1305 z "},"":{"ha":732,"x_min":30,"x_max":682,"o":"m 346 856 l 361 856 l 361 869 l 420 869 l 420 856 l 437 856 l 437 811 l 450 811 l 450 755 l 465 755 l 465 739 l 495 739 l 495 727 l 551 727 l 551 712 l 579 712 l 579 697 l 595 697 l 595 682 l 608 682 l 608 667 l 624 667 l 624 640 l 637 640 l 637 567 l 652 567 l 652 496 l 637 496 l 637 454 l 624 454 l 624 439 l 562 439 l 562 454 l 533 454 l 533 468 l 519 468 l 519 483 l 506 483 l 506 526 l 490 526 l 490 568 l 477 568 l 477 583 l 463 583 l 463 598 l 308 598 l 308 583 l 279 583 l 279 568 l 263 568 l 263 553 l 235 553 l 235 538 l 221 538 l 221 526 l 206 526 l 206 496 l 193 496 l 193 483 l 176 483 l 176 439 l 164 439 l 164 324 l 176 324 l 176 294 l 193 294 l 193 266 l 206 266 l 206 251 l 221 251 l 221 237 l 235 237 l 235 221 l 250 221 l 250 208 l 279 208 l 279 193 l 293 193 l 293 179 l 490 179 l 490 193 l 548 193 l 548 208 l 590 208 l 590 221 l 620 221 l 620 237 l 652 237 l 652 221 l 682 221 l 682 107 l 667 107 l 667 94 l 652 94 l 652 79 l 624 79 l 624 65 l 595 65 l 595 52 l 551 52 l 551 35 l 495 35 l 495 22 l 450 22 l 450 7 l 420 7 l 420 -7 l 408 -7 l 408 -35 l 393 -35 l 393 -151 l 378 -151 l 378 -193 l 363 -193 l 363 -209 l 304 -209 l 304 -193 l 290 -193 l 290 -180 l 275 -180 l 275 -7 l 262 -7 l 262 22 l 217 22 l 217 35 l 189 35 l 189 52 l 159 52 l 159 65 l 146 65 l 146 79 l 130 79 l 130 94 l 117 94 l 117 107 l 102 107 l 102 123 l 88 123 l 88 136 l 75 136 l 75 165 l 58 165 l 58 194 l 45 194 l 45 222 l 30 222 l 30 495 l 45 495 l 45 538 l 58 538 l 58 567 l 75 567 l 75 595 l 88 595 l 88 610 l 102 610 l 102 640 l 117 640 l 117 654 l 130 654 l 130 667 l 159 667 l 159 682 l 174 682 l 174 697 l 189 697 l 189 712 l 217 712 l 217 727 l 275 727 l 275 739 l 304 739 l 304 755 l 317 755 l 317 781 l 332 781 l 332 841 l 346 841 l 346 856 z "},"":{"ha":534,"x_min":27,"x_max":492,"o":"m 39 1086 l 54 1086 l 54 1099 l 174 1099 l 174 1086 l 202 1086 l 202 1072 l 216 1072 l 216 928 l 202 928 l 202 814 l 187 814 l 187 655 l 174 655 l 174 640 l 159 640 l 159 627 l 98 627 l 98 640 l 83 640 l 83 655 l 69 655 l 69 727 l 54 727 l 54 827 l 39 827 l 39 928 l 27 928 l 27 1072 l 39 1072 l 39 1086 m 317 1101 l 346 1089 l 346 1099 l 449 1099 l 449 1086 l 477 1086 l 477 1072 l 492 1072 l 492 914 l 477 914 l 477 699 l 464 699 l 464 655 l 449 655 l 449 640 l 435 640 l 435 627 l 373 627 l 373 640 l 359 640 l 359 655 l 346 655 l 346 727 l 330 727 l 330 856 l 317 856 l 317 943 l 302 943 l 302 1072 l 317 1072 l 317 1101 z "},"":{"ha":271,"x_min":23,"x_max":240,"o":"m 52 1096 l 94 1096 l 94 1112 l 155 1112 l 155 1096 l 198 1096 l 198 1082 l 228 1082 l 228 1054 l 240 1054 l 240 954 l 228 954 l 228 867 l 213 867 l 213 637 l 198 637 l 198 623 l 183 623 l 183 609 l 94 609 l 94 623 l 80 623 l 80 637 l 65 637 l 65 724 l 52 724 l 52 867 l 35 867 l 35 940 l 23 940 l 23 1067 l 35 1067 l 35 1082 l 52 1082 l 52 1096 z "},"":{"ha":312,"x_min":23,"x_max":278,"o":"m 251 1314 l 231 1294 q 241 1279 239 1289 q 250 1270 245 1276 q 260 1255 254 1263 q 260 1251 260 1253 q 259 1246 259 1249 q 267 1236 263 1242 q 270 1222 270 1229 l 270 1215 q 278 1225 270 1225 l 278 1142 q 277 1126 278 1131 q 275 1118 277 1120 q 273 1116 274 1116 q 270 1114 271 1115 q 268 1096 270 1103 q 259 1086 266 1089 q 250 1069 256 1074 q 244 1068 247 1072 q 240 1062 241 1065 q 228 1047 232 1047 q 225 1048 227 1047 q 220 1038 224 1042 l 241 1017 q 223 1017 236 1017 q 195 1017 210 1017 q 167 1016 180 1016 q 149 1016 153 1016 l 113 1016 q 107 1023 111 1016 q 99 1038 103 1031 l 104 1028 l 99 1028 q 87 1029 91 1028 q 81 1038 84 1031 q 71 1037 76 1038 q 64 1047 66 1036 l 65 1047 l 64 1047 q 62 1062 62 1051 l 62 1050 q 64 1047 62 1047 q 49 1062 50 1047 q 43 1077 43 1067 l 43 1080 q 37 1083 39 1081 q 34 1096 35 1085 q 24 1088 31 1095 q 24 1104 24 1093 q 24 1126 24 1115 q 23 1149 23 1138 q 23 1165 23 1160 l 23 1208 q 25 1235 23 1229 q 33 1244 27 1241 q 43 1263 35 1259 q 47 1276 45 1274 q 53 1280 50 1278 l 58 1290 q 47 1299 53 1294 q 34 1314 41 1305 l 251 1314 m 80 1040 q 81 1038 80 1038 q 81 1044 81 1040 q 80 1051 80 1047 l 80 1040 m 43 1253 l 43 1261 l 43 1253 m 58 1057 q 56 1058 56 1057 q 58 1057 56 1057 m 180 1195 q 178 1198 179 1196 q 175 1203 176 1199 l 121 1203 q 113 1195 119 1198 l 103 1187 q 103 1175 103 1180 q 100 1168 103 1171 q 101 1166 100 1166 q 102 1164 102 1165 q 108 1155 106 1161 q 113 1142 110 1149 q 111 1154 113 1152 l 115 1146 l 117 1146 q 122 1147 121 1146 q 123 1148 123 1147 q 125 1149 123 1149 q 135 1142 133 1149 q 138 1124 137 1135 q 145 1137 138 1137 q 149 1135 148 1137 q 163 1146 156 1145 q 172 1147 170 1147 q 175 1142 175 1147 q 187 1158 182 1158 q 189 1158 189 1158 q 190 1157 189 1157 l 190 1152 q 193 1165 191 1161 q 197 1172 194 1169 l 197 1173 q 186 1177 190 1173 q 180 1195 183 1180 m 98 1165 l 100 1168 l 94 1173 l 94 1165 l 91 1165 l 100 1119 q 104 1128 103 1122 q 104 1142 104 1135 q 102 1164 104 1156 q 100 1164 100 1164 q 98 1165 99 1165 m 180 1203 l 172 1240 l 171 1236 q 172 1214 171 1221 q 175 1203 172 1207 l 180 1203 m 201 1166 l 201 1149 l 209 1177 q 197 1172 199 1177 q 201 1166 199 1168 m 144 1128 q 144 1107 144 1120 q 148 1090 145 1093 l 148 1131 q 149 1135 152 1135 q 144 1128 146 1134 m 190 1123 q 191 1135 191 1122 q 190 1152 191 1149 l 190 1123 m 182 1195 l 182 1217 q 180 1214 180 1215 l 180 1213 l 180 1195 l 182 1195 m 94 1181 q 100 1187 99 1181 l 94 1181 m 122 1135 q 119 1141 121 1138 q 115 1146 118 1143 q 122 1135 115 1142 m 100 1187 l 103 1187 l 103 1194 q 100 1187 103 1187 m 172 1138 l 175 1142 q 172 1138 172 1139 z "},"":{"ha":754,"x_min":30,"x_max":703,"o":"m 286 808 l 296 808 l 296 819 l 315 819 l 315 826 l 385 826 l 385 819 l 396 819 l 396 808 l 406 808 l 406 800 l 414 800 l 414 579 l 425 579 l 425 570 l 652 570 l 652 560 l 662 560 l 662 549 l 671 549 l 671 431 l 662 431 l 662 412 l 624 412 l 624 403 l 506 403 l 506 412 l 416 412 l 422 418 q 417 414 419 416 q 414 411 415 412 l 414 172 l 406 172 l 406 164 l 378 164 l 382 170 l 376 163 l 376 146 l 315 146 l 315 155 l 296 155 l 296 172 l 286 172 l 286 395 l 277 395 l 277 403 l 239 403 l 239 412 q 198 414 218 412 q 159 416 178 415 q 106 421 133 418 q 52 425 79 425 l 47 431 l 30 431 l 30 532 l 39 532 l 39 549 l 47 549 l 47 560 l 106 560 l 106 570 l 286 570 l 286 808 m 43 151 l 73 151 l 73 163 l 193 163 l 193 151 l 585 151 l 585 163 l 681 163 l 681 151 l 693 151 l 693 142 l 703 142 l 703 35 l 693 35 l 693 15 l 652 15 l 652 5 l 54 5 l 54 15 l 43 15 l 43 26 l 34 26 l 34 142 l 43 142 l 43 151 z "},"":{"ha":637,"x_min":28,"x_max":591,"o":"m 42 473 l 84 473 l 84 488 l 247 488 l 247 473 l 431 473 l 431 488 l 562 488 l 562 473 l 578 473 l 578 461 l 591 461 l 591 332 l 578 332 l 578 304 l 519 304 l 519 289 l 58 289 l 58 304 l 42 304 l 42 317 l 28 317 l 28 461 l 42 461 l 42 473 m 233 274 l 260 274 l 260 289 l 321 289 l 321 274 l 363 274 l 363 260 l 393 260 l 393 232 l 408 232 l 408 118 l 393 118 l 393 103 l 378 103 l 378 88 l 363 88 l 363 76 l 245 76 l 245 88 l 233 88 l 233 103 l 217 103 l 217 146 l 203 146 l 203 216 l 217 216 l 217 245 l 233 245 l 233 274 m 233 677 l 245 677 l 245 692 l 351 692 l 351 677 l 363 677 l 363 663 l 393 663 l 393 620 l 408 620 l 408 549 l 393 549 l 393 507 l 378 507 l 378 491 l 351 491 l 351 477 l 245 477 l 245 491 l 233 491 l 233 507 l 217 507 l 217 549 l 203 549 l 203 620 l 217 620 l 217 663 l 233 663 l 233 677 z "},"a":{"ha":822,"x_min":35,"x_max":755,"o":"m 484 231 l 499 231 l 499 288 l 484 288 l 484 301 l 307 301 l 307 288 l 262 288 l 262 273 l 235 273 l 235 259 l 208 259 l 208 244 l 193 244 l 193 232 l 180 232 l 180 202 l 165 202 l 165 201 l 180 201 l 180 172 l 208 172 l 208 160 l 235 160 l 235 145 l 387 145 l 387 160 l 415 160 l 415 172 l 442 172 l 442 187 l 471 187 l 471 201 l 484 201 l 484 231 m 316 132 l 309 132 l 319 104 l 319 145 l 316 145 l 316 132 m 208 133 l 208 160 l 198 160 l 208 133 m 235 118 l 235 145 l 227 145 l 235 118 m 492 301 l 484 330 l 484 301 l 492 301 m 245 693 l 316 693 l 316 708 l 530 708 l 530 693 l 557 693 l 557 681 l 586 681 l 586 666 l 601 666 l 601 651 l 614 651 l 614 637 l 631 637 l 631 610 l 643 610 l 643 400 l 631 400 l 631 160 l 666 160 l 666 172 l 727 172 l 727 160 l 741 160 l 741 145 l 755 145 l 755 49 l 741 49 l 741 34 l 684 34 l 684 20 l 643 20 l 643 5 l 528 5 l 528 20 l 513 20 l 513 34 l 484 34 l 484 49 l 473 49 l 473 34 l 433 34 l 433 20 l 374 20 l 374 5 l 163 5 l 163 20 l 133 20 l 133 34 l 106 34 l 106 49 l 77 49 l 77 61 l 62 61 l 62 90 l 50 90 l 50 118 l 35 118 l 35 271 l 50 271 l 50 298 l 62 298 l 62 328 l 77 328 l 77 343 l 91 343 l 91 357 l 118 357 l 118 372 l 148 372 l 148 384 l 175 384 l 175 399 l 217 399 l 217 412 l 274 412 l 274 427 l 358 427 l 358 441 l 391 441 l 391 427 l 442 427 l 442 441 l 484 441 l 484 456 l 499 456 l 499 469 l 513 469 l 513 526 l 499 526 l 499 540 l 484 540 l 484 555 l 471 555 l 471 570 l 442 570 l 442 583 l 347 583 l 347 570 l 319 570 l 319 555 l 292 555 l 292 540 l 278 540 l 278 526 l 262 526 l 262 484 l 250 484 l 250 471 l 235 471 l 235 456 l 148 456 l 148 471 l 133 471 l 133 484 l 118 484 l 118 610 l 133 610 l 133 637 l 163 637 l 163 651 l 190 651 l 190 666 l 217 666 l 217 681 l 245 681 l 245 693 z "},"":{"ha":830,"x_min":26,"x_max":791,"o":"m 26 358 l 31 372 l 31 468 l 26 481 l 335 711 l 339 696 l 377 715 l 391 690 l 395 694 q 397 696 396 696 l 458 593 l 445 586 l 449 575 l 442 570 l 448 556 l 362 507 l 351 519 l 233 419 l 350 320 l 359 334 l 448 282 l 442 269 l 449 264 l 445 254 l 458 247 l 397 144 l 391 148 l 376 125 l 339 144 q 335 129 335 133 l 26 358 m 358 358 l 363 372 l 363 468 l 358 481 l 667 711 l 673 696 l 709 715 l 723 690 l 727 694 q 730 696 728 696 l 791 593 l 777 586 l 783 575 l 774 570 l 780 556 l 696 507 l 684 519 l 566 419 l 682 320 l 693 334 l 780 282 l 774 269 l 783 264 l 777 254 l 791 247 l 730 144 l 723 148 l 708 125 l 673 144 q 667 129 667 130 l 358 358 z "},"":{"ha":830,"x_min":15,"x_max":781,"o":"m 442 468 l 442 372 l 448 358 l 140 129 l 133 144 l 99 125 l 83 149 l 77 144 l 15 247 l 28 254 l 24 264 l 33 269 l 27 282 l 115 334 l 123 320 l 240 419 l 125 519 l 114 506 l 27 556 l 33 570 l 24 575 l 28 586 l 15 593 l 77 696 l 81 690 l 99 715 l 134 696 q 140 711 140 709 l 448 481 l 442 468 m 776 468 l 776 372 l 781 358 l 472 129 l 465 144 l 431 125 l 416 149 l 410 144 l 349 247 l 361 254 l 357 264 l 365 269 l 359 282 l 448 334 l 456 320 l 574 419 l 457 519 l 446 506 l 359 556 l 365 570 l 357 575 l 361 586 l 349 593 l 410 696 l 415 690 l 431 715 l 467 696 q 472 711 472 709 l 781 481 l 776 468 z "},"":{"ha":477,"x_min":11,"x_max":444,"o":"m 438 468 l 438 372 l 444 358 l 134 129 l 127 144 l 94 125 l 79 149 l 72 144 l 11 247 l 23 254 l 19 264 l 27 269 l 22 282 l 110 334 l 118 320 l 236 419 l 119 519 l 109 506 l 22 556 l 27 570 l 19 575 l 23 586 l 11 593 l 72 696 l 77 690 l 94 715 l 129 696 q 134 711 134 709 l 444 481 l 438 468 z "},"":{"ha":477,"x_min":20,"x_max":453,"o":"m 20 358 l 26 372 l 26 468 l 20 481 l 330 711 l 335 696 l 372 715 l 385 690 l 389 694 q 392 696 391 696 l 453 593 l 439 586 l 445 575 l 437 570 l 442 556 l 358 507 l 346 519 l 228 419 l 345 320 l 355 334 l 442 282 l 437 269 l 445 264 l 439 254 l 453 247 l 392 144 l 385 148 l 370 125 l 335 144 q 330 129 330 130 l 20 358 z "},">":{"ha":477,"x_min":11,"x_max":444,"o":"m 438 468 l 438 372 l 444 358 l 134 129 l 127 144 l 94 125 l 79 149 l 72 144 l 11 247 l 23 254 l 19 264 l 27 269 l 22 282 l 110 334 l 118 320 l 236 419 l 119 519 l 109 506 l 22 556 l 27 570 l 19 575 l 23 586 l 11 593 l 72 696 l 77 690 l 94 715 l 129 696 q 134 711 134 709 l 444 481 l 438 468 z "},"<":{"ha":477,"x_min":20,"x_max":453,"o":"m 20 358 l 26 372 l 26 468 l 20 481 l 330 711 l 335 696 l 372 715 l 385 690 l 389 694 q 392 696 391 696 l 453 593 l 439 586 l 445 575 l 437 570 l 442 556 l 358 507 l 346 519 l 228 419 l 345 320 l 355 334 l 442 282 l 437 269 l 445 264 l 439 254 l 453 247 l 392 144 l 385 148 l 370 125 l 335 144 q 330 129 330 130 l 20 358 z "},"":{"ha":1268,"x_min":37,"x_max":1195,"o":"m 534 163 l 549 163 l 549 149 l 560 149 l 560 136 l 574 136 l 574 123 l 598 123 l 598 110 l 621 110 l 621 123 l 659 123 l 659 136 l 685 136 l 685 163 l 699 163 l 699 170 l 685 170 l 685 183 l 671 183 l 671 210 l 659 210 l 659 222 l 574 222 l 574 210 l 555 210 l 549 195 l 549 170 l 534 170 l 534 163 m 549 122 l 549 149 l 540 149 l 549 122 m 560 107 l 560 136 l 552 136 l 560 107 m 574 95 l 574 123 l 564 123 l 574 95 m 598 81 l 598 110 l 589 110 l 598 81 m 693 183 l 685 212 l 685 183 l 693 183 m 681 210 l 671 237 l 671 210 l 681 210 m 667 222 l 659 251 l 659 222 l 667 222 m 517 330 l 532 330 l 532 345 l 689 345 l 689 330 l 728 330 l 728 317 l 742 317 l 742 305 l 755 305 l 755 293 l 769 293 l 769 266 l 780 266 l 780 225 l 792 225 l 792 94 l 777 94 q 777 87 777 91 q 776 80 776 83 l 769 66 l 769 42 l 755 42 l 755 28 l 742 28 l 742 15 l 728 15 l 728 1 l 703 1 l 703 -11 l 677 -11 l 677 -24 l 555 -24 l 555 -11 l 532 -11 l 532 1 l 505 1 l 505 15 l 490 15 l 490 28 l 477 28 l 477 54 l 464 54 l 464 79 l 452 79 l 456 237 l 464 252 l 464 279 l 477 279 l 477 305 l 490 305 l 490 317 l 517 317 l 517 330 m 270 825 l 283 825 l 283 857 l 270 857 l 270 871 l 258 871 l 258 883 l 233 883 l 233 894 l 198 894 l 198 883 l 171 883 l 171 871 l 159 871 l 159 857 l 146 857 l 146 810 l 159 810 l 159 798 l 186 798 l 186 783 l 233 783 l 233 798 l 258 798 l 258 810 l 270 810 l 270 825 m 283 796 l 290 819 l 305 819 l 300 833 l 305 848 l 283 848 l 283 796 m 134 836 l 134 859 l 125 830 l 146 830 l 146 836 l 134 836 m 266 883 l 258 911 l 258 883 l 266 883 m 279 871 l 270 899 l 270 871 l 279 871 m 241 894 l 233 922 l 233 894 l 241 894 m 186 755 l 186 783 l 176 783 l 186 755 m 159 769 l 159 798 l 149 798 l 159 769 m 146 781 l 146 810 l 137 810 l 146 781 m 141 1017 l 180 1017 l 180 1029 l 237 1029 l 237 1017 l 302 1017 l 302 1004 l 340 1004 l 340 991 l 404 991 l 404 978 l 444 978 l 444 964 l 457 964 l 457 871 l 444 871 l 444 857 l 385 857 l 380 845 l 380 768 l 362 768 q 361 761 362 765 q 361 755 361 757 l 354 741 l 354 713 l 340 713 l 340 700 l 328 700 l 328 689 l 313 689 l 313 675 l 288 675 l 288 663 l 262 663 l 262 651 l 153 651 l 153 663 l 127 663 l 127 675 l 102 675 l 102 689 l 90 689 l 90 700 l 76 700 l 76 713 l 64 713 l 64 727 l 50 727 l 50 768 l 37 768 l 37 914 l 50 914 l 50 951 l 68 951 l 76 964 l 76 978 l 90 978 l 90 991 l 102 991 l 102 1004 l 141 1004 l 141 1017 m 555 1004 l 568 1004 l 568 1017 l 639 1017 l 639 1004 l 650 1004 l 644 909 l 639 894 l 639 871 l 624 871 l 624 845 l 612 845 l 612 804 l 591 804 l 586 792 l 586 754 l 574 754 l 574 727 l 556 727 q 555 720 556 724 q 555 713 555 716 l 549 700 l 549 663 l 534 663 l 534 637 l 522 637 l 522 598 l 509 598 l 509 585 l 495 585 l 495 547 l 479 547 q 477 532 477 540 q 476 521 476 525 l 469 507 l 469 481 l 457 481 l 457 442 l 444 442 l 444 416 l 426 416 q 425 404 425 411 l 418 391 l 418 365 l 404 365 l 404 339 l 389 339 q 387 325 388 332 q 387 313 387 317 l 380 300 l 380 274 l 363 274 q 361 261 362 267 q 361 251 361 255 l 354 237 l 354 210 l 340 210 l 340 170 l 328 170 l 328 132 l 311 132 q 309 118 309 125 q 308 107 308 111 l 302 94 l 302 66 l 288 66 l 288 28 l 275 28 l 275 1 l 256 1 l 251 -11 l 251 -24 l 193 -24 l 193 -11 l 180 -11 l 184 122 l 193 136 l 193 163 l 206 163 l 206 189 l 218 189 l 218 201 l 235 201 q 237 221 236 212 q 237 237 237 231 l 244 252 l 244 279 l 258 279 l 258 305 l 270 305 l 270 330 l 286 330 q 287 343 286 335 q 288 354 288 351 l 296 369 l 296 396 l 309 396 l 309 434 l 323 434 l 323 461 l 339 461 q 340 474 339 465 q 340 486 340 483 l 349 499 l 349 525 l 366 525 l 366 536 l 373 551 l 373 576 l 387 576 l 387 602 l 403 602 q 404 616 403 608 q 404 627 404 624 l 412 642 l 412 666 l 426 666 l 426 708 l 439 708 l 439 745 l 457 745 l 464 757 l 464 798 l 477 798 l 477 825 l 490 825 l 490 848 l 505 848 l 505 875 l 517 875 l 517 914 l 533 914 q 534 926 533 918 q 534 937 534 935 l 543 951 l 543 991 l 555 991 l 555 1004 m 939 163 l 952 163 l 952 149 l 963 149 l 963 136 l 977 136 l 977 123 l 1001 123 l 1001 110 l 1024 110 l 1024 123 l 1062 123 l 1062 136 l 1088 136 l 1088 163 l 1101 163 l 1101 170 l 1088 170 l 1088 183 l 1074 183 l 1074 210 l 1062 210 l 1062 222 l 977 222 l 977 210 l 959 210 l 952 195 l 952 170 l 939 170 l 939 163 m 952 122 l 952 149 l 943 149 l 952 122 m 963 107 l 963 136 l 955 136 l 963 107 m 977 95 l 977 123 l 967 123 l 977 95 m 1001 81 l 1001 110 l 991 110 l 1001 81 m 1096 183 l 1088 212 l 1088 183 l 1096 183 m 1084 210 l 1074 237 l 1074 210 l 1084 210 m 1072 222 l 1062 251 l 1062 222 l 1072 222 m 920 330 l 935 330 l 935 345 l 1093 345 l 1093 330 l 1131 330 l 1131 317 l 1145 317 l 1145 305 l 1158 305 l 1158 293 l 1172 293 l 1172 266 l 1184 266 l 1184 225 l 1195 225 l 1195 94 l 1180 94 q 1179 87 1180 91 q 1179 80 1179 83 l 1172 66 l 1172 42 l 1158 42 l 1158 28 l 1145 28 l 1145 15 l 1131 15 l 1131 1 l 1105 1 l 1105 -11 l 1080 -11 l 1080 -24 l 959 -24 l 959 -11 l 935 -11 l 935 1 l 907 1 l 907 15 l 892 15 l 892 28 l 880 28 l 880 54 l 867 54 l 867 79 l 854 79 l 859 237 l 867 252 l 867 279 l 880 279 l 880 305 l 892 305 l 892 317 l 920 317 l 920 330 z "},"":{"ha":838,"x_min":31,"x_max":784,"o":"m 237 477 l 245 477 l 266 477 l 266 463 l 769 463 l 769 433 l 784 433 l 784 103 l 768 103 l 768 88 l 755 88 l 755 75 l 741 75 l 741 58 l 711 58 l 711 45 l 696 45 l 696 33 l 669 33 l 669 16 l 639 16 l 639 3 l 582 3 l 582 -12 l 524 -12 l 524 -26 l 422 -26 l 422 -12 l 349 -12 l 349 3 l 305 3 l 305 16 l 277 16 l 277 33 l 247 33 l 247 45 l 235 45 l 235 58 l 220 58 l 220 75 l 205 75 l 205 88 l 190 88 l 190 103 l 176 103 l 176 132 l 161 132 l 161 146 l 148 146 l 148 161 l 132 161 l 132 203 l 118 203 l 118 233 l 103 233 l 103 275 l 90 275 l 90 319 l 61 319 l 61 334 l 46 334 l 46 349 l 31 349 l 31 433 l 46 433 l 46 448 l 61 448 l 61 463 l 75 463 l 75 496 l 46 496 l 46 525 l 31 525 l 31 610 l 46 610 l 46 625 l 61 625 l 61 640 l 90 640 l 90 663 l 103 663 l 103 707 l 118 707 l 118 750 l 132 750 l 132 779 l 148 779 l 148 807 l 161 807 l 161 822 l 176 822 l 176 849 l 190 849 l 190 865 l 205 865 l 205 879 l 220 879 l 220 894 l 235 894 l 235 907 l 247 907 l 247 922 l 262 922 l 262 937 l 289 937 l 289 952 l 305 952 l 305 964 l 334 964 l 334 979 l 377 979 l 377 994 l 553 994 l 553 979 l 627 979 l 627 964 l 755 964 l 755 952 l 768 952 l 768 922 l 784 922 l 784 838 l 768 838 l 768 750 l 784 750 l 784 665 l 768 665 l 768 650 l 755 650 l 755 640 l 769 640 l 769 625 l 784 625 l 784 525 l 769 525 l 769 496 l 682 496 l 682 483 l 650 483 l 650 496 l 609 496 l 609 483 l 521 483 l 521 496 l 480 496 l 480 483 l 404 483 l 404 496 l 380 496 l 380 483 l 237 483 l 237 477 m 555 640 l 678 640 l 678 650 l 666 650 l 666 680 l 650 680 l 650 751 l 636 751 l 636 780 l 621 780 l 621 793 l 608 793 l 608 808 l 593 808 l 593 823 l 563 823 l 563 838 l 410 838 l 410 823 l 381 823 l 381 808 l 353 808 l 353 793 l 336 793 l 336 780 l 323 780 l 323 765 l 308 765 l 308 735 l 294 735 l 294 722 l 279 722 l 279 693 l 266 693 l 266 650 l 252 650 l 252 640 l 449 640 l 449 654 l 555 654 l 555 640 m 666 289 l 666 319 l 380 319 l 380 305 l 275 305 l 275 319 l 252 319 l 252 305 l 266 305 l 266 260 l 279 260 l 279 245 l 294 245 l 294 217 l 308 217 l 308 202 l 323 202 l 323 189 l 336 189 l 336 172 l 366 172 l 366 160 l 395 160 l 395 145 l 425 145 l 425 130 l 536 130 l 536 145 l 563 145 l 563 160 l 593 160 l 593 172 l 608 172 l 608 189 l 621 189 l 621 217 l 636 217 l 636 231 l 650 231 l 650 289 l 666 289 z "},"":{"ha":1123,"x_min":35,"x_max":1057,"o":"m 94 176 l 152 176 l 152 193 l 182 193 l 182 176 l 240 176 l 240 163 l 255 163 l 255 146 l 270 146 l 270 119 l 285 119 l 285 90 l 298 90 l 298 19 l 285 19 l 285 -23 l 270 -23 l 270 -38 l 255 -38 l 255 -52 l 240 -52 l 240 -66 l 227 -66 l 227 -80 l 212 -80 l 212 -96 l 152 -96 l 152 -80 l 110 -80 l 110 -66 l 80 -66 l 80 -52 l 65 -52 l 65 -38 l 50 -38 l 50 -9 l 35 -9 l 35 76 l 50 76 l 50 134 l 65 134 l 65 146 l 80 146 l 80 163 l 94 163 l 94 176 m 473 193 l 530 178 l 530 193 l 562 193 l 562 176 l 618 176 l 618 163 l 633 163 l 633 146 l 648 146 l 648 119 l 663 119 l 663 90 l 677 90 l 677 19 l 663 19 l 663 -23 l 648 -23 l 648 -38 l 633 -38 l 633 -52 l 618 -52 l 618 -66 l 606 -66 l 606 -80 l 590 -80 l 590 -96 l 530 -96 l 530 -80 l 488 -80 l 488 -66 l 458 -66 l 458 -52 l 444 -52 l 444 -38 l 429 -38 l 429 -9 l 414 -9 l 414 76 l 429 76 l 429 134 l 444 134 l 444 146 l 458 146 l 458 163 l 473 163 l 473 193 m 852 193 l 909 178 l 909 193 l 940 193 l 940 176 l 997 176 l 997 163 l 1013 163 l 1013 146 l 1027 146 l 1027 119 l 1042 119 l 1042 90 l 1057 90 l 1057 19 l 1042 19 l 1042 -23 l 1027 -23 l 1027 -38 l 1013 -38 l 1013 -52 l 997 -52 l 997 -66 l 985 -66 l 985 -80 l 970 -80 l 970 -96 l 909 -96 l 909 -80 l 867 -80 l 867 -66 l 837 -66 l 837 -52 l 822 -52 l 822 -38 l 808 -38 l 808 -9 l 792 -9 l 792 76 l 808 76 l 808 134 l 822 134 l 822 146 l 837 146 l 837 163 l 852 163 l 852 193 z "},"":{"ha":331,"x_min":11,"x_max":312,"o":"m 144 1024 l 142 1028 l 134 1025 l 133 1031 l 11 1236 l 20 1240 l 12 1255 l 35 1275 l 35 1280 l 90 1313 l 90 1305 l 94 1301 l 100 1305 l 151 1222 l 141 1217 l 161 1187 q 169 1200 167 1196 q 180 1218 171 1203 q 175 1221 178 1219 q 171 1222 172 1222 l 218 1298 l 229 1302 l 232 1306 l 232 1313 l 286 1280 l 285 1275 l 312 1257 l 301 1240 l 311 1236 l 189 1031 l 187 1031 l 187 1025 l 178 1029 l 161 1031 l 144 1024 z "},"":{"ha":312,"x_min":18,"x_max":288,"o":"m 278 1146 l 278 1141 q 277 1117 278 1120 q 270 1111 275 1114 q 267 1093 270 1100 q 255 1086 264 1086 q 251 1073 252 1076 q 250 1069 250 1070 q 244 1068 247 1072 q 240 1061 241 1065 q 228 1046 232 1046 q 225 1050 229 1046 q 217 1040 222 1042 l 241 1017 q 223 1017 236 1017 q 195 1017 210 1017 q 167 1016 180 1016 q 149 1016 153 1016 l 113 1016 q 109 1020 111 1016 q 103 1028 106 1024 q 92 1029 98 1028 q 83 1036 87 1029 l 79 1036 q 68 1038 71 1036 q 62 1047 65 1039 q 54 1050 58 1047 q 49 1061 50 1053 q 42 1078 43 1063 q 37 1076 39 1076 q 34 1096 34 1076 l 26 1096 l 18 1199 l 52 1225 l 56 1225 q 57 1223 56 1223 l 61 1223 l 65 1223 l 71 1221 l 79 1221 q 86 1220 81 1221 q 94 1219 91 1219 l 94 1173 q 98 1169 96 1171 q 103 1161 100 1168 l 106 1157 l 107 1157 q 114 1148 110 1157 q 122 1133 118 1139 q 117 1146 122 1145 q 125 1149 122 1146 q 134 1138 132 1149 q 146 1135 136 1138 l 144 1137 q 149 1135 148 1137 q 161 1146 156 1145 q 168 1147 165 1147 q 175 1141 178 1147 l 179 1146 q 201 1176 179 1169 l 201 1218 q 212 1219 203 1218 q 220 1225 220 1219 l 256 1226 l 256 1215 l 260 1214 l 259 1215 l 288 1207 l 278 1146 m 255 1086 q 259 1101 259 1088 l 255 1086 m 138 1118 l 138 1114 l 141 1109 l 138 1118 m 99 1038 l 103 1029 l 99 1038 z "},"":{"ha":822,"x_min":35,"x_max":755,"o":"m 484 231 l 499 231 l 499 288 l 484 288 l 484 301 l 307 301 l 307 288 l 262 288 l 262 273 l 235 273 l 235 259 l 208 259 l 208 244 l 193 244 l 193 232 l 180 232 l 180 202 l 165 202 l 165 201 l 180 201 l 180 172 l 208 172 l 208 160 l 235 160 l 235 145 l 387 145 l 387 160 l 415 160 l 415 172 l 442 172 l 442 187 l 471 187 l 471 201 l 484 201 l 484 231 m 316 132 l 309 132 l 319 104 l 319 145 l 316 145 l 316 132 m 208 133 l 208 160 l 198 160 l 208 133 m 235 118 l 235 145 l 227 145 l 235 118 m 492 301 l 484 330 l 484 301 l 492 301 m 245 693 l 316 693 l 316 708 l 530 708 l 530 693 l 557 693 l 557 681 l 586 681 l 586 666 l 601 666 l 601 651 l 614 651 l 614 637 l 631 637 l 631 610 l 643 610 l 643 400 l 631 400 l 631 160 l 666 160 l 666 172 l 727 172 l 727 160 l 741 160 l 741 145 l 755 145 l 755 49 l 741 49 l 741 34 l 684 34 l 684 20 l 643 20 l 643 5 l 528 5 l 528 20 l 513 20 l 513 34 l 484 34 l 484 49 l 473 49 l 473 34 l 433 34 l 433 20 l 374 20 l 374 5 l 163 5 l 163 20 l 133 20 l 133 34 l 106 34 l 106 49 l 77 49 l 77 61 l 62 61 l 62 90 l 50 90 l 50 118 l 35 118 l 35 271 l 50 271 l 50 298 l 62 298 l 62 328 l 77 328 l 77 343 l 91 343 l 91 357 l 118 357 l 118 372 l 148 372 l 148 384 l 175 384 l 175 399 l 217 399 l 217 412 l 274 412 l 274 427 l 358 427 l 358 441 l 391 441 l 391 427 l 442 427 l 442 441 l 484 441 l 484 456 l 499 456 l 499 469 l 513 469 l 513 526 l 499 526 l 499 540 l 484 540 l 484 555 l 471 555 l 471 570 l 442 570 l 442 583 l 347 583 l 347 570 l 319 570 l 319 555 l 292 555 l 292 540 l 278 540 l 278 526 l 262 526 l 262 484 l 250 484 l 250 471 l 235 471 l 235 456 l 148 456 l 148 471 l 133 471 l 133 484 l 118 484 l 118 610 l 133 610 l 133 637 l 163 637 l 163 651 l 190 651 l 190 666 l 217 666 l 217 681 l 245 681 l 245 693 m 335 796 l 342 802 l 334 815 l 353 827 l 347 838 l 438 891 l 444 880 l 518 924 q 513 935 513 935 l 587 978 l 593 970 l 600 974 l 605 964 l 613 968 l 659 888 l 652 883 l 667 859 l 637 844 q 644 831 644 833 l 411 694 l 407 704 l 399 700 l 393 709 l 387 707 l 335 796 z "},"":{"ha":776,"x_min":34,"x_max":712,"o":"m 540 471 l 525 471 l 525 484 l 511 484 l 511 499 l 496 499 l 496 526 l 469 526 l 469 540 l 456 540 l 456 555 l 411 555 l 411 570 l 319 570 l 319 555 l 290 555 l 290 540 l 275 540 l 275 526 l 262 526 l 262 511 l 247 511 l 247 499 l 235 499 l 235 484 l 218 484 l 218 471 l 205 471 l 205 442 l 190 442 l 190 427 l 399 427 l 399 441 l 525 441 l 525 456 l 540 456 l 540 471 m 540 442 l 562 442 l 555 463 l 562 483 l 540 483 l 540 442 m 464 555 l 456 583 l 456 555 l 464 555 m 420 570 l 411 597 l 411 570 l 420 570 m 521 499 l 511 526 l 511 499 l 521 499 m 477 540 l 469 568 l 469 540 l 477 540 m 534 484 l 525 511 l 525 484 l 534 484 m 244 693 l 273 693 l 273 708 l 487 708 l 487 693 l 514 693 l 514 681 l 543 681 l 543 666 l 557 666 l 557 651 l 585 651 l 585 637 l 600 637 l 600 624 l 612 624 l 612 610 l 627 610 l 627 582 l 640 582 l 640 567 l 655 567 l 655 538 l 669 538 l 669 498 l 684 498 l 684 330 l 669 330 l 669 316 l 627 316 l 627 301 l 262 301 l 262 288 l 190 288 l 190 258 l 205 258 l 205 231 l 218 231 l 218 217 l 235 217 l 235 201 l 247 201 l 247 187 l 275 187 l 275 172 l 304 172 l 304 160 l 361 160 l 361 145 l 456 145 l 456 160 l 540 160 l 540 172 l 582 172 l 582 187 l 623 187 l 623 201 l 697 201 l 697 187 l 712 187 l 712 90 l 697 90 l 697 76 l 684 76 l 684 61 l 655 61 l 655 49 l 627 49 l 627 34 l 571 34 l 571 20 l 514 20 l 514 5 l 444 5 l 444 -8 l 286 -8 l 286 5 l 229 5 l 229 20 l 187 20 l 187 34 l 160 34 l 160 49 l 145 49 l 145 61 l 132 61 l 132 76 l 104 76 l 104 90 l 90 90 l 90 118 l 75 118 l 75 133 l 61 133 l 61 161 l 46 161 l 46 232 l 34 232 l 34 412 l 46 412 l 46 483 l 61 483 l 61 510 l 75 510 l 75 538 l 90 538 l 90 567 l 104 567 l 104 582 l 119 582 l 119 595 l 132 595 l 132 624 l 145 624 l 145 637 l 160 637 l 160 651 l 187 651 l 187 666 l 217 666 l 217 681 l 244 681 l 244 693 m 270 788 l 247 812 l 281 831 l 277 841 l 368 892 l 373 883 l 446 926 q 442 937 442 935 l 517 981 l 522 971 l 529 977 l 534 967 l 541 971 l 587 891 l 582 886 l 597 860 l 567 845 q 572 834 572 838 l 340 697 l 335 707 l 328 703 l 323 712 l 315 709 l 270 788 z "},"":{"ha":746,"x_min":34,"x_max":684,"o":"m 160 688 l 288 688 l 288 703 l 359 703 l 359 688 l 388 688 l 388 647 l 403 647 l 403 551 l 388 551 l 388 168 l 403 168 l 403 155 l 431 155 l 431 140 l 655 140 l 655 126 l 684 126 l 684 15 l 670 15 l 670 0 l 643 0 l 643 -14 l 553 -14 l 553 0 l 121 0 l 121 -14 l 77 -14 l 77 0 l 49 0 l 49 28 l 34 28 l 34 99 l 49 99 l 49 126 l 62 126 l 62 140 l 203 140 l 203 155 l 231 155 l 231 168 l 259 168 l 259 536 l 216 536 l 216 551 l 136 551 l 136 536 l 62 536 l 62 551 l 49 551 l 49 564 l 34 564 l 34 661 l 49 661 l 49 675 l 160 675 l 160 688 m 263 799 l 270 804 l 262 818 l 281 829 l 275 841 l 368 892 l 372 883 l 446 926 q 441 937 441 937 l 515 981 l 521 971 l 529 977 l 533 967 l 541 971 l 587 891 l 581 886 l 595 860 l 566 845 q 572 834 572 836 l 339 697 l 335 707 l 327 703 l 323 712 l 315 709 l 263 799 z "}}}
